<svg xmlns="http://www.w3.org/2000/svg" x="0px" y="0px" viewBox="0 0 1138.3 796" style="vertical-align: middle; max-width: 100%; width: 100%;" width="100%"><g>
	<path d="M313.8,14.5c-0.2,0.2-0.3,0.4-0.4,0.8c-4.3,7.6-10.4,45-18.1,112.1c-0.8,5.9-5.1,35.4-13,88.6c2-1.7,4.2-3.1,6.7-4.1    c4.2-1.7,9.1-3.2,14.8-4.4s11.6-2.2,17.9-3s10.5-1.5,12.6-2c10.7-2.2,30.5-7.3,59.3-15.5s46.4-13.5,52.5-16.1    c2.7-1.1,4.8-1.9,6-2.6l5.3-2.5c2.3-0.5,4.6,0.3,7,2.6c2.4,2.3,3.2,4.6,2.4,7.1c-0.3,0.9-1,1.8-2.3,2.8c-1.2,1-2.5,1.7-3.8,2    c-0.3,0.4-1.2,0.5-2.8,0.5c-1.6,0-2.6,0-3.1,0c-2.8,0.6-17.9,4.7-45.3,12.3s-42.4,11.6-44.8,12c-10.5,2.3-26.9,5.6-49.3,10    c-1,0.3-2.4,0.6-4.2,0.9c-5.7,1.2-10,2.1-12.8,2.7c-2.8,0.6-5.7,1.4-8.8,2.6c-3.1,1.1-5.2,2.3-6.4,3.6c-1.1,1.1-2,2.8-2.8,5    c-1.4,8.5-2.3,14.2-2.7,17.1c-0.6,4.9-0.9,7.6-1,8.1c-0.5,5.1-0.8,7.7-0.8,7.9c-0.3,0.9-0.7,1.7-1.3,2.4c-1.6,3-3.7,4.4-6.4,4.4    c-2.6,0.7-4.6,0.2-5.9-1.7c-1.5-2.2-1.8-5.5-0.7-10c0.1-0.7,0.4-1.5,0.8-2.6c0.2-0.2,0.6-1.6,1.4-4.1c0.1-0.3,0.5-1.4,1.1-3.2    l1.5-4.5c2.3-10.1,5.4-26.9,9.6-50.3c4.1-23.5,6.6-38.1,7.4-43.9c0.6-4.2,3.1-25.6,7.6-64.2c4.4-38.6,7.5-62.3,9.2-71.1    c0.5-1.9,1.2-4,2.2-6.2c2.1-4.4,4.6-6.9,7.6-7.5c3.1-0.8,5.6-0.3,7.5,1.6c1.9,1.8,2.7,4,2.2,6.6s-2.1,4.5-5,5.7L313.8,14.5z" fill="rgb(144,52,1)"></path>
	<path d="M471.3,119.9c-6,9.4-10.5,19.5-13.6,30.1c-3,10.7-2.7,17.3,1.1,20c1.4,0.9,4-0.7,7.8-4.9c3.8-4.1,7.8-9.6,12-16.5    c4.2-6.9,7.4-13.5,9.5-19.7c0.7-1.6,0.7-3.3,0-5.3c-0.4-0.3-0.6-0.6-0.8-0.9l-0.2,0l-0.1-0.7c-0.4-0.6-0.6-1.4-0.7-2.2    c-1.2-4.1-0.8-7.1,1.2-9.1c0.5-0.5,1.6-0.8,3.3-0.7c1.8,0.1,3.4,0.5,5,1.2c0.7,0.1,2,0.3,3.8,0.5c1.9,0.2,3.3,0.4,4.3,0.5    c8.1,0.3,16.1-1.6,24.1-5.5c2.7-1.3,5.9-3.2,9.5-5.9c0.3-0.2,0.7-0.6,1.3-1.1c0.5-0.6,1-0.8,1.3-0.9c2.8-1.9,5.9-2.5,9.3-1.6    s5.2,2.7,5.7,5.5c0.2,0.8-0.2,2.1-1.4,3.8c-1.2,1.7-2.5,3-3.9,4c-1.6,1-5.1,2.4-10.7,4.2c-1.6,0.5-5.2,1.7-10.7,3.7    c-6.6,2.4-14.1,4.4-22.3,5.8c-0.7,0.1-1.6,0.3-3,0.6c-1.3,0.4-2.2,0.6-2.7,0.6c-2.9,12.6-8.8,25.1-17.9,37.3    c-6.7,9.1-12.8,14.3-18.4,15.5c-4.3,0.7-8.3-0.9-12-4.8c-3.7-3.9-5.6-8.3-5.7-13.2c0-1.5,0.1-3.1,0.2-4.7c0.1-1.6,0.3-3.3,0.7-5    c0.3-1.7,0.6-3.2,0.8-4.5c0.2-1.3,0.6-2.9,1.2-4.9c0.6-2,1-3.4,1.4-4.4c0.3-1,0.9-2.5,1.7-4.7c0.8-2.2,1.3-3.6,1.6-4.2    s0.9-2.1,1.8-4.6l1.6-4.2c0.1-0.7,0.6-1.9,1.4-3.6c0.8-1.8,1.4-3.1,1.6-4.2c1.2-3.5,2.1-5.5,2.7-6.3c1.6-2.7,3.7-4,6.4-4.1    c2.7-0.1,4.6,0.9,5.8,3s1.4,4.7,0.5,8C475.9,112.3,474.4,114.9,471.3,119.9z" fill="rgb(144,52,1)"></path>
	<path d="M556.8,110.5c-2.5,4.1-7.3,15.1-14.6,33c-1.2,3-2.7,7.4-4.3,13.2c-1.6,5.8-2.6,9.1-2.9,9.8c7.1-6.3,24.2-18.8,51.3-37.5    s44.6-29.8,52.7-33.6c0.8-0.4,2.3-1,4.6-1.9s3.9-1.5,4.8-1.9c5.2-2.1,8.1-3.3,8.7-3.6c3.5-0.7,6.7,0.2,9.8,2.5    c3.1,2.3,3.8,4.7,2.2,7.2c-1.3,2.1-4.6,3.9-9.8,5.4c-1,0.3-2.4,0.5-4.3,0.6s-3.4,0.4-4.3,0.6c-5.1,1.1-21.5,10-49.3,26.6    c-27.8,16.6-43.6,26.6-47.5,30c-1.9,1.7-8.6,8.1-20.1,19.2c-3.7,3.5-6.9,3.7-9.5,0.6c-3.2-3.4-3.2-9.2-0.1-17.6    c2.1-6.1,4.7-13.3,7.8-21.7c3.1-8.4,5.6-15.1,7.4-20.1c1.9-5,3.2-8.8,4-11.4c1-3.3,1.6-5.3,1.7-5.9c0.5-2.4,0.7-3.8,0.9-4.1    c1.7-2,4.4-1.9,8.2,0.1s5.5,4.1,5.2,5.9L556.8,110.5z" fill="rgb(144,52,1)"></path>
	<path d="M649.4,130.8c-1.5,4.9-2,8.6-1.6,11.1c0.1,1,0.7,2.2,1.8,3.6c1.1,1.4,2.7,2.8,4.8,4.2c2.1,1.4,4.9,2.5,8.6,3.4    c3.7,0.8,7.7,1.1,12,0.9c7.8-0.5,15.2-1.9,22.1-4.2c6.9-2.2,12.3-4.4,16.1-6.5c3.8-2.1,9-5.2,15.5-9.3    c14.1-8.8,27.2-17.8,39.3-26.9c12.1-9.1,20.4-15.8,24.9-19.9c2.3-2.2,4.2-4.2,5.7-5.8c0.5-0.5,1-1.4,1.8-2.5c0.7-1.2,1.3-1.8,1.6-2    c1.2-1.1,3.3-1.2,6.3-0.2c2.9,1,4.8,2.6,5.7,4.9c0.4,0.8,0.4,1.9,0,3.3c-0.4,1.4-1.1,2.5-2.2,3.5c-0.5,0.5-1.4,1.2-2.8,1.9    c-1.4,0.7-2.4,1.3-2.9,1.6s-3,2.4-7.7,6c-4.7,3.6-9.8,7.5-15.4,11.7c-5.6,4.2-12.6,9.3-21.2,15.2c-8.6,6-17,11.3-25.3,16.1    c-11.7,7.1-26,12.8-42.9,17s-27.7,5.9-32.7,5c-9.2-1.7-15.8-5.9-19.7-12.8c-2.2-3.6-3.2-8.3-3.2-14s1.3-11.2,3.6-16.6    c4.9-10.5,11.8-19.9,20.6-28.4c8.9-8.4,18.2-13.8,28-16c4.6-1.1,8-0.5,10.3,1.8c2.3,2.3,3.2,5.2,2.8,8.7c-0.4,3.5-1.9,6.2-4.4,8.3    c-4.7,3.9-10.5,8.1-17.4,12.4c-2.7,1.8-6.4,3.7-11,5.8c-0.5,0.2-1.3,0.6-2.4,1.2c-1.1,0.6-1.8,1-2.2,1.1c-0.3,0.1-1,0.4-2.1,0.8    c-1,0.4-1.7,0.6-2,0.4c-0.3-0.1-0.9-0.2-1.9-0.1c-1.3,0-2.5-0.2-3.6-0.4C653.3,120.6,650.9,125.9,649.4,130.8z M693,84.2    c-6.8,0.3-12.4,2.4-16.7,6.3c-2.8,2.4-5.4,5.1-7.8,8c0.2,0,0.3-0.1,0.5-0.3c7.1-2.5,15.5-7.2,25.1-14.1L693,84.2z" fill="rgb(144,52,1)"></path>
	<path d="M359.7,371.5c-2.9,6.5-5.1,12.7-6.6,18.7c-1.8,6.4-1.8,11.9,0,16.6c1.8,5,5.6,5.7,11.5,2c1.6-1,4.7-3,9.2-6    c4.6-3,7.9-5.2,10-6.4l9-5.6c4-2.5,7.1-4.3,9.4-5.6c2.3-1.3,4.9-2.8,7.9-4.4c2.9-1.6,5.5-2.8,7.7-3.6s4.2-1.4,6-1.9    c3.8-0.7,8.9,0.3,15.4,2.9c6.5,2.6,12.3,6.3,17.2,11.2c2.7,2.4,7.4,3.1,13.9,1.9c6.5-1.2,13.2-3.8,20-7.7    c20.6-12.3,38.7-24.6,54.1-37.1c2.8-2.3,4.8-3.9,5.8-4.8c3.2-3,4.9-4.6,5.1-4.7c2.1-1,4.6-0.8,7.6,0.7c3,1.5,4.3,3.6,4.1,6.3    c0.1,0.8-0.3,1.9-1.2,3.2s-2,2.4-3.2,3.2c-0.6,0.4-1.7,0.8-3.1,1.3c-1.5,0.5-2.4,0.9-2.9,1.3c-1.1,0.6-3.7,2.3-7.7,5    s-9.6,6.4-16.7,11.2c-7.1,4.8-13.8,9.1-20.1,13c-0.8,0.6-3.4,2.4-7.9,5.4s-7.7,5-9.5,6c-1.8,1-4.4,2.3-7.8,4    c-3.4,1.6-6.4,2.8-9,3.3c-4.6,0.9-8.9,1.2-12.9,0.8c-4-0.4-7.2-1.3-9.7-2.8c-2.5-1.4-4.3-2.7-5.5-3.6s-2.2-2-2.9-3.1    c-2.1-2.7-5.3-4.8-9.6-6.4c-4.3-1.6-9.8-1.8-16.4-0.5c-1.5,0.3-3,0.7-4.7,1.3s-3,1.1-4.2,1.6s-2.7,1.3-4.6,2.3    c-1.8,1-3.3,1.8-4.3,2.4c-1,0.6-2.6,1.6-4.6,3.1c-2,1.4-3.5,2.5-4.4,3c-0.9,0.6-2.4,1.7-4.7,3.3s-3.7,2.6-4.4,3    c-5.5,4-10.9,7.1-16.4,9.2s-10.5,2.8-15.2,2.3c-4.7-0.6-8-2.9-9.9-6.9c-1.3-2.7-2.1-5.5-2.4-8.4s-0.3-5.8,0.1-8.7    c0.4-2.9,0.8-5.4,1.3-7.5c0.5-2.1,1.1-4.5,1.9-7.1l1.5-5.2c0-0.2,0.2-1.2,0.7-3.2c0.5-2,0.9-3.5,1.1-4.5c0.7-3.4,1.2-5.6,1.4-6.7    c1.1-3.1,2.8-5,5.4-5.6c2.5-0.7,4.7,0,6.6,1.9c1.8,1.9,2.5,4.7,2,8.2C362.9,363.9,361.8,366.8,359.7,371.5z" fill="rgb(144,52,1)"></path>
	<path d="M537,382.2c-1.5,4.9-2,8.6-1.6,11.1c0.1,1,0.7,2.2,1.8,3.6c1.1,1.4,2.7,2.8,4.8,4.2c2.1,1.4,4.9,2.5,8.6,3.4    c3.7,0.8,7.7,1.1,12,0.9c7.8-0.5,15.2-1.9,22.1-4.2c6.9-2.2,12.3-4.4,16.1-6.5c3.8-2.1,9-5.2,15.5-9.3    c14.1-8.8,27.2-17.8,39.3-26.9c12.1-9.1,20.4-15.8,24.9-19.9c2.3-2.2,4.2-4.2,5.7-5.8c0.5-0.5,1-1.4,1.8-2.5c0.7-1.2,1.3-1.8,1.6-2    c1.2-1.1,3.3-1.2,6.3-0.2c2.9,1,4.8,2.6,5.7,4.9c0.4,0.8,0.4,1.9,0,3.3c-0.4,1.4-1.1,2.5-2.2,3.5c-0.5,0.5-1.4,1.2-2.8,1.9    c-1.4,0.7-2.4,1.3-2.9,1.6c-0.5,0.4-3,2.4-7.7,6c-4.7,3.6-9.8,7.5-15.4,11.7c-5.6,4.2-12.6,9.3-21.2,15.2s-17,11.3-25.3,16.1    c-11.7,7.1-26,12.8-42.9,17s-27.7,5.9-32.7,5c-9.2-1.7-15.8-5.9-19.7-12.8c-2.2-3.6-3.2-8.3-3.2-14c0.1-5.7,1.3-11.2,3.6-16.6    c4.9-10.5,11.8-19.9,20.6-28.4c8.9-8.4,18.2-13.8,28-16c4.6-1.1,8-0.5,10.3,1.8s3.2,5.2,2.8,8.7s-1.9,6.2-4.4,8.3    c-4.7,3.9-10.5,8.1-17.4,12.4c-2.7,1.8-6.4,3.7-11,5.8c-0.5,0.2-1.3,0.6-2.4,1.2s-1.8,1-2.2,1.1s-1,0.4-2.1,0.8    c-1,0.4-1.7,0.6-2,0.4c-0.3-0.1-0.9-0.2-1.9-0.1c-1.3,0-2.5-0.2-3.6-0.4C540.9,372,538.5,377.3,537,382.2z M580.6,335.7    c-6.8,0.3-12.4,2.4-16.7,6.3c-2.8,2.4-5.4,5.1-7.8,8c0.2,0,0.3-0.1,0.5-0.3c7.1-2.5,15.5-7.2,25.1-14.1L580.6,335.7z" fill="rgb(144,52,1)"></path>
	<path d="M698.1,338.7c-2.5,4.1-7.3,15.1-14.6,33c-1.2,3-2.7,7.4-4.3,13.2c-1.6,5.8-2.6,9.1-2.9,9.8c7.1-6.3,24.2-18.8,51.3-37.5    s44.6-29.8,52.7-33.6c0.8-0.4,2.3-1,4.6-1.9s3.9-1.5,4.8-1.9c5.2-2.1,8.1-3.3,8.7-3.6c3.5-0.7,6.7,0.2,9.8,2.5    c3.1,2.3,3.8,4.7,2.2,7.2c-1.3,2.1-4.6,3.9-9.8,5.4c-1,0.3-2.4,0.5-4.3,0.6s-3.4,0.4-4.3,0.6c-5.1,1.1-21.5,10-49.3,26.6    c-27.8,16.6-43.6,26.6-47.5,30c-1.9,1.7-8.6,8.1-20.1,19.2c-3.7,3.5-6.9,3.7-9.5,0.6c-3.2-3.4-3.2-9.2-0.1-17.6    c2.1-6.1,4.7-13.3,7.8-21.7c3.1-8.4,5.6-15.1,7.4-20.1c1.9-5,3.2-8.8,4-11.4c1-3.3,1.6-5.3,1.7-5.9c0.5-2.4,0.7-3.8,0.9-4.1    c1.7-2,4.4-1.9,8.2,0.1c3.8,2.1,5.5,4.1,5.2,5.9L698.1,338.7z" fill="rgb(144,52,1)"></path>
	<path d="M790.7,359c-1.5,4.9-2,8.6-1.6,11.1c0.1,1,0.7,2.2,1.8,3.6c1.1,1.4,2.7,2.8,4.8,4.2c2.1,1.4,4.9,2.5,8.6,3.4    c3.7,0.8,7.7,1.1,12,0.9c7.8-0.5,15.2-1.9,22.1-4.2c6.9-2.2,12.3-4.4,16.1-6.5c3.8-2.1,9-5.2,15.5-9.3    c14.1-8.8,27.2-17.8,39.3-26.9c12.1-9.1,20.4-15.8,24.9-19.9c2.3-2.2,4.2-4.2,5.7-5.8c0.5-0.5,1-1.4,1.8-2.5c0.7-1.2,1.3-1.8,1.6-2    c1.2-1.1,3.3-1.2,6.3-0.2c2.9,1,4.8,2.6,5.7,4.9c0.4,0.8,0.4,1.9,0,3.3c-0.4,1.4-1.1,2.5-2.2,3.5c-0.5,0.5-1.4,1.2-2.8,1.9    c-1.4,0.7-2.4,1.3-2.9,1.6s-3,2.4-7.7,6c-4.7,3.6-9.8,7.5-15.4,11.7c-5.6,4.2-12.6,9.3-21.2,15.2c-8.6,6-17,11.3-25.3,16.1    c-11.7,7.1-26,12.8-42.9,17s-27.7,5.9-32.7,5c-9.2-1.7-15.8-5.9-19.7-12.8c-2.2-3.6-3.2-8.3-3.2-14c0.1-5.7,1.3-11.2,3.6-16.6    c4.9-10.5,11.8-19.9,20.6-28.4c8.9-8.4,18.2-13.8,28-16c4.6-1.1,8-0.5,10.3,1.8s3.2,5.2,2.8,8.7c-0.4,3.5-1.9,6.2-4.4,8.3    c-4.7,3.9-10.5,8.1-17.4,12.4c-2.7,1.8-6.4,3.7-11,5.8c-0.5,0.2-1.3,0.6-2.4,1.2s-1.8,1-2.2,1.1c-0.3,0.1-1,0.4-2.1,0.8    c-1,0.4-1.7,0.6-2,0.4c-0.3-0.1-0.9-0.2-1.9-0.1c-1.3,0-2.5-0.2-3.6-0.4C794.6,348.8,792.2,354.1,790.7,359z M834.3,312.5    c-6.8,0.3-12.4,2.4-16.7,6.3c-2.8,2.4-5.4,5.1-7.8,8c0.2,0,0.3-0.1,0.5-0.3c7.1-2.5,15.5-7.2,25.1-14.1L834.3,312.5z" fill="rgb(144,52,1)"></path>
	<path d="M985.4,315.4c-0.3,0.5-0.7,1.2-1.2,2c-0.5,0.8-0.9,1.4-1.2,1.7c-1.6,2.7-3.1,5.8-4.7,9.5s-2.9,8.8-4.2,15.5    c-1.3,6.6-1.6,13-0.9,18.9c0.3,3,4.5,4.4,12.8,4.2s14.7-1.3,19.1-3.4c7.8-3.1,28.5-14.7,62.2-34.8s52.9-32.2,57.6-36.2    c1.2-1.1,2.2-2,3-2.8c0.1-0.3,0.3-0.7,0.5-1.1c0.2-0.4,0.4-0.7,0.5-0.9c0.1-0.3,0.3-0.4,0.5-0.4c0.8-0.2,2.3,0.6,4.5,2.6    c2.2,2,3.6,4.1,4.1,6.4c0.3,2,0.3,3.2-0.2,3.5c-0.3,0.2-0.8,0.3-1.6,0.4l-1.6,0.1c-1.4,0.6-17.5,10.3-48.1,28.9    c-30.6,18.6-48,29-52.1,31c-0.6,0.4-3.6,2-9,4.7c-5.4,2.7-9.7,4.9-13.1,6.3c-3.4,1.5-7.7,3.1-12.9,4.9c-5.2,1.8-9.9,2.8-14,2.9    s-7.8-0.6-10.7-2.2c-3.3-1.7-5.8-4.7-7.4-9.1s-2.3-9.5-2.2-15.4c0.1-5.9,0.5-11.1,1.1-15.8s1.3-9.4,2.2-14.1    c-1.4,0.6-2.9,1.2-4.4,1.7c-8.9,2.8-16.1,2.8-21.6,0c-2.6-1.4-4.7-3.4-6.2-6c-1.5-2.5-1.8-5.2-1-8.1c0.8-2.8,2.3-4.6,4.5-5.2    c2.2-0.6,4.3-0.3,6.2,1.1c2,1.3,3.1,3.1,3.5,5.2c0,0.3,0,0.8,0,1.3c0,0.5,0,0.9,0,1.3l-0.2,0.3c0.6,1,2.2,1.3,4.9,1.2    s5.9-1,9.6-2.5c2.2-1.2,4.7-3.1,7.3-5.7c0.3-0.2,0.6-0.6,0.8-1.1s0.4-0.8,0.6-0.8c1.2-1.6,3.3-2.3,6.2-2.1c3,0.2,5.3,1.4,7,3.6    c0.4,0.5,0.5,1.4,0.5,2.7c0.5,1.3,0.4,2.6-0.1,4C985.9,314.4,985.7,314.9,985.4,315.4z" fill="rgb(144,52,1)"></path>
	<path d="M47.8,784.7l-0.3-2.7c0.1-1.2,0.2-2.4,0.4-3.6s0.5-2.6,0.8-4.1c0.3-1.5,0.5-2.8,0.8-3.8c1.3-9.3,6.3-36.4,14.9-81.2    s15.2-76.6,19.6-95.4C72.4,601.3,56,610,35,620.2l-11.6,5.3c-5.1,2.8-8.4,4.4-9.8,4.9c-4.5,1.8-8.1,2-10.7,0.6s-3.5-3.5-2.5-6.4    c1-2.9,3.6-5.5,8-7.8c1.3-0.6,5.8-2.3,13.6-5c14.8-5,29-10.7,42.6-17c7.7-3.7,15.1-7.7,22.2-12.1c0.3-0.9,0.5-1.6,0.8-2.3    c5.6-15.7,12.6-31.6,21-47.6c3.9-7.2,8.6-13.7,14.3-19.5c5.7-5.8,9.8-7.6,12.5-5.5c4.9,4.6,6.9,11.6,5.9,21c-1,9.5-3.6,16.9-8,22.3    c-8.5,10.8-19.4,21.2-32.5,31.1c-6.5,24.2-13.5,53.5-21.1,88c0.6-0.9,1.1-1.5,1.6-1.9c3.5-2.5,14.9-8.8,34.4-18.8    s40.2-20.6,62-31.7s33.8-17.2,35.9-18.3c2.9-1.4,4.8-2.4,5.7-3c0.5-0.4,1-0.8,1.6-1.3c0.6-0.5,1.2-0.8,1.7-1    c0.5-0.2,0.9-0.4,1.2-0.6c1.6-0.3,3.5,0.6,5.7,2.9c2.1,2.2,3.1,4.5,2.8,6.9c-0.5,2.4-1.6,3.9-3.6,4.6c-0.6,0.2-1.5,0.4-2.6,0.5    l-2.6,0.2c-3.4,1-22.3,9.6-56.5,25.9c-34.2,16.3-54.5,26.2-60.9,29.8c-7.8,4.2-14.8,10.4-21,18.5s-11,20-14.4,35.7    c-4.2,19.6-7,34.2-8.3,43.7c-0.3,3.9-0.4,7.7-0.2,11.3c0,1.3,0,3.3,0.3,5.7s0.3,4.2,0.2,5c0,0.5,0,1-0.1,1.5l0.1,1    c-0.1,2.5-0.8,4.5-2.1,6.1c-1.3,1.5-2.8,2.4-4.7,2.6c-1.9,0.8-3.6,0.6-5.1-0.8c-0.7-0.8-1.5-2.5-2.2-5.1l-0.8-2.9    C47.7,786.2,47.7,785.5,47.8,784.7z M120.2,555.4c4.4-5.1,7.5-11.5,9.3-19.2c2.1-9.9,2.5-16.5,1.2-19.9    c-10.5,15.4-16.8,25.4-18.8,30.1c-2,4-4.7,12.1-8.1,24.3C110.2,565.7,115.7,560.6,120.2,555.4z" fill="rgb(144,52,1)"></path>
	<path d="M214.5,614l-3-0.1c-0.7,0-1.6,0.1-2.7,0.4c-3.9,1-9.2,5.5-16,13.4c-6.7,7.9-11.9,17.5-15.6,28.7c-0.9,2.8-0.7,5.7,0.5,8.7    s2.9,4.8,4.8,5.3c5.3,1.5,11.1-0.5,17.3-6.1c2.3-2.1,4.7-4.3,7-6.8c2.4-2.5,5.1-5.4,8.1-8.8c3-3.4,5.2-5.8,6.6-7.3    c0.5-0.4,1.2-1.1,2.1-2.1c0.9-1,1.6-1.8,2-2.3c0.5-0.5,1.2-1.3,2.2-2.2c1-0.9,1.7-1.6,2.1-1.9c0.4-0.4,1-1,2-1.8    c0.9-0.8,1.6-1.4,2-1.6s1-0.6,1.8-1s1.4-0.7,1.7-0.5c0.3,0.1,0.9,0.2,1.5,0.1c1.4,0.2,2.5,0.7,3.4,1.4c0.9,0.8,1.6,1.5,2.2,2.3    c0.6,0.8,1,1.8,1.4,3c0.4,1.2,0.6,2.2,0.8,2.9c0.2,0.7,0.3,1.8,0.4,3.2l0.2,2.6c0,0.3,0.2,1.2,0.4,2.6c0.2,1.4,0.4,2.5,0.6,3.3    c0.2,0.8,0.4,1.9,0.7,3.3c0.3,1.4,0.7,2.5,1.1,3.4c0.4,0.9,1,1.8,1.6,2.7s1.4,1.7,2.1,2.3c1.1,0.6,2.3,0.8,3.8,0.8    c1.5-0.1,3.5-0.5,5.9-1.4c2.4-0.9,4.5-1.7,6.3-2.5s4.5-1.9,8.2-3.4c1.6-0.8,2.8-1.3,3.6-1.6c15.4-6.8,34.7-16.2,57.7-28.4    c26.8-14,46.4-24.7,58.6-32.2c4.9-2.8,8.6-5,11-6.5c1-0.6,2.1-1.4,3.4-2.3c1.3-1,2.5-1.8,3.4-2.4c0.9-0.7,1.7-1.1,2.4-1.3    c3.7-1.7,7.4-1.9,11.1-0.6c3.7,1.2,5.1,3.3,4.2,6c-0.4,1-1.6,2.4-3.5,4.2c-1.9,1.8-4.1,3.3-6.5,4.7c-1.1,0.6-2.9,1.4-5.3,2.2    c-2.4,0.9-4.1,1.5-5.1,2c-3.2,1.5-16.8,8.1-40.9,19.8c-24,11.7-47.3,23-69.8,33.9c-22.5,10.8-35.1,16.6-37.7,17.4l-1.9,0.9    c-1.4,0.6-2.7,1.1-3.6,1.3c-1,0.3-2.3,0.3-4,0c-1.7-0.3-3.4-1.1-5-2.4c-1.3-1.1-2.5-2.3-3.6-3.7c-1.1-1.4-2.1-2.9-2.8-4.4    c-0.7-1.5-1.4-3.1-2.1-4.7s-1.1-3.2-1.4-4.6l-0.9-4.4c-0.3-1.5-0.5-2.8-0.5-4s-0.1-2.2-0.2-3.1l-0.2-1.9l-0.1-0.7    c-0.5,0.4-1.1,1.1-1.8,2.2c-3,3.3-5.4,5.9-7.1,7.8c-1.7,1.9-4.2,4.7-7.7,8.2s-6.4,6.4-8.8,8.5c-2.4,2.1-5.4,4.4-8.9,7    c-3.5,2.6-6.7,4.4-9.4,5.5c-2.7,1.1-5.7,1.8-8.8,2.2s-6.1,0-8.9-1.1c-4.3-1.6-7-5.7-7.9-12.2c-0.9-6.5-0.5-13.3,1.2-20.2    c1.7-6.9,4-12.8,6.9-17.6c5.4-9,12.4-16.7,21.2-23c2.5-1.9,5.6-3.4,9.1-4.4c4.4-1.2,8-1.7,10.7-1.5c4.4,0.6,7.4,2.1,8.9,4.5    c1.6,2.4,1.4,4.6-0.5,6.8c-1.9,2.2-5,3.3-9.4,3.4C216.7,614.1,215.8,614.1,214.5,614z" fill="rgb(144,52,1)"></path>
	<path d="M432.6,594.5c-8.5,11.7-14.1,24-17,37c-1,5.3-0.9,9.5,0.3,12.5s2.9,4.8,5.1,5.1c5.3,0.7,11.7-0.4,19.3-3.3    c7.1-2.7,27.1-14,59.9-34.1s51.7-32.3,56.6-36.8c1.6-1.3,2.7-2.5,3.4-3.6c0.3-0.4,0.6-0.8,0.9-1.3s0.5-0.9,0.8-1.2    c0.2-0.3,0.5-0.5,0.8-0.7c1-0.4,2.8,0.1,5.4,1.6c2.6,1.5,4.2,3.3,4.8,5.5c0.5,2.3,0.2,3.9-1.1,4.9c-0.5,0.4-1.2,0.7-2.2,1    s-1.6,0.5-1.9,0.7c-0.8,0.4-16.7,10.5-47.6,30.2c-30.9,19.7-48.5,30.6-52.9,32.5c-4.2,2.1-8.6,3.9-13.2,5.6s-10.1,3.4-16.3,5.3    c-6.3,1.8-11.9,2.6-17,2.3c-5-0.3-8.7-1.8-11-4.6c-2.4-3-4-6.6-4.5-10.9c-0.6-4.3-0.2-9.1,1.2-14.5c1.3-5.4,2.6-9.8,3.8-13.3    s3-7.9,5.3-13.3c2.4-5.4,3.6-8.2,3.8-8.4l1-2.4c0.7-1.6,1.1-2.8,1.2-3.6c0.9-2.6,1.6-4.2,2.1-4.7c2.2-3.2,5.2-3.8,9-1.7    c3.8,2.1,5,5,3.7,8.8C436.2,589.3,435,591.1,432.6,594.5z M468.2,520c0.9,2.4,0,5.6-2.7,9.4c-2.7,3.8-6.1,5.1-10.2,3.8    c-3.3-1.2-4.9-4.4-4.8-9.6s1.5-8.8,4.1-10.9c3.6-3,6.6-3.8,9.2-2.3s3.6,3.9,3.1,7.5C467.5,518.5,467.9,519.2,468.2,520z" fill="rgb(144,52,1)"></path>
	<path d="M576,564.7c4.1-2.5,6.9-4.2,8.3-5.2c8.5-5.5,21.2-14.7,38.1-27.8c15.1-34.2,33.2-60.2,54.4-78c2.2-2,5.2-3.3,9.1-3.8    c3.9-0.5,7.7-0.1,11.4,1.3c3.7,1.4,6.2,3.8,7.6,7.2c0.9,2.3,1.1,4.6,0.6,7.1c-0.4,2.5-1.7,5-3.7,7.7c-2,2.7-3.5,4.6-4.5,5.8    c-1,1.2-2.5,2.9-4.4,5.1c-7.5,7.9-16,16.1-25.6,24.7c-10.8,9.9-21.8,19.3-33,28.4l-7,5.7c-5.5,13.2-10.3,27.3-14.5,42.2    c-4.5,16.1-6.8,30.4-6.9,42.8c-0.1,1,1.2,1.6,3.8,1.9s6.5,0,11.7-0.7c5.2-0.7,11.1-1.9,17.6-3.5c28-6.9,55.1-16,81.4-27.3    c26.2-11.3,44.4-20.3,54.5-27.1c3-1.9,7.1-5.1,12.4-9.4c7.5-6,11.4-9.2,11.7-9.4c6.5-3.9,12.4-5.3,17.7-4.1c3.2,0.7,4.2,2.4,3,5    c-1.4,3.1-6.3,7.5-14.6,13.1c-1.6,1.1-3.8,2.5-6.7,4.1s-4.9,2.7-6,3.3c-22.5,13.9-44.3,25.6-65.3,34.9c-21.4,9.5-44.4,17.1-69,22.9    c-2.6,0.6-7.7,1.9-15.2,3.9c-7.5,2-13.2,3.5-17.1,4.3s-8.3,1.3-13.3,1.3c-5,0-8.9-0.7-11.5-2.3c-1.1-0.6-1.9-1.3-2.6-2.3    c-0.7-0.9-1.2-2.1-1.6-3.5c-0.4-1.4-0.7-2.7-1-3.9c-0.3-1.2-0.4-2.7-0.3-4.5l0.2-4.4c0.1-1.2,0.3-2.7,0.6-4.6    c0.3-1.9,0.6-3.2,0.8-4l0.8-3.5l0.5-2.3c3.7-18.2,8.6-35.7,14.8-52.3c-1.3,1-5.2,4-11.7,9.1c-1.4,1.1-3.7,2.9-6.9,5.3    c-3.2,2.4-5.6,4.2-7.2,5.3c-6.4,5.1-10.6,8.2-12.7,9.2c-4.9,2.8-8.8,4.2-11.5,4.2c-2.8,0-4.7-0.7-5.7-2c-1-1.3-0.7-3.4,1.1-6.2    s4.7-5.7,8.8-8.6C569,568.9,571.8,567.2,576,564.7z M687.1,476.6c3.9-3.5,6.6-7.8,8.4-12.8c1.2-3.6,0-5.3-3.5-5    c-8.3,0.4-16.2,4.6-23.5,12.4c-7.4,8.2-15.2,19.6-23.2,34.3c-2.4,4.4-4.7,8.8-6.8,13.2C656.9,503.8,673.1,489.8,687.1,476.6z" fill="rgb(144,52,1)"></path>
	<path d="M805.8,563.6c-0.4,0.7-0.8,1.3-1.1,1.9s-0.5,0.8-0.7,0.9c-0.2,0.1,1.5,0.4,5,0.9c3.5,0.5,8.9,1.3,16.4,2.3    c7.5,1,16.1,2.1,25.9,3.4c5.9,0.6,10.7,2.7,14.4,6.2c19.2-7.5,50.1-17.7,92.7-30.7c42.6-13,70-20.9,82.3-23.7    c6.4-1.4,10-2.3,10.8-2.5l9.6-2.4c3.7-0.3,6.9,0.7,9.7,3.3c2.8,2.5,3.3,4.9,1.5,7.3c-1.6,2.3-5.2,3.9-10.9,4.8    c-1.2,0.1-2.9,0.1-5.1,0.1c-2.3,0-3.8,0-4.6,0c-6.7,0.4-33.9,6.7-81.9,18.8c-47.9,12.1-75.4,19.5-82.6,22.4    c-5.5,2.3-11.3,5.2-17.5,8.6c0,0.5,0.2,0.9,0.4,1.2c0.8,3.1,0.3,6.7-1.4,10.7s-4,7.6-6.9,10.7c-6,6.2-14.3,10.3-25,12.1    c-8.2,1.6-12.5,0.6-12.8-2.8c0-0.3,0-0.6,0.2-0.8c0.3-3.7,1.3-7.1,3-10.2s3.8-5.8,6.4-8.1c2.6-2.3,4.9-4.1,6.7-5.4    c1.8-1.3,4.2-2.7,7.1-4.3c2.9-1.6,4.5-2.5,4.6-2.7c0.8-0.4,1.7-0.9,2.6-1.5c-4-1.1-8.7-2-14.3-2.5c-1,0.1-2.4,0.1-4.3-0.1    c-8.3-0.6-14.4-1-18.4-1.3c-4-0.3-8.3-0.9-12.7-1.8s-7.7-2.1-9.9-3.6c-1.4-0.9-2.5-2.4-3.2-4.6c-0.7-2.2-1-4.3-0.8-6.3    c0.6-4.9,2.1-8.6,4.8-11c7.4-7.2,12.8-10,16.3-8.3c3,1.7,2.7,5.7-0.9,11.9c-1.2,1.8-2.5,3.6-4,5.4    C806.7,562.3,806.3,562.9,805.8,563.6z M837.8,608.9c-0.8,0.7-1.4,1.5-1.9,2.2c-0.5,0.7-1,1.3-1.3,1.9c-0.4,0.5-0.7,1-1,1.5    s-0.6,0.8-0.8,1.2s-0.4,0.6-0.6,0.8c-0.2,0.2-0.2,0.4-0.2,0.5l-0.2,0.3c0.5-0.4,2.6-1.3,6.3-2.8s6.4-3,8.1-4.5    c8.9-7.5,13.7-14,14.5-19.4C851.5,596,843.9,602.1,837.8,608.9z" fill="rgb(144,52,1)"></path>
</g></svg>