<?xml version="1.0" encoding="utf-8"?>
<!-- Generator: Adobe Illustrator 25.0.0, SVG Export Plug-In . SVG Version: 6.00 Build 0)  -->
<svg xmlns="http://www.w3.org/2000/svg" xmlns:xlink="http://www.w3.org/1999/xlink" x="0px" y="0px" viewBox="0 0 359.7 229.4" style="enable-background:new 0 0 359.7 229.4;" xml:space="preserve">
<g>
	<g>
		<path style="fill:#903401;" d="M84.2,49.7C72.5,53.8,61.4,59,50.4,64.3c-4.9,2.3-9.7,4.7-14.5,7.2c-0.9,0.4-1.3,1-1.6,1.9     c-2,7.8-4.2,15.6-6.2,23.3c-1.5,5.4-2.8,11-3.9,16.5c-0.1,0.4-0.2,0.9-0.1,1.3l0.1,0.6c-0.1,1.7-0.3,3.3-0.9,4.9     c-0.1,0.4-0.4,0.6-0.7,0.7c-0.3,0.1-0.5,0.1-0.8,0c-0.4-0.1-0.6-0.4-0.7-0.8l-0.1-0.4c0-0.7,0.1-1.4,0.2-2.3     c0.4-3.1,1.1-6.2,1.8-9.2c1.4-5.2,2.6-10.5,4.1-15.8c1.6-5.8,3.1-11.5,4.7-17.3c0.1-0.3,0.2-0.8,0.2-1.2c-0.1-0.1-0.3,0-0.4,0     c-0.2,0-0.3,0.1-0.5,0.2c-7.5,4-15,8-22.2,12.6c-1.7,1.1-3.4,2.2-5.1,3.4c-0.3,0.2-0.4,0.4-0.3,0.7c0,0.1,0,0.2,0.2,0.4     c0,0.2,0.2,0.3,0.2,0.4C4,91.8,3.8,92,3.5,92.1c-0.1,0-0.2-0.1-0.4,0l-1.4,0.3c-0.5,0.1-1.1,0.2-1.4-0.4c0-0.2-0.2-0.5-0.3-0.7     c0.1-0.2,0.1-0.6,0.4-1c0.3-0.5,0.7-0.9,1.2-1.3c1.9-1.8,4.1-3.2,6.5-4.7c5.8-3.7,12-6.8,18.1-10c1.8-0.9,3.6-1.9,5.6-2.8     c0.9-0.4,1.4-1,1.7-2c0.9-3.5,1.9-7,2.9-10.4c3.5-12.5,7.2-25,11.8-37c1.1-2.8,2.2-5.5,3.5-8.2c0.3-0.6,0.5-1.1,0.9-1.6     c0.1-0.2,0.3-0.3,0.5-0.3c0.3-0.1,0.6,0,1,0.2c0.5,0.3,0.8,0.6,0.9,1c0.1,0.3,0.1,0.7,0,1.1c-0.4,1.4-1,2.8-1.6,4.1     c-1.7,4.1-3.5,8-5.5,12c-0.8,1.6-1.5,3.4-2,5.2c-3.5,10.3-6.6,20.8-9.5,31.3c-0.3,0.8-0.7,1.6-0.7,2.6c0.6-0.2,1-0.4,1.5-0.7     c8-4.1,16.4-8.1,24.9-11.9c4.5-2,9.2-4,13.8-5.8c3.7-1.4,7.3-2.8,11.1-3.8c1-0.2,1.7-0.8,2-1.8c3.3-9.4,7.1-18.6,11.1-27.7     c1.9-4.2,3.5-8.5,5.6-12.5c0.9-1.5,1.6-3,2.4-4.5c0.3-0.5,0.5-0.7,0.8-0.8c0.2,0,0.4,0,0.6,0.2c0.6,0.4,0.9,0.6,0.9,1     c0.1,0.3,0,0.6-0.2,1c-1.1,2-2,3.9-3,6c-5.9,12.1-11.2,24.3-15.9,37c-0.1,0.3-0.4,0.6-0.3,0.9v0.2c0.1,0.2,0.3,0.1,0.5,0.1     l0.5-0.1c0.2,0,0.3-0.1,0.4,0c0.4-0.1,0.7,0,0.8,0.4v0.1c0.1,0.4-0.2,0.6-0.5,0.7L90.8,48c-0.5,0.1-0.9,0.5-1.1,1.1     c-1.6,4.2-3,8.6-4.4,12.9c-3.6,11.4-7.2,23.2-9.9,35.2c-0.1,0.5-0.2,1.2-0.3,1.7c-0.1,0.3-0.2,0.6-0.1,0.7s0.2,0.4,0.5,0.5     c0.1,0.1,0.2,0.1,0.3,0.2c0,0.2,0,0.4-0.1,0.6c-0.5,1.3-1,2.8-1.6,4.1c-0.2,0.5-0.4,0.7-0.7,0.8c-0.1,0-0.2,0-0.4,0     c-0.4-0.1-0.7-0.3-0.8-0.6c0-0.2-0.1-0.4,0-0.6c0.1-1.7,0.4-3.2,0.7-4.9c1.3-7.7,3.3-15.3,5.5-22.6c2.8-9.3,5.7-18.7,9.1-27.9     c0.1-0.1,0.1-0.3,0.1-0.6C86.4,49,85.2,49.3,84.2,49.7z" />
		<path style="fill:#903401;" d="M107.3,59.5c-1.7,1.9-3.4,3.9-5.3,5.5c-0.7,0.6-1.4,1.1-2.1,1.5c-0.3,0.2-0.6,0.2-0.8,0.3     c-0.6,0.1-1,0.1-1.5-0.3c-0.4-0.3-0.7-0.8-0.8-1.1c-0.1-0.4-0.1-0.8,0.1-1.3c0.3-0.8,0.8-1.5,1.2-2.1c1.4-2,3.2-3.5,5.3-4.6     c0.7-0.4,1.5-0.7,2.2-0.9c0.6-0.1,1.2-0.2,1.8-0.1c0.2,0.1,0.3,0,0.4,0c0.2,0,0.4-0.2,0.5-0.3c1.1-1.5,2.3-2.9,3.1-4.6     c0.5-0.9,0.9-1.8,1.5-2.7c0.1-0.2,0.3-0.6,0.6-0.6l0.2,0.1c0.4,0,0.6,0.4,0.8,0.7l0.1,0.4c0.1,0.3,0.1,0.7-0.1,1     c-0.4,0.6-0.7,1.3-1.1,2c-1.2,2.5-2.2,5.2-2.6,8c-0.2,1.2-0.4,2.4-0.2,3.6c0.2,1,0.5,1.1,1.4,0.9s1.6-0.6,2.3-1     c4.1-2.6,7.8-5.6,11-9.2c0.3-0.4,0.7-0.8,1.1-1.3c0,0,0.1-0.1,0.2-0.1s0.2,0.1,0.3,0.1c0.1,0.1,0.2,0.1,0.3,0.2     c0,0.1-0.1,0.2-0.1,0.3l-0.3,0.5c-2.5,3-5.2,5.6-8.3,8c-1.3,1-2.6,2-4.1,2.9c-0.4,0.2-0.7,0.4-1.1,0.7c-0.3,0.2-0.6,0.2-0.8,0.3     c-1.4,0.3-2.4-0.4-3.1-1.5c-0.3-0.4-0.4-0.9-0.5-1.4c-0.2-0.7-0.1-1.5-0.1-2.2c0-0.4,0-0.8-0.1-1.2c-0.1-0.5-0.3-0.8-0.7-1.3     C107.8,58.7,107.6,59.2,107.3,59.5z M106,58.9c-2.8,1.1-6.2,4.1-6.8,6.1C101.9,63.4,103.9,61.2,106,58.9z" />
		<path style="fill:#903401;" d="M150.7,50.9c1.9-0.7,3.7-1.7,5.4-2.7c1.1-0.7,2.1-1.3,3-2.2c0.1-0.1,0.2-0.3,0.3-0.4     c0.1,0,0.3-0.2,0.4-0.2c0.2,0,0.4,0,0.6,0.2c0.1,0.1,0.1,0.2,0.2,0.3c0,0.2-0.1,0.4-0.3,0.6c-0.6,0.8-1.4,1.4-2.3,2     c-2.5,1.8-5.4,3.1-8.4,4.3c-2.8,1.1-5.6,2.1-8.5,3c-0.4,0.2-0.7,0.5-1,0.8c-1.7,1.8-3.8,3.1-6.1,4c-0.7,0.4-1.6,0.6-2.4,0.8     c-0.7,0.2-1.4,0.3-2.1,0.4l-0.4,0.1c-0.3,0.1-0.6,0.2-0.8,0.6c-1.8,3.2-3.4,6.4-5,9.7c-3,6.3-5.8,12.8-8.2,19.4     c-1.1,3-2.2,6-3.3,9c-0.5,1.4-1,2.8-1.5,4.1c-0.3,0.6-0.5,0.8-0.8,0.9c-0.1,0-0.3,0.1-0.4,0c-0.4,0-0.6-0.2-0.7-0.4     c0-0.1,0-0.2,0-0.3c0.1-0.2,0.1-0.4,0.2-0.6c3.5-10.3,7-20.6,10.6-30.9c3.3-9.6,6.8-19.1,10.8-28.5c0.1-0.3,0.3-0.7,0.4-0.9     c0.2-0.5,0.4-0.6,0.6-0.6c0.2,0,0.4,0,0.6,0.1c0.5,0.1,0.9,0.5,1,0.9c0,0.1,0,0.3,0,0.4c0,0.3-0.3,0.7-0.4,1.1l-3.2,7.5     c-0.4,1.2-1,2.5-1.4,3.6c-0.1,0.2-0.3,0.5-0.2,0.9c0.4,0,0.8,0,1,0c0.6-0.1,0.8-0.4,1.3-1.1c1.9-3.3,4-6.5,6.5-9.5     c0.9-1,1.9-2.1,3-2.8c0.3-0.2,0.6-0.4,1-0.6c0.3-0.2,0.6-0.2,0.8-0.3c1.7-0.4,3.4,0.5,3.8,2.4c0.1,0.3,0.1,0.5,0.1,0.8     c0.1,1.9-0.6,3.6-1.5,5.4c-0.3,0.7-0.8,1.4-1.4,2.4C145.2,53,147.9,52,150.7,50.9z M124.3,66.6c0.8-1.5,1.5-3.1,2.3-4.6     c0.1-0.2,0.3-0.5,0.3-0.7c0-0.1-0.1-0.2-0.4-0.2c-0.1-0.1-0.2-0.1-0.3,0c-0.2,0-0.3,0.3-0.4,0.5c-0.2,0.8-0.5,1.4-0.8,2.1     c-0.5,1.3-1,2.7-1.5,4.1C123.9,67.5,124,67.1,124.3,66.6z M129.9,59.9l1-0.2c1.7-0.4,3.2-1.2,4.7-2.2l-4.6,1.1     C130.3,58.7,130,59.3,129.9,59.9z M134.2,56.4c1.1-0.2,2.2-0.6,3.2-1c0.6-0.1,0.9-0.4,1.3-0.8c1.3-1.5,2.2-3.2,3-5     c0.5-1.1,1-2.4,1.1-3.7c0-0.3,0-0.5-0.1-0.7c-0.1-0.3-0.2-0.5-0.7-0.3c-0.1,0-0.3,0.2-0.5,0.2c-0.5,0.2-0.9,0.5-1.3,0.8     c-0.8,0.6-1.5,1.3-2.2,1.9c-1.6,1.7-3,3.6-4.4,5.4c-0.7,1.2-1.5,2.3-2,3.6C132.6,56.6,133.4,56.5,134.2,56.4z" />
		<path style="fill:#903401;" d="M183.3,43.2c1.9-0.7,3.7-1.7,5.4-2.7c1.1-0.7,2.1-1.3,3-2.2c0.1-0.1,0.2-0.3,0.3-0.4     c0.1,0,0.3-0.2,0.4-0.2c0.2,0,0.4,0,0.6,0.2c0.1,0.1,0.1,0.2,0.2,0.3c0,0.2-0.1,0.4-0.3,0.6c-0.6,0.8-1.4,1.4-2.3,2     c-2.5,1.8-5.4,3.1-8.4,4.3c-2.8,1.1-5.6,2.1-8.5,3c-0.4,0.2-0.7,0.5-1,0.8c-1.7,1.8-3.8,3.1-6.1,4c-0.7,0.4-1.6,0.6-2.4,0.8     c-0.7,0.2-1.4,0.3-2.1,0.4l-0.4,0.1c-0.3,0.1-0.6,0.2-0.8,0.6c-1.8,3.2-3.4,6.4-5,9.7c-3,6.3-5.8,12.8-8.2,19.4     c-1.1,3-2.2,6-3.3,9c-0.5,1.4-1,2.8-1.5,4.1c-0.3,0.6-0.5,0.8-0.8,0.9c-0.1,0-0.3,0.1-0.4,0c-0.4,0-0.6-0.2-0.7-0.4     c0-0.1,0-0.2,0-0.3c0.1-0.2,0.1-0.4,0.2-0.6c3.5-10.3,7-20.6,10.6-30.9c3.3-9.6,6.8-19.1,10.8-28.5c0.1-0.3,0.3-0.7,0.4-0.9     c0.2-0.5,0.4-0.6,0.6-0.6c0.2,0,0.4,0,0.6,0.1c0.5,0.1,0.9,0.5,1,0.9c0,0.1,0,0.3,0,0.4c0,0.3-0.3,0.7-0.4,1.1l-3.2,7.5     c-0.4,1.2-1,2.5-1.4,3.6c-0.1,0.2-0.3,0.5-0.2,0.9c0.4,0,0.8,0,1,0c0.6-0.1,0.8-0.4,1.3-1.1c1.9-3.3,4-6.5,6.5-9.5     c0.9-1,1.9-2.1,3-2.8c0.3-0.2,0.6-0.4,1-0.6c0.3-0.2,0.6-0.2,0.8-0.3c1.7-0.4,3.4,0.5,3.8,2.4c0.1,0.3,0.1,0.5,0.1,0.8     c0.1,1.9-0.6,3.6-1.5,5.4c-0.3,0.7-0.8,1.4-1.4,2.4C177.8,45.4,180.5,44.4,183.3,43.2z M156.9,59c0.8-1.5,1.5-3.1,2.3-4.6     c0.1-0.2,0.3-0.5,0.3-0.7c0-0.1-0.1-0.2-0.4-0.2c-0.1-0.1-0.2-0.1-0.3,0c-0.2,0-0.3,0.3-0.4,0.5c-0.2,0.8-0.5,1.4-0.8,2.1     c-0.5,1.3-1,2.7-1.5,4.1C156.5,59.9,156.6,59.5,156.9,59z M162.5,52.3l1-0.2c1.7-0.4,3.2-1.2,4.7-2.2l-4.6,1.1     C162.9,51.1,162.6,51.7,162.5,52.3z M166.8,48.7c1.1-0.2,2.2-0.6,3.2-1c0.6-0.1,0.9-0.4,1.3-0.8c1.3-1.5,2.2-3.2,3-5     c0.5-1.1,1-2.4,1.1-3.7c0-0.3,0-0.5-0.1-0.7c-0.1-0.3-0.2-0.5-0.7-0.3c-0.1,0-0.3,0.2-0.5,0.2c-0.5,0.2-0.9,0.5-1.3,0.8     c-0.8,0.6-1.5,1.3-2.2,1.9c-1.6,1.7-3,3.6-4.3,5.4c-0.7,1.2-1.5,2.3-2,3.6C165.2,49,166.1,48.9,166.8,48.7z" />
		<path style="fill:#903401;" d="M208.7,28.3c-0.9,1.1-1.8,2-2.7,3.2c-2.4,2.9-5,5.8-7.6,8.4c-0.9,0.9-1.8,1.6-2.8,2.3     c-0.5,0.2-0.8,0.4-1.2,0.5c-1.4,0.3-2.3-0.4-2.7-2v-0.2c-0.2-0.9-0.1-1.8,0.1-2.7c0.5-2.3,1.5-4.4,2.8-6.4     c0.1-0.1,0.1-0.2,0.2-0.3c0.3-0.4,0.6-0.6,0.9-0.7c0.3-0.1,0.5,0,0.7,0.1c0.4,0.2,0.7,0.7,0.8,1.1c0,0.2,0,0.5,0,0.7     c-0.4,0.9-0.7,1.9-1.6,2.4c-0.1,0-0.3,0.2-0.3,0.3c-0.6,1.6-1.4,3-1.7,4.7c-0.1,0.2-0.1,0.3-0.1,0.5c-0.1,0.2,0,0.4,0,0.6     c0,0.2,0.2,0.3,0.6,0.2l0.3-0.1c1.1-0.6,1.9-1.3,2.8-2.1c2.8-2.8,5.4-5.8,7.7-8.8c1.1-1.4,2.1-2.8,3.2-4.1c0.4-0.5,0.8-1,1.3-1.3     c0.3-0.2,0.5-0.3,0.7-0.4c0.5-0.1,0.9,0.1,1.3,0.5c0.4,0.4,0.7,1,0.9,1.6c0.2,0.9,0.3,1.8,0.2,2.7c-0.3,2.8-0.8,5.7-1.6,8.5     l-0.5,1.9c-0.1,0.1-0.1,0.2-0.1,0.4c0,0,0,0.1,0.1,0.1c0.1,0.1,0.2,0.1,0.3,0l0.3-0.1c0.6-0.4,1.2-0.6,1.8-0.9     c2.4-1.6,4.9-2.9,7.3-4.5c1.7-1.2,3.2-2.5,4.5-4.1c0.1,0,0.2-0.1,0.2-0.3c0.1-0.1,0.2-0.1,0.3-0.2c0.1,0,0.2,0,0.3,0.1     s0.1,0.2,0.2,0.3c0,0.1,0.1,0.3,0,0.4c-0.2,0.3-0.5,0.5-0.6,0.9c-1.1,1.5-2.6,2.5-4.1,3.6c-3.4,2.2-6.7,4.3-10.4,6.2     c-0.7,0.4-1.2,0.9-1.4,1.8c-0.5,1.7-1.1,3.2-1.7,4.8c-1.5,3.9-3.4,7.8-5.3,11.5c-2.4,4.5-5.1,8.9-7.8,13.3c-2,3.1-4.2,6.1-6.5,9     c-1.7,2-3.5,4-5.5,5.7c-1.6,1.4-3.4,2.4-5.4,2.9c-0.9,0.2-1.7,0.3-2.6,0.3c-3.8,0-6.6-2.2-7.9-5.7c-0.3-0.7-0.5-1.3-0.7-2     c-0.7-3.2-0.3-6.5,0.6-9.7c1.6-5.4,4.4-10,8.5-14c2.2-2.1,4.7-3.8,7.4-5.4c3.5-2,7.2-3.5,11-5.1c2.3-1,4.6-2,6.9-3.1     c2.1-1,4.3-2.1,6.4-3.2c0.6-0.2,0.9-0.6,1-1.1c1.2-4,2.3-8,2.9-12.1c0.1-0.8,0.1-1.6,0.2-2.6C209.7,27.2,209.2,27.7,208.7,28.3z      M206.2,44c-0.3,0.1-0.5,0.3-0.7,0.5c-0.5,0.2-0.9,0.5-1.3,0.7c-4.8,2.6-9.8,4.7-14.7,7c-4.3,2-8.6,4.2-12.2,7.5     c-1.3,1.2-2.7,2.6-3.8,4.1c-2.3,2.8-3.9,5.9-5.1,9.3c-1.1,3.5-1.5,7.1-0.7,10.6l0.2,0.9c0.8,2.5,2.2,4.4,4.9,5.1     c1.1,0.2,2,0.2,2.9-0.1c1-0.2,1.9-0.6,2.8-1.2c1.4-0.8,2.7-1.9,4-3.1c2.3-2.3,4.4-4.9,6.3-7.5c3.1-4.2,5.8-8.7,8.4-13.3     c1.7-3.1,3.4-6.1,4.9-9.3c1.7-3.3,3-6.8,4.3-10.3c0.1-0.2,0.2-0.5,0.1-0.8C206.4,44.1,206.2,44,206.2,44z" />
	</g>
	<g>
		<path style="fill:#903401;" d="M135.1,173.8c-2.4,2.5-4.4,5.2-6.5,8c-4.9,6.6-9.5,13.4-14,20.3c-2.1,3.1-4.2,6.2-6.4,9.2     c-0.9,1.1-1.7,2.2-2.7,3.2c-0.4,0.4-0.9,0.8-1.5,1c-0.2,0-0.3,0-0.5,0c-1.1,0-2-0.7-2.2-1.7c0-0.2,0-0.4,0-0.6     c-0.1-1.2,0-2.3,0.1-3.6c0.6-4.3,1.7-8.7,2.9-12.9c3.1-11.1,7.1-22,11.9-32.6c1.9-4.2,3.7-8.4,6.1-12.4c0.5-0.6,0.8-1.3,1.3-1.9     c0.2-0.4,0.5-0.7,0.9-1c0.3-0.4,0.6-0.5,0.9-0.6s0.6,0,1,0.2c0.6,0.3,1,0.7,1.1,1.3c0,0.2,0.1,0.4,0,0.6c-0.2,0.6-0.3,1.4-0.4,2     c-0.6,1.9-1.2,3.7-1.8,5.7c-0.4,1.2-0.7,2.5-0.9,3.9c0,0.3,0,0.6-0.3,0.7H124c-0.4,0-0.6-0.3-0.7-0.7c-0.1-0.3,0-0.6,0-0.8     c0.1-2,0.6-3.7,1-5.4c0.3-1.1,0.5-2.1,0.7-3c-1,1-1.6,2.4-2.2,3.7c-5.8,11.1-10.5,22.8-14.4,34.8c-1.5,4.7-3,9.6-3.9,14.5     c-0.5,2.4-0.8,4.7-0.9,7l0.2,0.7c0.1,0,0.1,0.1,0.2,0.1c0.2,0,0.2-0.3,0.4-0.4c1.7-1.9,3.1-4,4.6-6.1c5-7.2,9.7-14.4,14.8-21.5     c2.9-4.1,5.8-8.1,9-11.9c0.9-1,1.8-2,2.8-2.8c0.3-0.3,0.7-0.5,1-0.5c1.1-0.2,2.1,0.3,2.7,1.3l0.3,1.2c0,1.9-0.3,3.9-0.6,5.8     c-0.9,5.6-2.1,11.2-2.8,16.9c-0.8,5.8-1.3,11.5-1.1,17.3c0.1,2.2,0.3,4.4,0.8,6.4l0.2,1c0.5,1.9,1.2,3.8,2.5,5.4     c1.7,2.1,3.5,2.7,6.2,2l0.8-0.2c3-0.9,5.5-2.6,7.9-4.5c4.6-3.6,8.6-7.9,12.1-12.4c8.7-11.1,15.3-23.5,19.9-36.9     c2.3-6.4,4-13,4.9-19.7c0.7-4.5,0.9-9.1,0.5-13.7c-0.1-1.8-0.4-3.6-0.9-5.4c-0.4-1.7-0.9-3.6-1.8-5.2c-1.5-3-4-4.9-7.4-5.2     c-2.3-0.3-4.7-0.2-6.9,0.3c-0.3,0.1-0.6,0.1-0.9,0.3c-0.4,0.2-0.4,0.3-0.4,0.4s0.1,0.3,0.3,0.4c0.2,0.3,0.4,0.4,0.7,0.7     c0.1,0.1,0.1,0.2,0.2,0.3c0,0.1,0,0.2,0,0.3c-0.1,0-0.2,0.1-0.3,0.2c-0.1,0-0.1-0.1-0.2-0.1c-1-0.4-1.9-1-2.2-2l-0.1-0.3     c-0.1-0.4,0-0.7,0.5-1c0.3-0.3,0.7-0.5,1.1-0.6c0.5-0.1,0.8-0.3,1.3-0.4c2.1-0.5,4.4-0.5,6.6-0.3c3.5,0.4,6,2.3,8.2,4.8     c1.5,1.9,2.5,4,3,6.3l0.3,1.4c1.1,4.5,1.3,9.2,1,13.8c-0.4,7.3-1.9,14.3-4,21.2c-2.1,7-4.8,13.9-8.2,20.5     c-5.1,10.2-11.3,19.7-19.2,28c-2.9,2.9-5.9,5.7-9.3,7.8c-1.9,1.2-3.7,2.1-5.8,2.7c-1.2,0.3-2.3,0.3-3.4,0.3     c-3.6-0.3-6.1-2.1-7.6-5.4c-0.7-1.3-1.1-2.6-1.4-4c-0.2-0.8-0.4-1.6-0.5-2.4c-1-6.7-0.5-13.4,0.2-20.1c0.7-6.5,2-13,3-19.5     c0.3-1.4,0.5-2.9,0.6-4.3c0.1-0.2,0.1-0.5,0-0.8l-0.1-0.3C136,172.8,135.6,173.3,135.1,173.8z" />
		<path style="fill:#903401;" d="M203.9,182.8c5.9-3.3,11.3-7.1,16.4-11.5c0.7-0.7,1.3-1.3,1.9-2c0.2-0.1,0.4-0.4,0.6-0.5h0.2     c0.1,0,0.2,0,0.3,0c0.1,0.1,0.1,0.2,0.2,0.3c0,0.1-0.1,0.2-0.1,0.3c-0.1,0.2-0.3,0.4-0.4,0.6c-1.6,1.9-3.5,3.5-5.5,5     c-4.1,3.3-8.4,6.4-13,9c-0.8,0.4-1.7,0.9-2.7,1.1c-0.3,0.1-0.6,0-0.9,0.1c-2.3,0.1-4-1.1-4.5-3.1c-0.1-0.3-0.2-0.7-0.1-1     c0-1.7,0.3-3.3,1-4.8c1.3-3.4,3.3-6.3,5.8-8.9c0.6-0.8,1.4-1.4,2.3-1.9c0.2-0.1,0.5-0.2,0.7-0.3c1.2-0.3,2.4,0.5,2.6,1.6     c0,0.2,0,0.4,0,0.6c0,0.8-0.2,1.6-0.6,2.2c-1.6,2.6-3.9,4.6-6.6,6c-0.4,0.2-0.8,0.3-1.1,0.4c-0.5,0.1-0.8,0.3-1,0.9     c-0.5,1.2-0.9,2.6-1,4c0,0.3,0,0.7,0,1l0.1,0.4c0.4,1.6,1.1,2,2.9,1.6C202.2,183.6,203.1,183.2,203.9,182.8z M201.4,173.5     c2.1-1.5,3.8-3.1,5-5.6C204.9,168.5,201.8,172,201.4,173.5z" />
		<path style="fill:#903401;" d="M232.2,163.4c0.8-0.2,1.2-1,1.8-1.6c2.1-2.7,4.1-5.6,6.1-8.4c0.9-1.1,1.4-2.5,2-3.7     c2.7-5.9,5.5-11.8,8.8-17.5c1.9-3.3,3.9-6.6,6.5-9.4c0.4-0.5,0.8-0.9,1.2-1.2c0.2,0,0.3-0.2,0.5-0.2c0.4-0.1,0.7,0.1,1.1,0.6     c0.1,0.2,0.2,0.5,0.3,0.7c0.1,0.5,0,1-0.3,1.5c-0.5,1.1-1.2,2.4-1.8,3.5c-3.2,5.4-6.6,10.8-10,16.1c-1,1.6-2,3.1-3.1,4.6     c-0.7,1-1.2,2-1.7,3.2c-1.8,4.1-3.6,8.4-5.3,12.5c-0.2,0.5-0.3,1-0.2,1.5l0.1,0.3c0.2,0.9-0.2,1.8-1,2.3c-0.6,0.4-1,1-1.2,1.7     c-1.9,4.8-3.9,9.7-5.6,14.6c-0.2,0.6-0.5,1.2-0.3,2c0.1,0.4-0.3,0.9-0.7,1h-0.2c-0.3-0.1-0.7-0.3-0.8-0.6c0-0.1,0.1-0.2,0-0.3     c0-0.4,0.1-0.8,0.2-1.2c1.2-4.2,2.7-8.2,4.2-12.2c0.8-2.2,1.6-4.5,2.5-6.6c0-0.3,0.2-0.6,0.2-0.8c0.1-0.1,0.1-0.2,0.1-0.2     c0-0.2-0.3-0.2-0.4-0.3c-0.4,0-0.9,0-1.3,0.1c-0.5,0.1-1,0.3-1.4,0.9c-2,2.6-4.2,5.1-6.6,7.4c-1.1,1-2.2,1.8-3.5,2.6     c-0.2,0-0.4,0.2-0.6,0.2c-0.5,0.1-1-0.1-1.6-0.4c-0.4-0.3-0.7-0.7-0.8-1s0-0.5,0-0.8c0.2-0.6,0.4-1.2,0.8-1.7     c1.6-2.6,3.8-4.7,6.3-6.5c1.8-1.3,3.5-1.8,5.1-2.4C231.8,163.4,232,163.4,232.2,163.4z M229.5,166.8c-2.2,0.9-6.8,5.2-7.4,7     C223.5,173.3,229,168.2,229.5,166.8z M237.2,159.7c-0.7,1-1.4,2-2.2,3c-0.1,0.2-0.2,0.4-0.2,0.5v0.1c0.3,0.3,0.7,0.3,1.1,0.4     l0.1,0.1c0.2,0,0.2-0.3,0.3-0.4c0.5-1.4,1.1-2.8,1.7-4.4C237.5,159.1,237.4,159.4,237.2,159.7z M249.9,138.3     c2.4-3.6,4.7-7.2,6.8-11.2C254.1,130.6,251.9,134.5,249.9,138.3z" />
		<path style="fill:#903401;" d="M257.8,157.4c0.8-0.2,1.2-1,1.8-1.6c2.1-2.7,4.1-5.6,6.1-8.4c0.9-1.1,1.4-2.5,2-3.7     c2.7-5.9,5.5-11.8,8.8-17.5c1.9-3.3,3.9-6.6,6.5-9.4c0.4-0.5,0.8-0.9,1.2-1.2c0.2,0,0.3-0.2,0.5-0.2c0.4-0.1,0.7,0.1,1.1,0.6     c0.1,0.2,0.2,0.5,0.3,0.7c0.1,0.5,0,1-0.3,1.5c-0.5,1.1-1.2,2.4-1.8,3.5c-3.2,5.4-6.6,10.8-10,16.1c-1,1.6-2,3.1-3.1,4.6     c-0.7,1-1.2,2-1.7,3.2c-1.8,4.1-3.6,8.4-5.4,12.5c-0.2,0.5-0.3,1-0.2,1.5l0.1,0.3c0.2,0.9-0.2,1.8-1,2.3c-0.6,0.4-1,1-1.2,1.7     c-1.9,4.8-3.9,9.7-5.6,14.6c-0.2,0.6-0.5,1.2-0.3,2c0.1,0.4-0.3,0.9-0.7,1h-0.2c-0.3-0.1-0.7-0.3-0.8-0.6c0-0.1,0.1-0.2,0-0.3     c0-0.4,0.1-0.8,0.2-1.2c1.2-4.2,2.7-8.2,4.2-12.2c0.8-2.2,1.6-4.5,2.5-6.6c0-0.3,0.2-0.6,0.2-0.8c0.1-0.1,0.1-0.2,0.1-0.2     c0-0.2-0.3-0.2-0.4-0.3c-0.4,0-0.9,0-1.3,0.1c-0.5,0.1-1,0.3-1.4,0.9c-2,2.6-4.2,5.1-6.6,7.4c-1.1,1-2.2,1.8-3.5,2.5     c-0.2,0-0.4,0.2-0.6,0.2c-0.5,0.1-1-0.1-1.6-0.4c-0.4-0.3-0.7-0.7-0.8-1s0-0.5,0-0.8c0.2-0.6,0.4-1.2,0.8-1.7     c1.6-2.6,3.8-4.7,6.3-6.5c1.8-1.3,3.5-1.8,5.1-2.4C257.3,157.4,257.6,157.5,257.8,157.4z M255.1,160.8c-2.2,0.9-6.8,5.2-7.4,7     C249,167.3,254.5,162.3,255.1,160.8z M262.7,153.7c-0.7,1-1.4,2-2.2,3c-0.1,0.2-0.2,0.4-0.2,0.5v0.1c0.3,0.3,0.7,0.3,1.1,0.4     l0.1,0.1c0.2,0,0.2-0.3,0.3-0.4c0.5-1.4,1.1-2.8,1.7-4.4C263.1,153.1,263,153.5,262.7,153.7z M275.5,132.4     c2.4-3.6,4.7-7.2,6.8-11.2C279.6,124.7,277.4,128.5,275.5,132.4z" />
		<path style="fill:#903401;" d="M271.8,165v-0.2c-0.2-1.3,0-2.7,0.3-3.9c0.4-1.3,0.9-2.6,1.6-3.7c1.4-2.8,3.1-5.3,5-7.7     c0.2-0.3,0.4-0.4,0.7-0.6c0.1-0.1,0.2-0.1,0.3-0.2c0.1,0,0.3,0,0.4,0.1c0.4,0.2,0.6,0.6,0.8,1c0.1,0.4,0.1,0.8-0.1,1.2     s-0.5,0.7-0.9,1.1c-2.6,2.9-4.4,6.2-5.8,9.8c-0.4,1.1-0.7,2.2-0.4,3.4l0.1,0.4c0.2,0.8,0.4,0.8,1.3,0.9c0.2,0,0.5,0,0.7-0.1     c0.7-0.2,1.3-0.5,1.9-0.9c1.8-0.8,3.5-1.9,5.1-3c3.4-2.2,6.7-4.5,9.8-7.1c1.4-1.1,2.6-2.3,3.7-3.6c0.3-0.2,0.4-0.5,0.6-0.5     s0.3-0.1,0.4,0.1c0.1,0.1,0.1,0.2,0.2,0.4c0,0.2-0.2,0.6-0.4,0.7c-1,1.3-2.2,2.4-3.4,3.5c-4.3,3.7-9,7-13.8,10.1     c-1.2,0.7-2.3,1.4-3.7,1.7C273.7,168.4,272.2,166.7,271.8,165z M290.8,135.6l-2.1,2.6c-0.1,0.1-0.1,0.2-0.3,0.3     c-1.3,0.5-1.7,1.7-2.4,2.7c-0.1,0.2-0.2,0.5-0.1,0.7l0.1,0.3c0,0.2,0.2,0.3,0.2,0.5c0.1,0.5-0.2,0.8-0.9,1.1h-0.2     c-0.6,0.1-1.1-0.2-1.3-0.8c-0.1-0.5-0.1-0.9,0.1-1.4c0.2-0.7,0.6-1.4,1-2c0.9-1.8,2-3.6,3.3-5.2c0.4-0.4,0.7-0.9,1.2-1.2     c0.2-0.3,0.5-0.3,0.7-0.4c0.5-0.1,0.8,0.1,1.1,0.8c0.1,0.2,0.2,0.4,0.2,0.5C291.3,134.8,291.1,135.2,290.8,135.6z" />
		<path style="fill:#903401;" d="M298.2,154.9c1.6-3.1,3.3-6.2,5.2-9c0.7-0.9,1.4-1.9,2.3-2.6c0.4-0.4,0.8-0.6,1.3-0.7     c1.1-0.2,2.2,0.4,2.7,1.8c0.2,1,0.4,2,0.5,2.9l0.3,1.3c0.1,0.5,0.2,0.9,0.4,1.3c0.8,1.7,1.5,2.1,3.3,1.8l1.5-0.4     c1.7-0.4,3.5-0.9,5.1-1.7c2.6-1.3,5.1-2.8,7-5.1l0.2-0.4h0.2c0.2,0,0.4,0,0.5,0.1v0.2c0,0.1,0,0.3-0.1,0.4c-0.4,0.7-1,1.4-1.7,1.9     c-1.4,1.4-3,2.4-4.8,3.3c-2,1-4.1,1.9-6.2,2.4l-0.8,0.2c-0.7,0.2-1.4,0.2-2.1,0.3c-2.2-0.1-3.9-1.3-4.7-3.5l-0.3-1.2     c-0.2-1-0.5-1.9-0.6-2.8c0-0.2,0-0.4,0-0.5s0-0.1-0.1-0.2h-0.2c-0.3,0.1-0.4,0.3-0.7,0.6c-1.5,1.6-2.7,3.3-3.9,5.1     c-2.4,3.6-4.5,7.4-6.6,11.2c-0.4,0.6-0.7,1.3-1.2,1.9c-0.1,0.2-0.3,0.5-0.6,0.5c-0.2,0-0.3,0-0.5-0.1c-0.4,0-0.7-0.3-0.8-0.6     c0-0.1,0-0.2,0-0.4c0-1,0.2-1.9,0.5-2.8c1.3-5.7,3.5-11.1,6.2-16.3c0.1-0.2,0.3-0.6,0.5-0.8c0.2-0.3,0.4-0.5,0.7-0.6     s0.6,0.1,1,0.3c0.3,0.1,0.5,0.4,0.6,0.7c0,0.2,0,0.5-0.2,0.9c-2,3.9-3.7,8-5.2,12.1c-0.1,0.2-0.3,0.5-0.2,1     C297.4,156.5,297.8,155.7,298.2,154.9z" />
		<path style="fill:#903401;" d="M345.2,134.2c-2,2.3-4.1,4.6-6.2,7c-0.2,0.4-0.5,0.6-0.4,1.1c0.1,0.7-0.2,1.3-0.6,1.8     c-0.2,0.3-0.4,0.5-0.6,0.5s-0.4-0.1-0.9-0.3l-0.2-0.1c-0.2,0-0.3,0.2-0.3,0.3c-1.1,1.1-2.3,2.2-3.3,3.2c-1,0.7-1.9,1.5-2.9,2     c-0.4,0.2-0.6,0.4-0.9,0.4c-0.6,0.1-1.1,0.1-1.6-0.4c-0.5-0.4-0.8-0.8-0.9-1.3s0-0.9,0.1-1.4c0.2-0.6,0.5-1.1,0.9-1.7     c1.8-2.3,3.9-4.1,6.8-5.1c0.3-0.2,0.5-0.2,0.8-0.3c0.6-0.1,1.2-0.1,1.9,0.2c0.2,0.1,0.4,0.1,0.6,0.1s0.5-0.2,0.6-0.4     c2-2.3,3.9-4.7,5.9-7c0.5-0.6,0.9-1.2,1.6-1.7c0.2-0.3,0.5-0.4,0.8-0.5c0.5-0.1,0.9,0.1,1.4,0.7c0.3,0.4,0.5,0.8,0.6,1.3     c0,0.2,0.1,0.5,0.1,0.7c0,1.8-0.4,3.6-0.7,5.4c-0.4,1.8-0.9,3.7-1.4,5.4c-0.1,0.3-0.3,0.6-0.2,0.9v0.2c0.1,0.1,0.3,0,0.4,0     c3.3-1.7,6.7-3.3,9.7-5.4c1-0.6,1.8-1.3,2.4-2.3c0.1-0.1,0.2-0.4,0.4-0.4c0.1,0,0.1,0,0.2,0.1c0.2,0.1,0.4,0.2,0.4,0.3     c0,0.2,0,0.3-0.2,0.6c-0.2,0.5-0.5,0.8-0.8,1.2c-1.1,1.2-2.5,2-3.8,2.9c-2.8,1.7-5.6,3.1-8.5,4.5c-0.6,0.4-1,0.8-1.3,1.5     c-3.3,10-7.7,19.6-13.2,28.7c-3.2,5.1-6.7,10-11.2,14.2c-2.3,2.2-4.7,4-7.6,5.1c-0.8,0.4-1.6,0.7-2.4,0.9s-1.6,0.3-2.4,0.3     c-4.2,0.2-7.4-2-9.1-6.1c-0.3-0.8-0.6-1.7-0.8-2.6c-0.7-2.8-0.6-5.6,0-8.4c1.8-8.4,6.5-14.7,13.7-19.3c4.1-2.6,8.5-4.6,12.9-6.5     c5.8-2.4,11.5-4.6,17.1-7.2c0.8-0.4,1.2-0.9,1.5-1.8c1-3.3,1.9-6.6,2.6-9.9c0.2-0.6,0.3-1.3,0.3-2.1     C345.8,133.6,345.6,133.9,345.2,134.2z M341.8,148.6c-0.3,0.1-0.5,0.2-0.7,0.3c-3.9,1.8-7.6,3.5-11.6,5.1c-4.5,1.9-9,3.7-13.3,6.1     c-4.2,2.3-8,4.9-10.9,8.8c-4.3,5.5-6.8,11.6-5.9,18.7c0.1,0.4,0.1,0.9,0.2,1.3c0.4,1.8,1.2,3.5,2.5,4.9c1.3,1.5,2.9,2.3,4.9,2.2     c0.9,0,1.8-0.2,2.7-0.4c1.4-0.3,2.6-0.8,3.8-1.5c3.4-1.9,6.1-4.6,8.6-7.5c4.3-5.1,7.8-10.7,10.9-16.5c3.5-6.6,6.5-13.4,8.9-20.5     c0.1-0.2,0.2-0.5,0.2-0.6v-0.2C342,148.6,341.9,148.6,341.8,148.6z M328.6,148c2.7-1.5,4.8-3.6,6.8-5.8     C332.9,143,329.3,146,328.6,148z" />
	</g>
</g>
</svg>
