<svg xmlns="http://www.w3.org/2000/svg" x="0px" y="0px" viewBox="0 0 516.7 98.7" style="vertical-align: middle; max-width: 100%; width: 100%;" width="100%"><g>
	<path d="M14.7,76.1V75c0.6-0.8,0.9-1.5,0.9-2.3c0-0.6-0.2-1.2-0.7-1.8l1.6-3.6v-1.8l0.2-1.1c0-0.6-0.4-0.9-1.1-0.9    c-2.6,0-4.1-1.3-4.7-3.8c-1.1-2-1.8-2.9-2.3-2.9v0.2c-0.9,0.2-1.8,0.7-2.7,1.7c-0.9,1-2.5,1.5-4.7,1.5c-0.8,0-1.1-0.3-1.1-0.9v-0.2    c0.1-0.1,0.2-0.5,0.2-1c0-0.5,0.8-1.2,2.5-2.1c1.7-0.9,2.8-1.5,3.4-1.7c0.6-0.2,0.9-0.6,0.9-1l-0.2-1.8c0-1.7,0.5-2.5,1.6-2.5    c0.3,0,0.6,0.1,1,0.2c0.4,0.2,0.8,0.5,1.1,1c0.4,0.5,0.8,0.8,1.2,0.8s1.9-0.8,4.3-2.5c3.8-2,6-2.9,6.8-2.9c0.8,0,1.1,0.8,1.1,2.5    c-0.3,0.5-0.6,1.5-1,3.3c-0.4,1.7-0.6,3-0.6,4c0.8-0.8,1.3-1.1,1.6-1.1c0.8,0,1.1,0.6,1.1,1.8c0,0.6-0.2,1.2-0.6,1.8    c-0.4,0.6-0.8,0.9-1.2,0.9c-1.4,0.8-2.3,3.8-2.9,9c-0.6,4.8-1.1,7.5-1.6,7.9L14.7,76.1z M16,58.9c0.5,0,0.9-0.3,1.2-0.8    c0.4-0.5,0.6-0.9,0.6-1.2l2-8.1c0-0.3-0.1-0.5-0.2-0.7c-1.4,1.4-2.8,2.6-4.3,3.6c-1.5,1.1-2.3,2.3-2.3,3.8l0.9,1.4    C14.9,58.3,15.6,58.9,16,58.9z M34.1,22.1c-0.6,0-1.2-0.1-1.7-0.5c-0.5-0.3-0.8-0.7-0.8-1.1c0-0.9,0.1-1.5,0.2-1.7    c0.1-0.2,6-2.5,17.6-6.9h1.8c-0.6,1.8-1.5,2.9-2.8,3.2c-1.3,0.3-5.5,2.5-12.8,6.5C35.1,22,34.6,22.1,34.1,22.1z M78.4,62.6    c-3.9,0-6.5-1.7-7.7-5l-3.2-4.7c-2.7-4.2-4.1-7.1-4.3-8.6l-2.9-5.6c-1.2-1.8-2-3.1-2.3-3.8c-1.1-1.8-1.8-3-2.3-3.6    c-5.4,1.8-10.8,3.9-16.3,6.3l-0.2,0.7c0.8,4.2,1.2,6.3,1.4,6.3c0.1,0,1.3-1.2,3.5-3.5c2.2-2.3,3.9-4.3,5.1-5.8    c0.5-0.6,1.1-1.1,2-1.6c0.5,0.9,0.7,1.7,0.7,2.3c0,1.5-0.7,2.9-2,4.3c-1.1,0.9-2.1,2.3-3.2,4.3l-4.1,4.3c-1.8,0.8-2.9,1.1-3.4,1.1    c-1.2,0-2-0.8-2.5-2.4c-0.5-1.6-1-3.3-1.6-5.3h0.7c0-1.1-0.2-2.6-0.5-4.7l-0.7-11.1c0-0.5,0.5-1.4,1.6-2.7c0.1,0,0.4,0.1,0.7,0.2    c0.3,0.2,0.5,0.5,0.5,0.9c0.8,3.2,1.1,5.1,1.1,5.9c0.1,1.2,0.5,1.8,0.9,1.8l8.6-2.7c3.2-1.4,4.7-2.4,4.7-3.2c0-0.3-0.5-1.4-1.5-3.2    c-1-1.8-1.5-2.9-1.5-3.4c0-0.6,0.4-1.3,1.1-2h0.9c3,2.9,4.6,4.7,4.9,5.6c0.2,0.9,0.5,1.4,0.8,1.4c0.5,0,1.9-0.7,4.4-2    c2.5-1.4,3.8-2,4-2c0.5,0,1.3,0.4,2.5,1.1c-0.6,1.4-2.9,2.9-6.8,4.5c-0.3,0.2-0.8,0.7-1.6,1.6c-0.3,0.2-0.5,0.4-0.5,0.7    c0,0.2,0.1,0.3,0.5,0.5c2,4.1,3.2,6.8,3.7,8.1c0.5,1.4,1.5,3.2,2.9,5.5c1.4,2.3,2.3,4.2,2.6,5.5c0.9,1.8,2.7,4.2,5.4,7.2    c0.8,1.1,1.8,1.8,3.2,2.3l0.5,0.2c0.3,0,0.6-0.1,0.9-0.2c0.3-0.1,2.2-2.9,5.6-8.1c4.7-7.2,7.5-10.8,8.4-10.8c1.5,0,2.3,0.4,2.3,1.1    l-0.5,0.5c-0.2,0.9-0.3,1.5-0.5,1.8c-0.2,0.3-0.4,0.6-0.7,0.9c-0.3,0.3-0.5,0.6-0.5,0.9v0.9l-0.9,0.5c-1.4,0.6-2,1.6-2,2.9    l-6.1,10.6C83.1,61.4,81.1,62.6,78.4,62.6z M61.6,86.5c-0.3,0-0.6-0.1-0.9-0.2c-0.3-0.2-0.8-0.5-1.4-0.9l1.8-1.8h-0.7    c-1.4,0.9-2.9,1.4-4.7,1.4c-3.6,0-5.4-0.6-5.4-1.9c0-1.3-0.2-2.8-0.5-4.6c0-3.3,0.3-5.6,0.9-6.8l0.2-2.3l-0.5-3.2    c0-2.7,0.6-4.1,1.8-4.1l0.9,0.2c1.2,1.1,2.6,1.6,4.3,1.6l2.7-0.5c1.2,0,2.6,0.8,4.3,2.5c2,2.7,2.9,5.7,2.9,9l0.2,0.5l-0.5,2    c0,0.3,0.2,0.5,0.7,0.5h1.1c0.9,0,1.4,0.3,1.4,0.9c0,0.3-0.8,1.2-2.3,2.6c-1.5,1.4-2.4,2.2-2.7,2.4C65.2,85.6,63.9,86.5,61.6,86.5z     M54.9,79.9l8.6-1.1v-2l0.2-0.7c0-0.3-0.2-0.5-0.5-0.5c-0.6,0-1.7,0.2-3.2,0.5c-2.6,0.6-4.2,1.3-5,2C54.9,78.1,54.9,78.7,54.9,79.9    z M57.6,72.5c0.8-0.3,2.3-0.5,4.5-0.5c0.6,0,0.9-0.1,0.9-0.5l-0.2-0.7c-1.5-2-2.5-2.9-2.9-2.9C57.3,68,56,69.3,56,72    C56,72.3,56.5,72.5,57.6,72.5z" fill="rgb(62,62,62)"></path>
	<path d="M129.4,89c-0.8,0-1.3-1.7-1.6-5l-1.6-9.5l-0.7-8.1l-1.1-6.1c0-1.7-0.4-3.3-1.1-5c-0.3,0.2-0.6,0.5-0.9,1.1l-2.5,4.3    c-3.9,6.3-6.4,10.9-7.5,13.8c-0.5,2.1-1.2,3.7-2.3,4.7c-0.6,0.5-0.9,1.1-0.9,2l0.2,0.9c0,1.4-0.4,2.3-1.1,2.9c-1.4,0-2-0.2-2-0.5    c-0.5-0.6-0.7-1.3-0.7-2c0-1.4,1.4-4.8,4.1-10.4c2.7-5.6,4.7-9.3,6.1-11.3c0.3-0.3,0.6-0.9,0.9-1.8c6.8-13.5,11.2-22.7,13.3-27.6    v-0.7h-0.7c-1.4,1.5-2.3,2.3-2.8,2.3c-0.5,0-1.4,0.4-2.5,1.2c-1.1,0.8-2.9,1.9-5.3,3.2c-2.4,1.3-3.9,1.9-4.5,1.9    c-0.9-0.9-1.4-1.6-1.4-2c0-1.5,0.4-2.3,1.1-2.5l10.8-5.2c3.5-2.3,6.1-3.7,7.9-4.3c0.3-0.1,0.6-0.2,0.9-0.2c0.6,0,1.5,0.4,2.7,1.1    c0.3,0.2,0.5,0.5,0.5,0.9c0,0.3-0.3,0.8-0.9,1.6c-0.6,1.5-1.4,3.2-2.5,5c-0.3,0.3-0.5,0.8-0.5,1.4l-5,10.6c-2,3.2-2.9,4.9-2.9,5.2    v0.2l2.5,2c6,1.8,12.1,3.4,18.3,4.7c0.5,0.5,1,0.8,1.6,0.9c-0.5,0.8-1,1.4-1.6,1.8c-0.6,0.5-1.2,0.7-1.8,0.7    c-0.6,0-1.1-0.1-1.5-0.5c-0.4-0.3-0.9-0.5-1.7-0.5l-1.8,0.2c-1.8,0-4.2-0.5-7.2-1.6c-1.2-0.3-2-0.5-2.5-0.5s-0.7,0-0.8,0.1    c-0.1,0.1-0.1,0.3-0.1,0.8l0.7,5.2c1.7,12,2.6,18.2,2.8,18.4c0.2,0.2,0.3,0.7,0.3,1.5c0,1.5,0.1,2.5,0.2,2.9v0.5L129.4,89z     M127.8,24.6c-0.6,0-1.7-0.8-3.3-2.3c-1.6-1.5-2.4-2.8-2.4-3.8c0-1.2,0.6-1.8,1.8-1.8c0.8,0,1.4,0.2,2,0.7c2,2,3.2,3.5,3.6,4.5    c-0.2,0.5-0.2,1.1-0.2,1.8C129.1,24.3,128.6,24.6,127.8,24.6z M151.5,87.6c-0.6,0-0.9-0.4-0.9-1.1v-0.2c0-1.4,0.5-2.2,1.6-2.5    c6.8-2.1,10.2-3.2,10.4-3.3c0.1-0.1,0.2-0.9,0.2-2.6c0-5.1-0.3-7.7-0.9-7.7L161,70c-0.8,0-1.1-0.2-1.1-0.7c0-1.1,0.3-1.8,0.8-2.1    c0.5-0.4,0.8-0.8,0.9-1.1c0.1-0.4,0.1-0.8,0.1-1.2l-0.2-1.8l0.2-5.4v-7c0-0.5,0.3-0.9,1-1.2c0.7-0.4,1.2-0.6,1.5-0.6    c0.1,0,0.3,0.1,0.6,0.3c0.2,0.2,0.3,0.5,0.3,0.8l-0.2,4.1l0.2,2c0,1.8,0.5,3.7,1.4,5.6l1.6-1.6c2.3-2.7,3.4-4.8,3.4-6.3l-0.7,0.2    c-0.6,0-0.9-0.2-0.9-0.7v-1.1c0-1.1,0.7-1.8,2-2.3l0.9-0.2c1.1,0,1.9,0.5,2.5,1.6c0.5,0.6,0.7,1.2,0.7,1.8l-0.5,0.9    c-0.6,2.6-1.4,4.3-2.3,5.2c-1.8,3.3-3.6,5.5-5.4,6.5c-0.8,0.5-1.1,1.1-1.1,1.8l0.5,3.8c0.3,5,0.7,7.5,1.1,7.5    c0.3,0,0.5-0.1,0.7-0.3c0.1-0.2,2.6-4.1,7.2-11.6c0.1-1.1,0.5-1.6,0.9-1.6l2.7,1.6v0.5c-1.1,2.4-2.2,4.7-3.4,7    c-1.4,1.4-2.3,2.6-2.7,3.8c0.5,0,0.9,0.2,1.4,0.5c2.1-0.5,6-1,11.7-1.6c2.7,0,4.7-0.1,6.1-0.5l2.3,0.2c0.8,0,1.4-0.1,1.8-0.5v-0.5    c0.5,0,0.7,0.2,0.7,0.5c0.6,0.3,1.5,0.5,2.7,0.5l6.1-0.5c1.5,0,3.1,0.4,4.7,1.1c0.5,0.3,0.7,0.8,0.7,1.4l-0.2,1.4    c-0.8,1.4-2,2-3.6,2c-0.5,0-1-0.1-1.6-0.3c-0.6-0.2-1.7-0.4-3.2-0.5c-1.5-0.1-2.6-0.2-3.4-0.5c-0.8-0.2-1.7-0.3-2.7-0.3l-3.6,0.2    c-0.8,0.3-1.4,0.4-1.9,0.3c-0.5-0.1-0.9-0.1-1.2-0.1l-0.5,0.2l-13.5,1.6c-6.9,1.7-10.4,2.6-10.5,2.8c-0.1,0.2-0.3,0.3-0.6,0.3    l-0.5-0.2c-2.3,0-4.7,0.3-7.2,0.9C155.1,87.3,153,87.6,151.5,87.6z M156.7,40.2h-0.5c-1.7,0-2.5-1.1-2.5-3.4l0.2-2.9    c0-1.2-0.3-2-0.9-2.3c-0.3,0-0.5-0.3-0.6-0.8c-0.1-0.5-0.2-0.9-0.3-1.2c0.6-1.4,0.9-3.2,0.9-5.6l-0.2-5c0-1.5,0.3-2.6,0.9-3.2    c0.6-0.6,1.2-0.9,1.8-0.9c0.8,0.2,1.3,0.5,1.6,0.9c0.3,0.5,0.6,1.1,0.9,1.8c0.3-0.1,0.5-0.4,0.5-0.7c-0.5-1.7-0.7-3-0.7-4.1    c0-0.5,0.3-1.4,0.9-2.9c0.8-0.3,1.3-0.5,1.6-0.5c0.3,0,0.7,0.2,1.2,0.7c0.5,0.5,0.8,0.9,0.8,1.4l-0.2,1.6v2.3h0.5v0.5    c0.1,0,0.7-0.2,1.6-0.7c0.1,0,0.4-0.3,0.7-0.9l-0.5-0.2l0.7-0.5c0.1-1.2,0.8-1.8,2-1.8c0.9,0,1.4,0.4,1.6,1.2    c0.1,0.8,0.7,1.2,1.6,1.2c5.3,0,7.9,2.7,7.9,8.1c0,1.2-0.7,2.4-2.1,3.6c-1.4,1.2-2.1,2.1-2.1,2.7c0,2.4-1.8,4-5.4,4.7    c-1.4,0.5-3,1.2-5,2.3L161,37c-1.4,0.3-2.2,0.8-2.6,1.6C158,39.4,157.5,39.9,156.7,40.2z M156.5,50.8c-0.9,0-1.4-0.1-1.5-0.3    c-0.1-0.2-0.3-0.5-0.6-0.9c-0.3-0.4-0.5-0.7-0.5-1c0-0.8,3.8-3.1,11.5-7c4.1-2.3,6.3-3.4,6.8-3.4c1.1,0,1.9,0.5,2.5,1.6h0.5    c0,0.6-1.1,1.7-3.4,3.2c-2.3,1.5-3.8,2.3-4.7,2.5c-1.8,0.5-3,1-3.6,1.7c-0.6,0.7-2.1,1.2-4.5,1.7C158.4,49.1,157.5,49.8,156.5,50.8    z M158.1,25.5v-2.9l-0.5,0.5v1.4v1.1H158.1z M158.3,32.7l1.6-1.1c-0.3-0.3-0.6-0.5-0.9-0.5l-1.4,1.1    C157.9,32.6,158.2,32.7,158.3,32.7z M163,23.5l1.4-0.5l0.5-2.7c0-0.3-0.1-0.5-0.2-0.5c-1.2,0-1.8,0.4-1.8,1.1L163,23.5z     M168.5,26.4c0.8,0,2.4-1.1,5-3.4l0.2-0.9l-0.2-0.9c-0.6-1.5-1.4-2.3-2.3-2.3c-1.5,0-2.3,0.8-2.3,2.3l0.5,2.7    c0,0.8-0.2,1.2-0.5,1.5C168.6,25.6,168.5,26,168.5,26.4z" fill="rgb(62,62,62)"></path>
	<path d="M235.8,12.6c-3-2.9-5.8-5-8.4-6.5c-2-0.8-3.2-1.5-3.6-2.3l-0.7,0.2c-0.3,0-0.5-0.1-0.5-0.2c0-0.1-0.3-0.5-0.9-0.9    c0.6-0.3,1-0.9,1.2-1.7c0.2-0.8,0.7-1.2,1.5-1.2c1.4,0,2.2,0.1,2.5,0.2l7.9,5.9c2.1,2.6,3.2,4.2,3.2,5c-0.3,0.2-0.5,0.3-0.5,0.5    C236.8,12.1,236.2,12.5,235.8,12.6z M322.7,98.7l-1.4-0.2c-3.5-2.1-8-3.7-13.5-4.7c-1.5-1.1-2.9-1.6-4.1-1.6    c-1.1-0.5-2.6-0.9-4.7-1.4l-1.1-0.7c-1.8-0.2-5.6-1.4-11.5-3.6c-0.3-0.5-0.7-0.7-1.1-0.7c-2.1,0-5.3-0.8-9.7-2.5    c-3.9-0.8-7.8-1.7-11.7-2.7c-4.1-0.6-6.5-1.2-7.2-1.8c-2.3-0.9-4.1-1.5-5.4-1.8l-17.4-2.9c-1.4,0-3.2,0.4-5.4,1.1    c-0.3,0-1.1-0.5-2.3-1.4c-0.6,0-1.1-0.1-1.6-0.2V72c0-2,1.2-2.9,3.6-2.9l0.2-0.2c12.9,1.8,20.8,3.3,23.5,4.5c1.8,0.5,3.5,0.7,5,0.7    c0.8,0,1.3-0.1,1.7-0.5c0.4-0.3,1.4-2.7,3.2-7.1c1.7-4.4,3.9-8.8,6.4-13.2l2.7-5.4v-0.2c-1.2,0.8-2.7,1.3-4.5,1.6    c-1.8,0.3-4,1.2-6.5,2.7c-1.1,0.5-1.7,0.9-2,1.4c-0.3,0.5-0.7,0.8-1.1,1.1c-0.8,0-1.7-0.2-2.7-0.7l-0.9-1.4c0-0.6,0.1-0.9,0.2-0.9    c0.5-1.2,1.4-2.1,2.7-2.7c1.1-1.4,4.1-2.8,9.3-4.3c2.3-1.1,3.9-3.2,5-6.3c0-0.5,0.2-0.9,0.7-1.4v-0.7h-0.5c-2.6,0.9-4,1.4-4.3,1.4    c-1.1,0-1.6-0.5-1.6-1.6c-0.8-2-1.1-5.5-1.1-10.6c0-1.4,0.2-2.7,0.7-4.1l0.2-8.4l-0.2-1.1c-0.3,0-0.8,0.3-1.4,0.9    c-1.5,1.2-2.6,1.8-3.4,1.8c-0.3,0-0.8-0.1-1.4-0.3c-0.6-0.2-0.9-0.5-0.9-0.8c0-2,0.7-3.3,2-4.1c7.2-3.6,12.2-5.9,14.9-7    c0.5,0,1,0.2,1.6,0.5l0.2,1.4c0,0.6-1,1.6-2.9,2.9c-2.6,1.2-3.8,2.6-3.8,4.1l-0.2,0.5l0.2,1.1l-0.2,1.1c0,0.3,0.7,0.5,2,0.5    c3,0,5,0.3,6.1,0.9c2.3,1.1,3.7,4.3,4.3,9.7c0,0.5-0.2,1-0.5,1.6c-0.5,2.1-1.1,3.4-2,3.8c0,0.6-0.2,1.1-0.5,1.5    c-0.3,0.4-0.5,0.7-0.5,1c0,0.3-0.2,0.5-0.7,0.5c-0.9,0.6-1.4,1.7-1.6,3.4l-0.9,3.8c0,0.5,0.5,0.7,1.6,0.7c1.1,0,1.7,0.1,2,0.2    c0.3,0.2,0.9,0.8,1.8,1.8c0,1.2-0.5,2.4-1.6,3.6c-1.4,0.9-2.3,1.8-2.7,2.7c0,0.5-0.3,1.1-0.9,2c-1.4,0.9-2,1.5-2,1.7s0,0.4,0,0.6    c0,0.5,0.1,0.7,0.5,0.7c1.8,0,3.5,0.9,5,2.6c1.5,1.7,2.3,3.7,2.3,6c0,4.4-1.6,7.2-4.7,8.6c-1.2,0.5-2.3,0.7-3.4,0.7l-2.3-2.3    l0.2-0.9l2.3-1.4c1.2-0.3,2-0.6,2.3-1c0.3-0.4,0.5-1.3,0.5-2.8c0-3-0.7-4.5-2-4.5c-0.6,0-1.2,0.2-1.8,0.7c-2.4,2.1-3.8,3.6-4.1,4.5    c-0.9,2.3-2.3,5.3-4.3,9l-0.2,1.1c0,0.3,2.8,1.6,8.4,3.8c1.8,0.5,3.2,0.7,4.3,0.7c1.5,0.8,2.5,1.1,2.9,1.1l0.9-0.2    c0.8,0.9,1.9,1.4,3.4,1.5c1.5,0.1,2.6,0.3,3.2,0.7c0.6,0.4,1.7,0.8,3.4,1.1c1.7,0.4,5.2,1.5,10.6,3.5l6.1,1.1l8.1,2.5    c6.5,2,10.2,3.8,11.1,5.4C325.2,97.8,324.4,98.7,322.7,98.7z M235.8,67.5c-0.6,0-0.9-0.4-0.9-1.1l0.2-0.7c1.1-2.3,1.8-3.6,2.4-4.2    c0.5-0.5,1.1-1.9,1.7-4.2c-0.5-2.6-1.2-4.5-2.3-5.9c-0.6-0.9-0.9-1.9-0.9-2.9l-0.2-0.7c0-1.1,0.2-1.6,0.7-1.7    c0.5-0.1,0.8-0.1,0.9-0.1c0.1,0,0.5,0,1,0.1c0.5,0.1,1.2,0.8,1.9,2.1c2.4,4.1,3.6,7.2,3.6,9.5s-0.9,4-2.7,5.2    c-0.2,0.2-0.3,0.6-0.6,1.4c-0.2,0.8-1.3,1.6-3.3,2.5C236.6,67.3,236.1,67.5,235.8,67.5z M269,24.6c0.5,0,0.7-0.1,0.7-0.2    c2-0.9,3.7-1.4,5.2-1.4c0.6,0,1.1-0.3,1.4-0.9c0-0.3-0.3-0.9-0.9-1.7c-0.6-0.8-2.4-1.2-5.4-1.2l-0.2,0.2    C269.2,21.2,269,23,269,24.6z M269.4,31.2c0.3-0.3,0.9-0.5,1.8-0.7c1.8-0.5,3.1-1.1,3.8-2v-0.9l-0.5-0.2c-0.9,0-2.7,1.1-5.4,3.2    l-0.2,0.5L269.4,31.2z M334.7,75.2h-0.5c-1.4,0-2-0.3-2-0.9c-0.6-1.7-2.1-3.5-4.5-5.6c-1.5-0.9-5.5-4.1-12-9.5    c-3.3-2.1-5.9-4.3-7.9-6.5c-0.2-0.3-0.3-0.5-0.5-0.5c-0.9,0-2.3,1.6-4.3,4.7c-0.6,1.1-1.6,2.1-2.9,3.2c-2.4,2-3.9,3.8-4.5,5.4    l-3.2,2.3c-1.1-1.4-1.6-2.3-1.6-2.9c0-0.8,0.2-1.1,0.7-1.1c0.6-0.9,1.5-1.7,2.6-2.5c1.1-0.8,1.7-1.4,1.7-1.9c0-0.5,1.7-3,5.2-7.3    c1.5-1.4,2.3-2.3,2.3-2.9c0-1.1-0.7-1.7-2-1.8c-0.3,0-0.8-0.4-1.6-1.1c1.1-1.8,2-2.7,2.9-2.7c0.8,0,1.5,0.3,2.4,0.8    c0.8,0.5,1.4,0.8,1.7,0.8l3.2-4.3c3.9-6.2,5.9-9.6,6.1-10.4c0.1-0.1,0.2-0.4,0.2-0.7c0-0.3-0.1-0.6-0.2-0.8    c-0.2-0.2-0.3-0.3-0.5-0.3c-0.3,0-0.8,0.2-1.6,0.7c-5.6,2.3-9.3,3.6-11.3,4.1c-2.4,0-3.6-1.2-3.6-3.6l0.7-3.4    c0-0.6-0.1-0.9-0.2-0.9l-0.9,0.5c-1.2,0-1.8-0.2-1.8-0.7c0.8-2,1.7-3.4,2.7-4.3c1.2-1.4,2.2-2,2.9-2c1.5,0,2.3,1.1,2.3,3.4    c0,1.7-0.2,3.1-0.7,4.3l0.5,1.1h1.6l5.6-2.3l6.8-1.1c1.4,0,2.3,0.9,2.9,2.7c0,1.2-0.2,2.5-0.5,3.8v0.2c-0.3,0.3-0.8,0.5-1.6,0.7    c0,0.3,0.2,0.7,0.7,1.1l-2.3,4.7c-2.4,3.2-4.9,6.2-7.5,9v1.8c6.9,6.3,13.2,11.3,18.7,14.9l5.9,5.9c0.9,1.2,1.4,2.3,1.4,3.4    C336.3,73.4,335.7,74.3,334.7,75.2z" fill="rgb(62,62,62)"></path>
	<path d="M349.6,42.2h-2c-0.9,0-1.4-0.9-1.4-2.7c0.8-1.4,1.8-2.3,3.2-2.7c5.1-1.4,7.7-3.2,7.7-5.6c0-1.1-1.3-2.2-3.8-3.4    c-1.1-1.2-1.6-2.3-1.6-3.4c0-1.1,0.6-1.6,1.8-1.6h0.5c3.8,2,6.4,4.4,7.9,7.5l0.2,1.8c0,0.5-0.7,1.3-2,2.5l0.5,0.2    c1.7,0,2.5,0.5,2.5,1.4c0,2.1-1.4,3.2-4.1,3.2l-0.7-0.2c-0.3,0-1.2,0.4-2.7,1.1C353.3,40.6,351.4,41.3,349.6,42.2z M350,60.1h-0.5    c-1.1,0-1.6-0.6-1.6-1.8c0-1.5,0.8-2.5,2.3-2.9l3.6-1.8l1.1,0.2l2.7-0.9c0.5-0.3,1.1-0.5,2-0.7c1.4-0.5,2.3-1.1,2.7-2    c0.6-0.1,1.1-0.3,1.5-0.3c0.4-0.1,0.8-0.1,1.2-0.1c0.3,0,0.8,0.2,1.5,0.5c0.7,0.3,1,0.8,1,1.4c-0.2,0.8-0.8,1.7-1.8,2.7    C359.4,57.4,354.1,59.3,350,60.1z M352.3,50.1h-0.9c-1.1,0-1.6-0.5-1.6-1.6c0-2.1,0.6-3.2,1.8-3.2c1.2,0,2.7-0.5,4.6-1.5    c1.9-1,4.3-1.9,7.3-2.8c0.6,0,1.1,0.5,1.6,1.6c-1.4,2-3.9,3.6-7.7,5c-1.4,0.8-2.6,1.4-3.6,2L352.3,50.1z M352.7,88.1    c-1.1,0-1.6-1-1.6-2.9l0.2-0.7c1.1-5.4,1.7-10.8,1.8-16.3c-0.3-0.6-0.5-1.4-0.5-2.3c0-3.3,0.7-5,2-5c0.3,0,0.6,0.2,1,0.6    c0.4,0.4,0.9,2.7,1.5,6.9H357v3.4l0.5,0.9c0.3-0.1,0.5-0.3,0.5-0.5c2.4-2.6,4.7-4,7-4.3c1.7,0,2.8,0.8,3.4,2.5    c0.3,0.6,0.5,1.2,0.5,1.8c0,1.1-0.2,2.1-0.7,3.2c-1.7,3.9-3.9,6.6-6.8,8.1c-1.1,0.6-2.1,0.9-3.3,1c-1.1,0.1-1.8,0.7-2.1,1.8    C355.6,87.5,354.5,88.1,352.7,88.1z M358.4,80.2c1.2,0,3.1-1.9,5.6-5.6c-0.2-0.1-0.4-0.2-0.7-0.2l-3.2,1.6    C359,76.8,358.4,78.2,358.4,80.2z M374.4,46.7h-0.7c-1.5,0-2.3-0.6-2.3-1.8c0-0.5,0.2-1.1,0.7-1.8c0.5-0.8,3.1-2,7.9-3.6    c4.8-1.7,7.4-2.8,7.7-3.4c1.4-1.8,2.3-3.2,2.7-4.3c0.8-2,1.1-4.1,1.1-6.5c0-0.3-0.3-0.5-0.9-0.5l-3.2,1.1c-0.5,0-0.9-0.3-1.2-1    c-0.4-0.7-0.6-1.2-0.6-1.7c0-1.4,0.9-2.1,2.7-2.3c3-0.9,4.5-1.8,4.5-2.7v-4.7c0-0.8-0.1-1.1-0.2-1.1c-0.3,0-0.8,0.2-1.6,0.5    c-0.8,0.3-1.5,0.5-2.3,0.5c-1.2,0-1.8-0.5-1.8-1.6c0-1.7,1.4-2.9,4.3-3.6c1.2-0.3,1.8-0.8,1.8-1.6V5.4c0-1.4,1-2,2.9-2    c1.1,0,1.6,0.5,1.7,1.4c0.1,0.9,0.3,1.4,0.8,1.4l0.9-0.2c1.5,0,2.6,0.1,3.2,0.2c0.6,0.2,0.9,0.5,1,0.9c0.1,0.5,0.1,0.9,0.1,1.4    c0,1.4-1.1,2-3.4,2c-1.1,0-1.8,0.3-2.3,0.9c-0.5,0.6-0.8,2-1.1,4.3l0.2,1.8c0.6,0,1.6-0.4,3-1.2c1.4-0.8,2.3-1.2,2.6-1.2l0.7,0.2    h1.4v1.4c0,1.1-1.2,2.2-3.5,3.5c-2.3,1.3-3.7,2.1-4.2,2.6s-1.3,3-2.5,7.7l-1.4,3.6l0.2,0.5c1.2-0.3,7.6-2.6,19.2-7    c3.2-0.9,6.1-2.2,8.8-3.8c0.8-0.5,3-1.3,6.8-2.5c0.8,0,1.7,0.2,2.7,0.5c-0.9,3-2.2,4.6-4,4.6c-1.7,0.1-2.7,0.3-3,0.8    c-1.1,1.4-3.2,2.3-6.3,2.9c-0.6,0.9-1.9,1.4-3.8,1.6c-2.1,0.6-4.4,1.6-7,2.9l-12,4.3c-2.4,1.4-4.1,2-5,2l-0.5-0.2    c-0.2,0-0.5,0.4-0.9,1.1c-3.3,1.2-5.7,2-7.2,2.5c-1.2,0.9-2.2,1.5-2.9,1.8L374.4,46.7z M391.1,95.1c-1.4-0.2-2-0.7-2-1.6    c0-0.2,0.1-0.5,0.3-1.1c0.2-0.6,0.6-2.4,1-5.4c0.5-1.4,0.8-3.2,1.1-5.6h0.5l-0.2-0.9c0-0.6,0.1-1.4,0.5-2.5    c0.3-1.1,0.5-1.9,0.5-2.5c-0.2-0.3-0.3-0.6-0.5-1c-0.2-0.4-0.3-0.8-0.6-1.1c-0.2-0.4-0.3-0.8-0.3-1.2c0-1.4,0.4-2.3,1.2-2.8    c0.8-0.5,1.4-1.4,1.7-2.6c0.5-3.2,0.9-6.2,1.4-9.1c0.5-2.9,1.1-5.8,1.8-8.7c0.9-0.8,1.7-1.1,2.5-1.1c0.5,0,0.8,0.1,0.9,0.3    c0.1,0.2,0.3,0.6,0.5,1l-1.6,6.5l0.2,0.2c0.1,0,0.2-0.1,0.2-0.2c0.9-1.5,1.8-3,2.6-4.6c0.8-1.6,2.2-2.4,4.2-2.4    c1.4,0,2.5,0.6,3.5,1.8c1,1.2,2,5.8,3,13.8c-0.3,0.8-0.5,1.5-0.5,2.3c0,0.8,0.1,1.6,0.5,2.5l-0.2,1.4c0,0.8,0.6,1.1,1.8,1.1    c1.8-0.9,4.8-1.6,9-2c2,0,2.9,0.8,2.9,2.5c0,0.8-0.5,1.3-1.4,1.6l-11.7,2.9l-0.9,1.1c-1.4,8.7-2.7,14.2-4.1,16.5    c-0.6,0.5-1.3,0.7-2,0.7c-1.8,0-2.9-0.9-3.2-2.7c-0.3-0.6-0.5-1.1-0.5-1.4c0-0.5,0.6-1.1,1.8-1.8c1.2-0.8,1.8-1.3,1.8-1.6l0.9-6.8    v-2.7c-0.2,0-0.4,0.2-0.7,0.7c-1.1,0.3-4.5,1.1-10.4,2.5l-1.1,1.1c-0.8,4.1-1.6,8.1-2.5,12C392.9,94.7,392.2,95.1,391.1,95.1z     M398.4,75.9l1.6-0.5c5.1-0.8,7.9-1.5,8.4-2.4c0.5-0.8,0.7-2.1,0.7-3.7c0-0.8-0.1-1.4-0.2-1.8l-3.4,1.4c-0.9,0.6-2,0.9-3.2,0.9    c-1.7,0.3-2.9,0.9-3.8,1.9c-0.9,1-1.4,2.4-1.4,4.2H398.4z M402,65.5l6.1-2.7c0.3,0,0.5-0.1,0.5-0.5c-0.2-1.7-0.7-4.2-1.6-7.7v-0.2    l-0.2-0.2v0.2c-1.5,1.2-2.3,2-2.5,2.5c-0.8,1.1-1.4,2.8-2,5.2c-0.6,1.8-0.9,2.9-0.9,3.4H402z" fill="rgb(62,62,62)"></path>
	<path d="M470.2,77.9c-0.9,0-1.9-0.5-2.9-1.6c-1.1-2.3-1.6-3.7-1.6-4.4c0-0.7-0.6-1-1.8-1l-2.7,0.2c-0.6,0.6-1.9,0.9-3.8,0.9    c-2,0-4-0.1-6.1-0.5c-1.1-0.3-1.8-0.9-2.3-1.7c-0.5-0.8-0.9-1.5-1.4-1.9c-1.2-2-1.9-3.4-2-4.4c-0.2-1-0.7-2.3-1.6-4l-0.7-1.4    c0-0.3,0.1-0.6,0.5-1c0.3-0.4,0.5-0.9,0.5-1.5c0.5,0.3,0.9,0.5,1.5,0.6c0.5,0.1,0.8,0.3,0.8,0.6c1.4,2.3,2.3,3.9,2.7,5    c0.1,1.5,0.9,2.9,2.3,4.1c1.4,1.2,2.9,2,4.5,2.3c0.8,0,2.2-0.2,4.3-0.7c1.5,0,2.3-0.1,2.3-0.5l-0.2-1.1c0-0.3,0.1-0.8,0.5-1.4    c1.5,0,2.4,0.3,2.7,1c0.3,0.7,0.8,1,1.6,1c0.5,0,1.1-0.2,1.8-0.6c0.8-0.4,1.4-0.6,1.8-0.6c1.7-0.5,2.5-1.3,2.5-2.5    c0-1.2,0.2-2.7,0.7-4.5c0.3-2.6,0.7-4.7,1.1-6.3V51l-0.9,0.2c-1.7,1.4-2.8,2.3-3.4,2.9c-1.5,1.1-3.3,2-5.4,2.7    c-0.5,0-0.8,0.2-1.1,0.7c-3,1.7-5.9,2.5-8.6,2.5c-0.6-0.6-0.9-1-0.9-1.1c0.1-1.7,1-2.8,2.5-3.4c1.5-0.6,2.5-1.4,2.9-2.5    c0-0.5-0.3-1.1-1-1.8c-0.7-0.8-1.2-1.1-1.7-1.1c-1.2-0.5-1.8-1.1-1.8-2c0-1.2,0.6-1.8,1.8-1.8c2,0,4.2,1.7,6.8,5.2h0.2v1.6    c0.6,0,2.1-0.6,4.5-1.8c3.5-1.5,5.3-2.3,5.6-2.3h0.9v-8.1c0-1.7-0.3-3-0.9-4.1c-0.6-1.1-1.3-2.3-2-3.6c0-0.9,0.1-1.5,0.2-1.8    c1.4-1.7,2-3.5,2-5.6c0-0.5-0.3-0.9-1-1.2c-0.7-0.4-1-0.8-1-1.2s0.2-1,0.6-1.6c0.4-0.6,0.9-0.9,1.5-0.9l0.9,0.2    c2.6,0.9,3.8,2.6,3.8,5.2c0,1.2-0.4,2.3-1.1,3.4c0,0.5-0.2,0.9-0.6,1.4c-0.4,0.5-0.6,0.8-0.6,1.1l0.2,0.9c1.7,4.2,2.5,7.4,2.5,9.5    L478.3,56l-1.6,7.5c0,0.5,0.5,0.7,1.6,0.7c3.3-0.8,6.2-1.3,8.6-1.6c1.5-0.1,3.7-0.9,6.5-2.3c2-0.9,3.3-1.5,4.2-1.7    c0.8-0.2,1.8-0.8,3-1.6c1.2-0.8,2.1-1.4,2.8-1.7c0.7-0.3,2.4-1.3,5.3-2.9l1.8,0.5c-0.8,1.8-2,3-3.8,3.6c-0.9,0.5-1.7,0.9-2.3,1.2    c-0.6,0.4-1.2,0.8-1.8,1.2c0,0.3-0.2,0.5-0.5,0.5c-1.2,0.5-2.9,1.4-5.2,2.7c-2.9,0.8-4.7,1.5-5.6,2.3c-2.1,0.9-5,1.7-8.8,2.3    c-1.5,0.2-3.8,0.7-6.8,1.6c-0.5,0.3-0.7,0.5-0.7,0.7c-1.4,3.2-2.3,5.6-2.7,7.2C472.1,77.3,471.4,77.9,470.2,77.9z M469.5,71.8    c0.1-0.3,0.6-0.8,1.4-1.4c0.1-0.1,0.2-0.7,0.2-1.6c-0.5,0-1.4,0.6-2.9,1.8L469.5,71.8z M499.1,53.7c-0.5,0-1-0.1-1.6-0.2    c-0.6-0.1-1.4-0.2-2.5-0.2c-2.6,0-4.1-0.1-4.6-0.5c-0.5-0.3-1.2-0.6-1.9-1c-0.8-0.4-1.1-1.8-1.1-4.4c0-0.6,0.1-1.6,0.5-2.9    c0.8-1.5,1.4-3,1.8-4.5c1.4-2.7,2-4.6,2-5.6c0.5-0.3,0.9-0.7,1.2-1.2c0.4-0.5,0.8-0.9,1.2-1c0.3,0,0.7,0,1.1,0.1    c0.5,0.1,0.7,1,0.7,2.8c0,0.6-0.6,2.6-1.9,6c-1.3,3.4-1.9,5.3-1.9,5.8c0,1.5,0.8,2.3,2.3,2.3c1.5,0,3,0.1,4.5,0.2l1.4-0.2    c1.5-0.3,2.6-0.5,3.4-0.5c0.6,0,1.4,0.4,2.3,1.1l0.9,0.2c0,0.8-0.2,1.1-0.7,1.1C503.7,52.8,501.3,53.7,499.1,53.7z M514.4,68.4    h-2.5c-0.6,0-1-0.2-1.1-0.7l0.7-12.4l-0.7-2.3c0.6-0.1,0.9-0.5,0.9-0.9c0-3.2,0.7-5.2,2-6.1l0.7-0.2c1.2,0,2,0.4,2.3,1.1l-1.1,12    l0.5,5.6c0,0.6-0.1,1.3-0.3,2.1c-0.2,0.8-0.5,1.3-0.7,1.5C514.8,68.4,514.6,68.4,514.4,68.4z" fill="rgb(62,62,62)"></path>
</g></svg>