<svg xmlns="http://www.w3.org/2000/svg" x="0px" y="0px" viewBox="0 0 374.6 116" style="vertical-align: middle; max-width: 100%; width: 100%;" width="100%"><g>
	<path d="M34.7,47.3c-0.6,0-1-0.3-1.3-1c-2.1-2.1-4.2-4.1-6.4-6.1c-1-0.7-1.9-1.4-2.6-2.2c-0.4-0.5-1.2-1.2-2.3-2    c-0.7-0.5-1.2-0.9-1.6-1.3c-0.4-0.4-1.2-1-2.5-2c-1.8-1.4-2.9-2.3-3.5-2.8c-0.6-0.5-1.1-0.8-1.6-0.9c-0.5,0-0.9,0.2-1.2,0.6    c-0.3,0.4-0.6,0.7-0.9,0.9c-0.3,0.2-0.8,0.6-1.3,1.4l-2.1,1.8c-0.4,0.8-1.2,1.5-2.3,2.3c-0.6,0.5-1.1,0.9-1.5,1.3    c-0.2,0.1-0.4,0.1-0.7,0.2c-0.3,0-0.7,0.1-1.2,0.3c-0.8-0.8-1.3-3-1.3-6.6c0-1,0-1.8,0.1-2.3c0.6-6.8,0.9-11.3,0.9-13.7l-0.1-2.8    l0.1-0.3c0-0.5-0.2-0.7-0.6-0.7c-0.4,0-0.6-0.3-0.6-0.9c0-1,0.5-1.7,1.5-2.2l1-0.3c0.3,0,0.5,0.1,0.6,0.3c0.1,0.2,0.2,0.3,0.5,0.3    c2.2,0,4.1-0.3,5.6-0.8c1.2-0.4,2.5-0.6,3.7-0.6c0.1,0,0.4,0.3,1,0.8c0.2,0.2,0.2,0.4,0.2,0.6c0,1-0.5,2.2-1.6,3.6    c-0.7,0.4-1,0.8-1,1.4l-0.1,0.2l-2.8,0.8c0,0.1-0.1,0.2-0.2,0.2c-0.2,0.1-0.2,0.2-0.2,0.2c-0.5,0.5-1,0.8-1.6,0.8H6.2    c-1.1,0-1.9,0.7-2.4,2.2c-0.2,0.4-0.3,0.8-0.3,1.2c0.2,0,0.5-0.1,0.7-0.2c0.2-0.1,1.5-0.9,3.8-2.4c0.5-0.2,0.9-0.3,1-0.4    c0.2-0.1,0.3-0.2,0.5-0.2c0.2,0,0.4,0.2,0.8,0.5l-1.4,1.6c-0.8,1-2.3,2.1-4.3,3.2c-0.8,0.5-1.2,0.7-1.2,0.8    c-0.2,0.7-0.3,1.4-0.5,2.1c-0.2,0.7-0.2,3.4-0.2,7.9c0,1.7,0.2,2.5,0.5,2.5c0.3,0,1.6-1.1,4-3.2c1.5-2,2.6-3.2,3.1-3.6l0.2-0.3    l-0.5-0.2c-1-0.5-1.8-1.1-2.4-1.6c0.2-0.7,0.5-1.1,0.8-1.3c0.5,0,0.8,0,1.2,0.1c0.3,0.1,0.7,0.2,1.3,0.4c0.5,0.2,0.9,0.3,1.1,0.5    c0.2,0.1,0.4,0.2,0.5,0.2h0.1c1.5-1.5,2.9-3.2,4.4-5.1c0.9-1.4,1.6-2.1,2.1-2.1c0.8,0,1.2,0.5,1.2,1.4c-0.5,1.1-2.3,3.3-5.5,6.6    c-0.2,0.2-0.3,0.3-0.3,0.3c0,0.1,0.4,0.3,1.2,0.8c1.7,1.2,3.5,2.7,5.4,4.4c1.2,1.1,2.3,2,3.2,2.6l7.6,6.7c1.1,0.8,2.5,2.1,4.4,3.9    c0.2,0.2,0.2,0.6,0.2,1C36,47,35.5,47.3,34.7,47.3z M3.7,13.9c0.3,0,1.1-0.3,2.3-1C7.3,12.4,8.2,12.1,9,12c0.7,0,1.6-0.6,2.5-1.6    c0.3-0.3,0.5-0.6,0.7-0.8l-0.7-0.1l-0.7,0.1c-1.9,0.6-4.1,1.1-6.4,1.4c-0.5,0.1-0.8,0.4-0.8,1c0.2,0.3,0.2,0.7,0.2,1.2l-0.1,0.6    C3.6,13.9,3.7,13.9,3.7,13.9z M7.2,7.3c-0.4,0-0.6-0.2-0.6-0.5c0-1-0.5-2.3-1.5-3.9C5,2.6,4.9,2.3,4.9,2.2c0-0.9,0.5-1.4,1.5-1.4    C7.2,1.2,8,2.9,9,5.9L8.8,6.3L7.4,7.1L7.2,7.3z" fill="rgb(62,62,62)"></path>
	<path d="M45.4,39.6c-0.5,0-0.8-0.2-1-0.5c-0.2-0.3-0.4-0.6-0.5-0.9c0.2-1,0.5-2.5,0.7-4.5l2.3-13.5c0.5-2.4,0.9-4.8,1.2-7.3    c0-0.5-0.2-0.7-0.5-0.7l-3.7,1.2l-1.5-0.8l0.3-0.8c4.1-1.1,8.9-3.6,14.5-7.5c0.7,0,1.1,0.2,1.3,0.7c0,0.2-0.1,0.4-0.2,0.6    c-0.2,0.2-0.7,0.6-1.5,1.1c-1.2,0.7-1.9,1.2-2.2,1.5l-4.3,2.9c-0.3,0.2-0.5,0.6-0.5,1.3c0,0.5,0,0.8-0.1,1    c-0.2,0.5-0.5,1.5-0.7,2.9c0,1,0,1.6-0.1,1.7c-0.4,3.8-1,7.8-1.8,12c-0.5,3.1-0.8,4.9-0.8,5.5c0.2,0.3,0.2,0.7,0.2,1.2l-0.1,1.5    c-0.1,0.4-0.1,0.6-0.1,0.7S46,39.3,45.4,39.6z M51.5,26.5c0-0.1,0-0.1-0.1-0.2c-0.1,0-0.1-0.2-0.2-0.3c0-0.2-0.1-0.4-0.1-0.6    c0-0.5,0.2-0.7,0.5-0.8c1.8-1.2,3.5-2,5.2-2.4c0.2-0.1,0.7-0.3,1.3-0.7c0.7-0.4,1.2-0.6,1.6-0.7c0.4-0.1,0.7-0.3,1.1-0.6    c0.3-0.3,1.4-1,3.2-2c0.9-0.7,1.5-1,1.7-1c0.4,0,0.7,0.2,0.8,0.5L66,18.8c-0.5,0.5-1,0.8-1.5,0.9c-0.1,0.2-0.4,0.3-0.9,0.5    c-0.2,0.2-0.4,0.2-0.6,0.2c-0.3,0.5-1,1.1-2.1,1.7c-0.5,0.2-1.5,0.7-2.9,1.6C56.3,24.6,54.1,25.5,51.5,26.5z M53.9,17.5    c-0.2,0-0.3-0.1-0.5-0.2c-0.2-0.2-0.3-0.3-0.5-0.5c0.6-1.3,1.5-2,2.6-2c0.5-0.1,1.2-0.3,2.4-0.8c1.1-0.5,1.9-0.7,2.4-0.7    s0.8-0.1,1-0.2c0.2-0.2,0.4-0.2,0.5-0.2c0.4,0,0.6,0.2,0.7,0.6v0.1c0,0.5-0.2,0.7-0.6,0.7L53.9,17.5z M81.7,43.7    c-0.1,0-0.8-0.6-2.1-1.7c-3.5-3.5-5.8-5.8-6.8-7c-2.7-2.8-4.1-4.4-4.4-4.8c-0.3,0-1,0.7-2.2,2.2c-0.2,0.1-0.5,0.3-0.9,0.8    s-0.7,0.9-1.2,1.4c-3.4,2.8-5.3,4.3-5.8,4.3c-0.3,0-0.6-0.1-0.9-0.3c-0.8-0.3-1.3-1-1.3-2.1c0.1-4.7,0.2-8.1,0.5-10.2    c0-0.8,0.3-1.2,0.9-1.2c0.2,0,0.6,0.4,1,1.3l-0.6,0.1c0,6.2,0.2,9.4,0.6,9.6c0.3,0,0.5,0,0.5-0.1c2.2-1.7,4.3-3.6,6.3-5.6l1-2    c0-0.2,0-0.2-0.1-0.2c-0.4-0.4-1-0.9-1.8-1.6l-1.3-1.6c0.1-0.2,0.1-0.3,0.2-0.4c0-0.1,0.1-0.2,0.3-0.2c0.5-0.2,0.8-0.3,1-0.3    c1,0.6,1.6,1,1.9,1.2c0.3,0.2,0.4,0.4,0.4,0.5c0.4,0.4,0.7,0.6,1,0.6c0.3,0,0.8-0.5,1.5-1.5c1.2-1.2,2-2.3,2.6-3.2    c0.5-0.5,0.8-0.7,0.9-0.7c0.8,0,1.2,0.3,1.2,0.9c0,0.2-0.6,1-1.8,2.6c-0.1,0.5-0.5,1.2-1.2,2c-0.3,0.2-0.7,0.5-1.3,1.2    c-0.1,0-0.1,0.1-0.1,0.2c0,0.5,0.3,1.1,0.9,1.6c1.5,1.8,2.7,3,3.6,3.9c0.9,0.8,1.7,1.6,2.5,2.5c2.6,3,4.5,4.9,5.6,5.6    c0.2,0.5,0.2,0.8,0.2,0.9c0,0.4-0.2,0.7-0.5,1.1C82,43.6,81.8,43.7,81.7,43.7z" fill="rgb(62,62,62)"></path>
	<path d="M103.8,36.8c-4.4-0.1-7.4-0.3-9-0.7L93.6,36l-0.6,0.1c-0.6,0-1.5-0.5-2.6-1.4c-0.5-0.5-1.1-0.8-1.6-0.9    c-0.5-0.2-0.8-0.5-0.8-1.2c0-0.8,0.2-2,0.6-3.6c0.3-2,0.6-4.1,1-6.2c0.3-2.1,0.7-3.2,1.1-3.2c0.2,0,0.3,0.1,0.5,0.2    c0.2,0.1,0.5,0.3,0.9,0.5v0.7c-0.2,1.1-0.3,1.8-0.3,2.3c0.2,0.2,0.3,0.2,0.6,0.2h0.2c3.5-2.7,5.3-4.3,5.3-4.9c0-0.2,0-0.4-0.1-0.6    V18l0.1-0.2h-0.1l0.2-0.7c0-0.5-0.6-1.2-1.7-2.1c-1.2-0.8-1.8-1.4-2-1.7c-0.2-0.3-0.3-0.8-0.3-1.5c0.1-0.4,0.4-0.6,1-0.6    c0.5,0.1,1.2,0.4,1.8,0.9c0.2,0.4,0.8,1,1.6,1.7c1.3,1.2,2,2.4,2,3.8c0,1-0.5,2.1-1.5,3.5c-1.1,1-1.6,1.7-1.6,2l0.1,0.6    c0,0.8-1.8,1.6-5.4,2.5c-0.2,0.2-0.4,0.6-0.6,1.2c-0.5,1.3-0.7,2.3-0.7,3c0,0.3,0.1,0.7,0.2,1.3c0.2,0.5,0.5,0.9,0.9,1.2    c0.5,0.2,1.5,0.6,3.2,1c0.7,0.3,1.5,0.5,2.3,0.5V34c0.9,0,2.5,0.1,4.6,0.3c0.8-0.2,1.8-0.3,2.9-0.3h0.9c2.9,0,6.9-0.3,12-0.8    c0.5,0,0.7-0.3,0.7-0.8V32c-1.5-6.3-2.2-10.1-2.2-11.5c0-0.1,0.1-0.2,0.2-0.4c0.2-0.2,0.3-0.3,0.5-0.3l0.7,0.6    c0.3,1.3,0.6,2.6,0.9,3.7c0.3,1.2,0.6,2.1,0.9,2.7c1.2,3.8,1.8,5.8,1.8,5.9c0.3,0.4,0.5,0.7,0.5,1c0,1-0.5,1.5-1.4,1.5H120    c-0.6,0-1.9,0.2-3.8,0.7l-1-0.1c-0.7,0-1.5,0.1-2.4,0.3c-0.9,0.2-1.6,0.3-2.1,0.3c-0.5,0-1-0.1-1.7-0.3h-0.5    c-0.4,0.5-1.2,0.7-2.3,0.7L103.8,36.8z" fill="rgb(62,62,62)"></path>
	<path d="M127.8,45.8c-0.2,0-0.3,0-0.5-0.1c-0.5-0.3-0.7-0.7-0.7-1.2v-0.3c0.2-0.7,0.5-1,0.7-1c0.3,0,0.7-0.4,1.2-1.2    c2.9-3.7,5.9-7.9,8.9-12.8l0.8-0.6c0.5,0,0.9,0.1,1,0.2c0.1,0.1,0.2,0.2,0.2,0.3c0,0.2-0.1,0.4-0.2,0.7c-0.9,1.3-1.6,2.3-2,2.9    c-0.4,0.7-1,1.6-1.8,2.9l-0.7,1.3c-1.8,2.1-2.9,3.6-3.2,4.5c-0.3,0.8-1,1.7-2.1,2.5l-0.8,0.9C128.3,45.5,128,45.8,127.8,45.8z     M139.1,17c-0.3-0.5-0.5-0.9-0.5-1.2l0.1-1.5l-0.1-3.3l0.1-0.8c0-1.1,0.3-1.6,0.9-1.6c0.2,0,0.2,0.1,0.2,0.3c0.5,2,0.8,3.1,0.8,3.3    l0.5-0.2c1.2-1.2,2.4-1.8,3.8-1.8c2.1,0,3.2,0.7,3.2,2.1c0,0.6-0.5,1.4-1.4,2.4l-1.7,1.4c-0.2,0-0.3-0.1-0.3-0.3    c0-0.4,0.3-0.9,0.8-1.5l0.7-1.7c0-0.5-0.2-0.8-0.6-0.8c-0.2,0-0.5,0.1-0.8,0.3c-0.7,0-1.5,0.4-2.4,1.3c-0.9,0.8-1.4,1.6-1.5,2.2    c-0.1,0.6-0.5,1-1.4,1.3L139.1,17z M139.9,4.9c-0.4,0-0.8-0.3-1.2-1V3.6l2-1.2v0.2h0.7l0.7,0.1c0.2,0,0.7-0.2,1.6-0.5l1.6,0.6    c0,0.4-0.2,0.6-0.6,0.7c-1.2,0.5-2,0.8-2.5,0.8h-0.5c-0.3,0-0.8,0.2-1.4,0.5L139.9,4.9z M167.9,45.2c-0.6-0.5-3.8-1.8-9.4-3.9    c-3.3-1.4-6.7-2.6-10.1-3.8c-3.3-1.3-5.4-2.1-6.3-2.2c-0.9-0.2-1.4-0.6-1.6-1.2l-0.3-0.2c0.5-0.3,0.8-0.5,0.9-0.5    c0.5,0,1,0.1,1.7,0.3c1.9,0.3,3.2,0.6,3.8,0.8c1,0.5,2.4,1,4.3,1.5c2.5,0.8,4.2,1.4,5.3,2c3.5,1.5,7.1,2.9,10.7,4.1    c0.1,0.2,0.3,0.2,0.6,0.2c0.3,0,1,0.6,1.9,1.7l-0.3,0.8L167.9,45.2z M143.7,32c-0.1,0-0.2,0-0.3-0.1c-0.2-0.1-0.2-1.2-0.2-3.2    c0.2-1.1,0.3-2,0.3-2.9c-0.3-2.5-0.7-4.1-1-5.1l-0.1-1c0.2-0.3,0.5-0.8,0.7-1.4c0.5,0.5,0.9,0.8,1,0.9c0.5,2.1,1,4.5,1.3,7.1    c0,0.5,0,0.8-0.1,0.9v0.9c0.2,0,0.2,0,0.2-0.1c2.8-2.8,4.6-4.3,5.3-4.7c0.5,0,0.7,0.2,0.7,0.5l-0.1,0.3c-1.8,3.1-3.3,4.9-4.5,5.4    c-0.5,0.2-0.7,0.4-0.7,0.6c-0.3,0.5-0.9,1-1.8,1.4C144.1,31.8,143.9,32,143.7,32z" fill="rgb(62,62,62)"></path>
	<path d="M177.4,39.1c-0.5,0-0.7-0.2-0.7-0.7c0.5-1.8,1.3-3.8,2.3-6.2c-0.5-0.4-0.7-0.9-0.5-1.6c0.2-0.7,0.6-1.1,1.1-1.2    c0.5-0.1,1,0,1.5,0.1c0.2,0.3,0.3,0.6,0.3,0.8c0,0.5-0.8,2.5-2.3,6C178.4,38.2,177.8,39.1,177.4,39.1z" fill="rgb(62,62,62)"></path>
	<path d="M210.2,25.7c-0.2,0-0.4-0.1-0.4-0.2c0-0.2-0.2-0.3-0.6-0.5c-0.2-0.3-0.2-0.5-0.2-0.7l0.1-0.2c0.5-0.9,0.9-2.5,1.3-4.8    c0.2-1.7,0.5-3,0.7-3.8c0-0.4,0-0.6-0.1-0.7c-0.4,0-2.1,0.5-5.1,1.5c-0.8,0.4-2.2,0.8-4,1.4c-1.4,0.5-2.2,0.7-2.4,0.9    c-0.2,0.1-0.5,0.2-0.9,0.3c-0.7,0.2-1.1,0.5-1.3,0.8c-0.2,0.3-0.6,0.5-1.2,0.5c-0.4,0-0.7-0.2-0.8-0.5c-0.2-0.3-0.3-0.6-0.5-0.9    c0.5-0.8,1-1.3,1.5-1.4c7.7-2.3,12.3-3.6,13.9-4c0.7-0.2,1-0.6,1-1.1c0-0.5,0-1.2,0.1-2c0.1-0.8,0.5-1.2,1.3-1.2    c0.3,0,0.5,0.5,0.5,1.6c0,1,0.1,1.6,0.2,1.6l0.3-0.1c3.2-1.1,5.5-2.2,6.8-3.5c0.2-0.2,0.7-0.2,1.4-0.2c0,0.6,0,1-0.1,1.3    c-1.5,1.1-2.5,1.7-3,1.8c-2.1,1.1-3.4,1.6-3.9,1.7c-0.4,0-1,0.4-1.8,1.2V15c0,0.2-0.1,0.6-0.2,1c-0.2,0.5-0.2,0.8-0.2,1    c0,0.7-0.2,1.8-0.5,3.2l-0.2,0.9c0,0.2,0.2,0.3,0.6,0.3c0.4-0.1,1.1-0.3,2.1-0.8c1-0.5,1.7-0.7,2.1-0.7c0.8,0,1.3,0.2,1.3,0.7    c0,0.1-0.1,0.3-0.3,0.6c-3.2,1.7-5.1,2.8-5.5,3.2C211.2,25.3,210.6,25.7,210.2,25.7z M209.8,39.7l-0.1-0.8c-0.2-0.4-0.2-0.7-0.2-1    c0-0.6,0.1-1,0.3-1.3c0.2-0.2,0.4-1.2,0.6-3c0.2-2.2,0.3-4,0.6-5.3c0.2-0.8,0.7-1.3,1.3-1.3c0.3,0,0.5,0.2,0.5,0.6l-0.2,2.2    l0.2,1.5h0.3c1.6-0.5,2.6-0.8,3-0.8c1.8,0,2.8,0.8,3.2,2.3c0.1,0.2,0.1,0.3,0.1,0.5c0,0.2-0.2,0.7-0.6,1.6    c-0.4,0.8-0.6,1.3-0.6,1.4v0.1h0.3c0.8,0,1.9-0.2,3.2-0.5h0.5c0.5,0,0.9,0.1,1.3,0.3c-0.2,0.2-0.3,0.3-0.3,0.6    c-0.1,0.2-0.2,0.3-0.3,0.3c-0.8,0.5-1.7,0.8-2.4,1l-4.3,0.5c-2.7,0-4.5,0.3-5.3,0.8L209.8,39.7z M214,36.5c0.8,0,1.7-0.7,2.8-2.2    c0.2-0.5,0.3-0.8,0.3-0.9l-0.7-0.7c-0.6,0-1,0.1-1.2,0.3l-2.3,2.2l-0.6,1.2L214,36.5z" fill="rgb(62,62,62)"></path>
	<path d="M234.3,28.2l-1.5-0.6v-0.5c-0.4-0.2-0.6-0.5-0.7-0.9c-0.1-0.4-0.1-2.2-0.1-5.4c-0.1-3.6-0.2-5.6-0.3-6.1v-0.2    c0-0.1,0.1-0.3,0.2-0.6c0.1-0.3,0.3-0.5,0.6-0.5c0.2,0,0.6,0.1,1.2,0.3l0.7,0.3l1-0.1c0.8,0,1.6,0.2,2.4,0.5    c0.8,0.3,1.7,0.9,2.6,1.8c0.9,0.9,1.4,1.8,1.4,2.8c0,0.8-0.3,1.6-0.8,2.4c-0.1,0.2-0.1,0.3-0.1,0.6c0.7,0,1.3-0.2,2-0.7l1.2-0.2    l0.7-0.2l0.1,0.7c-0.3,0.1-0.6,0.2-0.8,0.4c-0.2,0.2-0.4,0.4-0.5,0.5c-2.1,1.2-3.8,2.3-4.9,3.1C237.7,25.8,236.3,26.7,234.3,28.2z     M234.9,19.7c0.2,0,0.6-0.1,1.3-0.3c0.7-0.2,1.4-0.3,2-0.3l0.9,0.1l0.1-0.2l-0.6-1c-0.9-1.1-1.9-1.6-2.9-1.6c-0.2,0-0.5,0-0.7,0.1    c-0.2,0.1-0.4,0.1-0.6,0.1v-0.1l-0.6-0.3v0.7l0.1,2.8c0.2,0.2,0.3,0.2,0.5,0.2H234.9z M234.2,25.4l1.3-0.1c0.2-0.2,0.2-0.3,0.2-0.5    c0-0.2-0.1-0.3-0.2-0.5c0-0.2,0.2-0.3,0.5-0.3c1,0,1.9-0.7,2.8-2c0.4-0.5,0.6-0.9,0.6-1.4v-0.3l-1.3,0.5c-0.8,0.4-1.4,0.6-1.7,0.7    c-1.4,0.2-2.1,1-2.3,2.6L234.2,25.4z M257.6,48.2c-0.8,0-1.3-0.1-1.7-0.2c-0.4-0.1-0.7-0.6-0.9-1.3v-0.2c0-0.1,0.1-0.2,0.2-0.5    s0.4-0.3,1-0.3h0.5c0.3,0,0.6-0.6,0.9-1.7c0.2-1.9,0.5-3.1,0.7-3.7c0.3-0.5,0.4-1.5,0.5-2.9c0-0.7,0.1-1.5,0.3-2.3l0.1-0.7    c0-0.5-0.4-0.9-1.3-1.2c-2.1,0-4.5-0.3-7.4-0.9c-3-0.9-4.5-1.5-4.5-1.7c0-0.2-0.1-0.4-0.2-0.5c0-0.8,0.2-1.3,0.6-1.3    c0.4,0,0.7-0.1,0.9-0.2c0.2,0,0.3,0.1,0.6,0.2c0.6,0.4,2.7,1,6.2,1.8c3.1,0.8,4.8,1.2,5.1,1.2c0.3,0,0.5-0.1,0.5-0.3    c0.6-4.9,1.2-8.3,1.6-10.2l-0.1-0.9c-0.6,0-1,0-1,0.1c-1.2,0.8-2.6,1.3-4.3,1.5c-0.4,0.2-0.7,0.3-0.9,0.3c-1.2,0.5-2.5,1-3.7,1.4    c-3,0.9-5,1.4-6,1.4l-1.3-0.1c-0.7-0.3-1-0.7-1-1.2s0.5-0.9,1.5-1.4h1.5v0.2c1.9-0.5,3.4-0.9,4.5-1.3l3.1-0.5    c1.2-0.4,2.4-0.8,3.5-1.2c1.1-0.4,2.5-0.9,4.4-1.6c0.4-0.4,0.8-1.2,1.3-2.3c0.2-0.5,0.6-0.7,1.4-0.7c0.2,0,0.3,0.1,0.4,0.2    c0.1,0.1,0.2,0.2,0.2,0.4c0,0.1-0.1,0.2-0.2,0.4c-0.1,0.2-0.2,0.4-0.2,0.6l0.6,0.1l1-0.3c2.8-0.8,5-1.5,6.4-2.1    c0.8-0.2,1.3-0.3,1.6-0.3c0.5,0,0.9,0.2,1.2,0.7l0.1,0.2c0,0.1-0.2,0.3-0.5,0.7c-2.1,0.7-3.8,1.2-5.1,1.5c-0.2,0.1-0.5,0.2-0.9,0.5    c-0.4,0.2-0.8,0.5-1.3,0.7c-2.3,0.7-3.7,1.3-4.1,2l-1,7.5c-0.4,2.1-0.6,3.4-0.6,4c0,0.3,0,0.6,0.1,0.8c-0.2,0.5-0.4,1.1-0.5,1.8    c0,0.5,0,0.7-0.1,0.9c-0.1,0.1-0.5,2.5-1.3,7.1c-0.6,2.5-1,3.9-1.2,4c-0.2,0.2-0.3,0.3-0.3,0.5l0.1,0.3    C258.7,47.9,258.3,48.2,257.6,48.2z M255.3,11.6c-0.8,0-1.4-0.3-1.9-0.9c-0.5-0.6-0.7-1.3-0.7-2.1c0.2-0.5,0.3-1.5,0.5-2.8    c0.1-0.1,0.1-0.2,0.1-0.3l-0.1-0.6c-0.5,0-0.9,0.1-1.2,0.4c-0.2,0.3-0.4,0.4-0.6,0.4c-0.4,0-0.7-0.1-0.9-0.4    c-0.2-0.3-0.3-0.5-0.4-0.6V4.6c0-0.5,0.2-0.9,0.7-1c0.8-0.5,1.6-0.8,2.3-0.9c0.7-0.2,1.1-0.6,1.3-1.3c0.5-0.9,0.8-1.4,1.2-1.4    c0.2,0,0.5,0.3,0.9,0.9c0.1,0.4,0.2,0.6,0.2,0.6l0.2-0.1c0.5,0,0.9,0,1.2-0.1c0.8-0.6,1.7-0.9,2.8-0.9c0.2,0,0.2,0.1,0.3,0.2    c0,0.1,0.1,0.2,0.1,0.3c0,0.5-0.6,1-1.7,1.4c-0.2,0-0.9,0.4-2.3,1.3c-1.1,0-1.6,0.7-1.6,2.1L255,8.3c0,0.4,0.2,0.6,0.6,0.6    c0.6,0,1.8-0.3,3.7-0.9c0.9-0.3,1.5-0.5,1.8-0.5c0.4,0,0.7,0.3,0.9,0.8l0.1,0.3c0,0.3-0.4,0.6-1.2,0.8    C258.3,10.9,256.4,11.6,255.3,11.6z" fill="rgb(62,62,62)"></path>
	<path d="M291.7,33.8c-0.8,0-1.3-0.3-1.4-0.8c-0.1-0.5-0.3-1.2-0.5-1.8h0.2c0-0.3-0.1-0.8-0.3-1.6c0.4-0.6,0.6-1.9,0.6-3.8l-0.1-1    l-0.6-3.6l-0.3,0.2c-1,1.1-1.5,1.8-1.6,2.2c-0.3,0.5-1,1.8-2,3.9c-0.2,0.5-0.6,0.8-1.2,0.8c-0.2,0-0.4-0.1-0.6-0.2    c-0.2-0.2-0.4-0.2-0.6-0.2c0-0.4,0-0.6,0.1-0.6c0.5-1,1.7-2.9,3.5-5.6c0.7-1,1.4-2.2,2.1-3.6c1.5-2.6,3.2-5.1,4.9-7.6    c0.5,0.2,0.7,0.5,0.7,0.8l-0.5,2.2c-1.5,2.6-2.2,4.1-2.2,4.6v1.7l0.5,5.4l-0.1,5.8l0.1,1.4L291.7,33.8z M286.8,16.5l-1.3-1.5    c0.1-0.2,0.2-0.3,0.3-0.3c-0.2-0.5-0.3-1.1-0.3-1.6c0.3-0.1,0.5-0.3,0.5-0.6l-0.1-0.9c0.2-0.9,0.5-1.4,1-1.4c0.5,0,1,0.4,1.5,1.3    l0.1,0.2l-0.2,0.9c-0.3,0.8-0.5,1.4-0.5,1.7l0.1,0.7c0,0.3-0.2,0.6-0.5,1C287.1,16.3,286.9,16.5,286.8,16.5z M312.8,47.5    c-0.8,0-1.3-0.2-1.7-0.7c-0.4-0.5-0.6-0.9-0.6-1.2l0.1-0.7l0.6,0.1c0.3,0.2,0.6,0.2,0.8,0.2c0.2,0,0.3-0.3,0.3-0.8    c0.5-2.8,0.7-4.9,0.8-6.3c0-2.3,0.1-3.7,0.2-4.1c0.1-0.4,0.2-0.8,0.2-1.2l-0.1-1.8c0-0.9,0.1-1.9,0.2-3l0.2-3.7    c0-1.9,0.1-3.1,0.2-3.6v-3.1l-0.6,0.1l-2.9,1c-0.4,0.1-0.7,0.2-0.8,0.3c-0.6,0.4-1.6,0.7-2.9,0.9c-0.8,0.2-1.6,0.5-2.5,1l-2.3,0.6    c-1.5,0.7-3.1,1-4.8,1c-0.3,0-0.6-0.3-0.8-0.8v-0.1l0.3-0.6l2.5-0.7c0.2-0.2,0.7-0.3,1.3-0.5c1.3-0.2,5.6-1.6,13-4.4    c0.7-0.2,1.1-0.7,1.3-1.4c0-0.2,0.2-0.6,0.7-1c0.2-0.2,0.4-0.2,0.5-0.2c0.2,0,0.3,0.3,0.3,0.8c0,0.1,0,0.2,0.1,0.2    c0.1,0.1,0.2,0.1,0.3,0.1c0.8-0.2,2-0.7,3.3-1.4c1.4-0.7,2.1-1.1,2.3-1.1c0.2,0,0.4,0.2,0.7,0.5c-0.3,0.8-0.7,1.2-1.3,1.4    c-1,0.6-1.7,1-2.1,1.3c-0.4,0.2-0.9,0.5-1.6,0.8c-1,0.5-1.6,0.8-1.7,1c-0.2,0.2-0.3,0.7-0.4,1.4c-0.1,0.7-0.2,1.8-0.2,3.3    c-0.2,1.1-0.2,2-0.2,2.6c0,0.6,0,1.2,0.1,1.6c0.1,0.2,0.1,0.3,0.1,0.6c0,0.2-0.1,0.7-0.2,1.3c-0.1,0.7-0.2,1.2-0.2,1.8l-0.5,9.1    c0,0.8-0.2,2.8-0.7,5.9c-0.3,2-0.6,3.1-0.7,3.2C313.4,47.5,313.2,47.5,312.8,47.5z M307,11.2c-1.2,0-2-0.8-2.2-2.5    c0.2-2,0.3-3.3,0.6-4l-0.1-0.1c-0.2,0-0.5,0.2-0.9,0.5c-0.9,0.5-1.5,0.7-1.7,0.7c-0.6,0-0.9-0.3-0.9-1c0-0.6,0.1-0.9,0.3-0.9    c1.9-0.8,3.9-1.6,6-2.3v0.2l0.6-0.2c0.8-0.2,1.3-0.5,1.7-0.7l0.2-0.1c0.2,0,0.5,0.2,0.9,0.6l0.1,0.3c0,0.2-0.2,0.4-0.6,0.6    c-2.2,1.3-3.3,2.1-3.3,2.5c0,0.8-0.2,1.6-0.5,2.2l-0.1,0.6c0,0.7,0.4,1,1.3,1l2.4-0.2c0.2,0,0.4,0.1,0.6,0.2    c0.2,0.2,0.2,0.3,0.2,0.5c0,0.5-0.1,0.7-0.4,0.9c-0.3,0.1-0.8,0.3-1.7,0.5c-0.3,0.1-0.5,0.2-0.6,0.3C308.3,11,307.6,11.2,307,11.2z     M310.2,32h-0.5c-3.6-0.5-5.4-1.1-5.4-1.7v-0.7c0-0.5,0.4-0.8,1.2-0.8c3.4,1.2,5.1,2.1,5.1,2.8C310.6,31.8,310.5,32,310.2,32z" fill="rgb(62,62,62)"></path>
	<path d="M335.2,26.1l-0.9-0.9c0.1-0.2,0.2-0.4,0.5-0.7c0.2-0.3,0.5-0.5,0.7-0.6c4.2-1.5,6.5-2.3,6.8-2.6c0.2-0.2,0.5-0.2,0.7-0.2    l1,0.3v0.8l-2.8,1.8c-1.5,0.5-2.6,1-3.1,1.4L335.2,26.1z M336.5,21.3c-0.2,0-0.5-0.1-0.7-0.2c-0.5,0-0.7-0.3-0.7-1    c-0.1-0.1-0.1-0.2-0.1-0.3c0-0.2,0.2-0.4,0.6-0.6c3.1-1.1,4.8-1.6,4.8-1.7l-0.1-0.5c-0.3-0.8-1.1-1.4-2.4-2c-1-0.5-1.5-0.9-1.5-1.3    c0-0.8,0.3-1.3,0.9-1.3c0.5,0,0.9,0.1,1.3,0.2c2.1,1.7,3.3,2.6,3.5,2.8c0.2,0.2,0.2,0.3,0.2,0.4l-0.2,0.7c0,0.2,0.2,0.4,0.6,0.6    c0.1,0,0.3,0.2,0.7,0.6c-0.1,0.2-0.2,0.3-0.3,0.5c-0.2,0.2-0.3,0.3-0.6,0.3c-3.2,1.3-4.9,2.1-5.1,2.4    C337.1,21.2,336.9,21.3,336.5,21.3z M336.7,29.5H336l-1-0.1l0.3-1.2c0.6-0.5,1.2-0.8,1.7-0.9c1.2-0.2,3.3-1.1,6.3-2.5l0.9-0.1    c0.2,0.1,0.4,0.2,0.5,0.3c0.1,0.1,0.2,0.2,0.2,0.4c-1.5,1.5-2.3,2.2-2.4,2.2C340.4,28.4,338.5,29.1,336.7,29.5z M337.5,41.4    c-0.5,0-0.7-0.4-0.7-1.2c0-0.7,0.2-2.5,0.6-5.5V34c0-0.6,0.4-1.3,1.3-2.1c0.2,0.1,0.4,0.2,0.5,0.3c0.1,0.2,0.3,0.4,0.5,0.8    c0.2,0,0.2,0,0.2-0.1c1-0.7,2-1,2.9-1c0.5,0,0.9,0.2,1.4,0.6c0.5,0.4,0.8,0.8,1,1.3c0.2,0.5,0.3,0.8,0.3,1c0,0.5-0.4,1.3-1.3,2.3    c-1.5,1.5-3,2.6-4.4,3.2c-0.8,0.4-1.4,0.7-1.7,0.9C337.9,41.3,337.7,41.4,337.5,41.4z M340.1,37.1c0.2,0,0.3-0.1,0.3-0.2    c0.2,0,1-0.4,2.3-1.3c0.2-0.1,0.2-0.2,0.2-0.5c0-0.2-0.1-0.4-0.2-0.5c-0.2-0.1-0.3-0.2-0.5-0.2H342c-1.2,0.5-1.8,1.2-1.8,2.1    L340.1,37.1z M355.8,42.5c-0.9,0-1.4-0.3-1.4-0.8l0.9-3.3c0-1,0.1-1.5,0.3-1.6c-0.1-0.2-0.1-0.5-0.1-1c0.1-0.2,0.3-0.5,0.6-0.9    c0.3-0.3,0.5-0.6,0.5-0.9c0-0.2,0.2-0.7,0.5-1.3c0.3-0.7,0.6-1.4,0.9-2.1c0.4-1.3,2.3-6.6,5.8-15.8v-0.5c-0.2,0-1.1,0.6-2.9,1.7    c-0.4,0.5-2.3,1.5-5.6,3l-1.5-0.3c0.4-0.7,0.7-1.2,0.9-1.4c0.2-0.2,0.8-0.6,1.9-1c4.4-2.4,7.7-4.4,9.7-6.1l0.3-0.1    c0.1,0,0.2,0,0.4,0.1c0.2,0,0.4,0.1,0.6,0.3c0.6,0,0.9,0.1,0.9,0.3c-0.1,0.2-0.3,0.5-0.7,0.9c-0.1,0-0.1,0.1-0.1,0.3    c-0.2,0.6-0.5,1-0.7,1c-0.4,0.5-0.8,1.3-1.3,2.4s-1,2.2-1.5,3.1c-0.2,1.2-0.7,2.7-1.4,4.6c-0.4,1.2-0.6,1.8-0.6,2.1    c0,0.1,0,0.1,0.1,0.1c0,0,0.1,0,0.1,0.1l1-0.5c0.5-0.5,1.4-0.8,2.6-1c0.3,0,0.9-0.1,1.8-0.3l1.2-0.1c2.1,0,3.5,0.7,4.1,2.1    c0.4,0.8,0.6,1.3,0.6,1.6c0,3.3-0.7,6.9-2,10.9c-0.8,0.8-1.2,1.2-1.3,1.2c-0.4,0-1.7-0.8-3.8-2.3c-3.5-1.8-5.9-3.2-7-4l-0.5,0.2    c-1.3,2.8-2.1,5.2-2.3,7.4C356.7,41.8,356.3,42.5,355.8,42.5z M362.4,11.6h-0.2c-0.1,0-0.3-0.2-0.6-0.5c-0.3-0.3-0.5-0.6-0.5-0.9    c0-0.2-0.2-0.4-0.5-0.5c-0.3-0.1-0.7-0.3-1.3-0.7c-0.5-0.3-1-0.7-1.4-0.9c-0.4-0.3-0.6-0.6-0.6-0.9c0-1.1,0.5-1.6,1.4-1.6    c0.5,0,0.7,0.2,0.8,0.6c2.1,1.4,3.5,2.7,4,3.9v0.1C363.5,10.9,363.2,11.4,362.4,11.6z M370,35.7c0.2,0,0.3-0.2,0.5-0.7    c0.2-1.3,0.5-2.3,0.7-3l0.7-4.6c0-1.2-0.7-1.8-2.2-1.8c-0.3,0-0.5,0.1-0.7,0.2c-0.2,0.1-0.3,0.2-0.3,0.2l-0.2-0.1    c-0.3,0.2-0.7,0.2-1.3,0.2h-0.6c-0.6,0-1.1,0.2-1.4,0.7h-0.3c-0.2,0.2-0.6,0.3-1,0.5c-0.2,0.1-0.3,0.2-0.3,0.2    c-0.1,0.1-0.2,0.2-0.3,0.3l-0.2-0.5l-1.8,1c-0.3,0.4-0.5,1.2-0.7,2.5l-0.1,0.5l0.2,0.1C366.3,34.3,369.5,35.7,370,35.7z" fill="rgb(62,62,62)"></path>
	<path d="M13.1,93.1c-0.3-0.2-0.6-0.2-0.9-0.3c-0.3,0-0.5-0.2-0.7-0.3c-0.2-0.2-0.3-0.3-0.4-0.3c-0.1,0-0.2,0.1-0.3,0.2    c-0.1,0.1-0.2,0.2-0.4,0.2c-0.3,0-0.6-0.1-0.8-0.2c-0.4-0.4-1-0.6-2-0.6c-2,0.5-3.5,0.7-4.5,0.7c-0.4,0.4-1,0.6-2,0.6    c-0.2-0.1-0.5-0.1-0.8-0.2c-0.3,0-0.5-0.4-0.5-1c0-0.3,0.1-0.6,0.3-0.9c0.8-0.4,1.4-0.6,1.6-0.6c0.7,0,2-0.2,3.8-0.5    c3.6-0.3,5.5-0.5,5.8-0.7c0.2-0.2,0.7-1.9,1.4-5.2c0-0.4-0.2-0.6-0.5-0.6l-1.7,0.2c-0.6,0-1-0.3-1-1c0-0.7,0.5-1,1.4-1l2.1,0.3    c0.3,0,0.5-0.1,0.7-0.3l1.7-7.1c0.2-0.1,0.2-0.3,0.2-0.7h-1c-1.2,0.4-2.3,0.7-3.3,0.8c-0.6,0-1-0.1-1-0.3c-0.1-0.2-0.1-0.4-0.1-0.5    c0-0.2,0-0.4,0.1-0.7c0.1-0.3,2.1-0.8,6-1.4c0.5,0,1-0.3,1.5-0.9c0.5-0.6,1.1-0.9,1.6-0.9c0.3,0,0.7,0.2,1.1,0.6    c0.4,0.4,0.6,0.7,0.6,0.9c0,0.2-0.1,0.4-0.3,0.5c-0.9,0.2-1.6,0.6-2,1.2c-0.4,0.5-0.9,1.3-1.3,2.2c-1.2,3.2-1.9,5.4-2.2,6.7    c0,0.5,0.3,0.7,0.9,0.7h0.6c0.2,0,0.8,0.2,1.8,0.6c0.6,0.2,0.9,0.5,0.9,0.8l-0.2,0.6c-0.7,1.4-1.7,2.4-2.9,3l-0.7,0.9    c0.2,0.1,0.5,0.1,0.9,0.1l0.1,0.1l5.6-0.7c3.8-0.3,7.7-0.7,11.5-1.2c0.2,0,0.5,0.2,0.9,0.5c0.3,0.3,0.5,0.6,0.5,0.8    c0,0.3-0.7,0.5-2.2,0.5s-3.5,0.3-5.9,1l-12.3,1.3c-0.5,0-1,0.3-1.5,0.8c-0.2,0.2-0.4,0.3-0.6,0.5L13.1,93.1z M13.5,108    c-0.9,0-1.4-0.3-1.4-1l0.1-0.3c0.2-0.3,0.2-0.6,0.3-0.7c0-0.2,0.1-0.6,0.1-1.3c0-0.7,0.1-1.2,0.3-1.6c0.2-0.3,0.5-1,0.7-2    c0.2-1.5,0.7-2.5,1.3-3.1l0.7-0.1c0.2,0.5,0.6,0.8,1.3,1.2c0.5,0.1,0.8,0.2,1,0.3c1.4,1,2.1,2,2.1,3.1l-0.1,1.4    c0,0.4,0.3,0.6,0.9,0.6c1.4,0,2.3,0.2,2.8,0.6l0.1,0.3c0,0.2-0.4,0.7-1.2,1.5l-3.8-0.2l-3.1,0.1c-0.4,0-0.8,0.4-1.3,1.2    C14,107.9,13.8,108,13.5,108z M14.3,87.2c0.3,0,1.2-0.7,2.6-2.2l0.1-0.3c-0.1-0.3-0.7-0.5-1.8-0.5c-0.3,0-0.7,0.9-1,2.8L14.3,87.2z     M15.9,104.2c1.3-0.4,2-1,2-1.8c0-0.7-0.3-1-1-1c-0.8,0-1.2,0.2-1.3,0.7c0,0.1-0.1,0.3-0.2,0.7c-0.2,0.4-0.2,0.7-0.2,0.9    c0,0.4,0.2,0.6,0.6,0.6H15.9z" fill="rgb(62,62,62)"></path>
	<path d="M43.2,105.5c-0.3-0.5-0.5-1-0.5-1.5h-0.1c0.8-3.6,1.8-7.1,3.1-10.5c2-3.8,4.3-8.2,6.8-13.2c1.2-1.9,1.8-3,1.8-3.1    c-0.4,0.2-1,0.2-1.7,0.2l-3.9,0.3c-0.6,0-0.9-0.3-0.9-0.9c0.1-0.6,0.4-0.9,0.9-0.9l5.3-0.7c1.2-0.1,2.7-1.4,4.5-3.9l2.5-3.2    c0.7-0.6,1.4-0.9,2.2-0.9c0.5,0,1.2,0.2,1.8,0.6c0.7,0.4,1,1,1,1.7c0,0.7-0.3,1.3-0.9,1.8c-0.2,1-1.1,1.8-2.5,2.5    c-2.2,1.4-3.7,2.1-4.4,2.2c-0.7,0.1-1.3,0.7-2,1.8c-0.2,0.5-0.8,1.7-1.8,3.3c-1.8,2.6-3,4.5-3.6,5.8c-0.6,1.3-1.2,2.3-1.6,3    c-0.2,1.1-1.1,3-2.6,5.6c-0.8,2.9-1.3,4.5-1.5,4.6l-0.1,0.9c-0.4,1.2-0.6,2.1-0.6,2.8l-0.1,0.9L43.2,105.5z M58.6,110.6    c-0.6-0.6-0.9-1.2-0.9-1.8v-0.9c0.2-1.8,0.4-4.1,0.5-7s0.3-5.3,0.5-7.3c0.3-3.9,0.6-6.4,0.8-7.6c0-0.5,0.3-0.8,0.8-0.8    c0.5,0,0.8,0.7,0.8,2.1c0,0.5-0.1,1-0.2,1.3v0.6l0.2,0.1v-0.1c0.2-0.6,0.4-1,0.8-1.2c0.6-0.3,1.5-0.5,2.5-0.5c1,0,1.7,0.3,2.1,1    c0.8,0.9,1.5,2,1.8,3.1c0,0.5,0,0.8-0.1,0.8c0.4,0.5,0.6,0.9,0.7,1.1c0.1,0.2,0.2,0.4,0.2,0.6V95c0,1,0.1,1.5,0.2,1.6    c0.2,0,0.3,0.1,0.3,0.2l4.1-1c0.5,0,0.9,0.2,1.4,0.5L74.7,97c-1.6,0.6-3.1,1.3-4.6,2c-0.5,0.3-0.8,1.9-0.8,4.8    c-0.1,1.3-0.1,2-0.2,2.1c0,0.1-0.2,0.8-0.5,2c-0.3,0.7-1,1-2,1c-0.2,0-0.4,0-0.6-0.1c-0.3-0.1-0.5-0.2-0.6-0.5    c-0.1-0.3-0.2-0.5-0.2-0.6c0-0.2,0.3-0.4,0.8-0.5c0.9-0.5,1.4-2.4,1.4-5.5c0-0.9,0-1.4-0.1-1.5c-0.9,0-2,0.4-3.1,1.2    c-0.5,0.3-1.4,0.6-2.6,0.9c-1.4,0.6-2.1,1.5-2.1,2.8c0,0.3,0.1,0.6,0.3,0.8c-0.2,0.3-0.2,0.7-0.2,1l0.2,1.8c0,0.3,0,0.5-0.1,0.7    C59.7,109.6,59.3,110,58.6,110.6z M59.4,73.5l0.9-0.5c2.5-0.9,3.8-2,3.8-3.2c-0.1-0.1-0.3-0.2-0.7-0.5c-0.7,0-1.5,0.6-2.5,1.7    c-1,1.1-1.5,1.9-1.5,2.4V73.5z M60.7,100.5l6.7-3.1c0-0.2-0.1-0.5-0.2-0.9V96c-0.2-0.3-0.3-0.5-0.3-0.5l-0.5,0.2    c-0.5,0.1-0.8,0.2-0.9,0.3c-0.8,0.5-1.9,1-3.2,1.5c-0.8,0.1-1.3,0.2-1.5,0.4c-0.2,0.2-0.2,0.8-0.2,1.8c-0.2,0.2-0.2,0.3-0.2,0.6    c0,0.1,0,0.1,0.1,0.1H60.7z M61,95.4l2.6-0.8c1.1-0.4,1.9-0.7,2.4-0.8c0.5-0.2,0.7-0.3,0.7-0.5c0-0.8-0.6-1.9-1.8-3.2    c-0.2-0.3-0.4-0.5-0.7-0.5c-0.8,0-1.2,0.2-1.4,0.7c-0.1,0.9-0.7,1.5-1.8,1.8c0,0.2-0.1,0.2-0.2,0.2l-0.3,1.7    C60.4,95,60.6,95.4,61,95.4z" fill="rgb(62,62,62)"></path>
	<path d="M81.7,108.2c0-0.2-0.1-0.2-0.2-0.2s-0.2-0.5-0.3-1.5l0.5-0.9c1.8-1.4,4.4-3.5,7.7-6.4c1.4-1.2,2.1-1.7,2.3-1.7    c0.2,0,0.4,0,0.4,0.1c0,0.1,0.1,0.2,0.2,0.3c0,0.2-0.2,0.6-0.6,1c-1.4,1.8-2.8,3.2-4.1,4l-2.3,2.2    C84.4,106.2,83.2,107.2,81.7,108.2z M84.7,94.4l-0.3-0.7c0-0.5,0.1-0.9,0.2-1.2c0.1-0.3,0.4-0.4,1-0.4l3.3-0.7c0.2,0,0.5,0,0.7,0.1    c0.3,0.1,0.4,0.3,0.4,0.8l-0.1,0.2c-0.2,0.6-0.6,0.9-1.2,0.9h-0.2c-0.2,0-0.8,0.2-1.7,0.5C85.9,94.2,85.2,94.4,84.7,94.4z     M89.5,87.4c-1.5,0-2.8-0.2-3.9-0.6c-0.5-0.1-0.8-0.5-1-1.2v-0.3c0-0.5,0.4-0.8,1.3-0.8c0.2,0,0.7,0.1,1.6,0.4    c0.8,0.3,1.5,0.4,2,0.4c0.5,0,0.8,0.3,0.8,0.8C90.2,86.6,89.9,87,89.5,87.4z M96.1,79.4h-0.5c-0.4-0.4-0.6-0.7-0.6-0.9l0.1-0.8    l2.5-4c1.3-3.3,2-5.2,2-5.8c-0.1-0.1-0.2-0.1-0.2-0.1c-1.6,0.2-2.7,0.7-3.2,1.4c-0.2,0.1-0.3,0.3-0.3,0.8c0,1.2,0.1,2.3,0.3,3.3    c0,0.3-0.1,1-0.3,2l-0.7,0.5c-0.2,0-0.5-0.1-0.8-0.3l-0.6-1.8c0-2.7,0-4-0.1-4l-0.3,0.1c-0.8,0.5-2,0.8-3.8,1    c-0.5,0-1.2,0.1-2.2,0.3l-0.7,0.1c-0.5,0-0.9-0.3-1.2-0.8c0-0.8,0.3-1.3,0.8-1.4l7.4-1.7c0.5-0.3,0.7-1.3,0.7-3    c0-1.1,0.4-1.6,1.3-1.6c0.9,0,1.4,0.5,1.4,1.4c0,0.2-0.1,0.4-0.3,0.6c-0.2,0.2-0.3,0.6-0.3,1.2c-0.2,0.2-0.3,0.4-0.3,0.5l0.6,0.1    c0.2,0,0.4-0.1,0.6-0.2c0.2-0.2,0.6-0.3,1.3-0.4c0.7-0.1,1.5-0.4,2.5-0.9l4.8-1.3c1.5-1.1,2.4-1.6,2.9-1.6c0.6,0,1,0.1,1,0.3    c0.1,0.2,0.1,0.4,0.1,0.6c0,0.8-2.1,1.9-6.3,3.2c-1,0.3-1.5,1.1-1.5,2.3l-0.5,1.2c-0.3,0.2-0.5,0.6-0.5,1.1c0,0.5-0.2,0.7-0.7,0.7    c-0.2,0.2-0.3,0.3-0.3,0.5l0.1,0.2c0,1-0.5,2.1-1.6,3.2c-0.3,0.4-0.5,0.7-0.7,1L96.1,79.4z M112,116c-0.2,0-0.5-0.2-0.7-0.7    c-0.7-0.2-1-0.5-1-0.8c0-0.2,0.2-0.3,0.5-0.3c1-0.2,1.6-0.9,1.8-2.2l0.7-3.2l-0.1-0.3c-0.2,0-0.3,0-0.5,0.1    c-0.5,0.2-0.9,0.3-1.4,0.3s-0.9-0.1-1.3-0.3l-2.2-0.5c-0.4-0.2-0.7-0.5-0.9-0.9V107c0-0.1,0.1-0.3,0.4-0.6c0.3-0.3,0.6-0.5,0.9-0.5    c0.2,0,0.4,0.1,0.6,0.2c0.2,0.1,1.5,0.3,4.1,0.6c0.3,0,0.5,0,0.5-0.1c0.5-4.1,0.8-6.5,0.9-7.1l-0.1-0.5c-0.1-0.2-0.2-0.3-0.5-0.3    c-0.3,0-0.7,0.1-1,0.2c-2.5,0.7-5.2,1.5-7.9,2.4c-1.2,0.5-3.1,1-5.8,1.7c-0.6,0.1-1.4,0.4-2.3,1c-0.9,0.3-1.6,0.5-2,0.5    c-0.2,0-0.4,0-0.6,0c-0.2,0-0.4-0.3-0.5-0.9c0.3-0.8,1.6-1.4,4-2c5.2-1.8,9.2-3,12-3.7c1.8-0.7,3.1-1.1,3.9-1.3    c0.5-0.2,1.1-0.5,2-1.2c0.4-0.4,0.8-0.6,1.2-0.7c0.3,0,0.6,0.1,0.8,0.3c1.2,0,2.2-0.3,3-0.9c0.4-0.2,1.2-0.3,2.3-0.6l0.1-0.1    c0.2,0,0.4,0.2,0.6,0.6h0.2l-0.3,0.7c-0.8,0.8-1.6,1.2-2.2,1.3c-0.7,0.1-1.8,0.5-3.4,1.2c-0.5,0.3-0.9,0.6-1,0.8    c-0.5,0.9-0.8,3-0.8,6.3c0,0.7-0.1,1.7-0.4,3c-0.3,1.3-0.5,2.4-0.6,3.2c0,0.5,0,0.8-0.1,0.9c0,1.5-0.5,2.7-1.6,3.8    C112.6,115.9,112.2,116,112,116z M100.5,94c-0.4-0.4-0.6-0.7-0.6-1c0-0.5,0.2-1.5,0.5-2.8l0.1-1.5c0.2-0.3,0.3-0.9,0.5-1.7    c0.2-0.8,0.3-1.4,0.6-1.8s0.5-0.9,0.7-1.7c0.4-1.9,1.1-3,2.2-3.3c0.3,0.2,0.5,0.4,0.5,0.7c-0.7,1.4-1,2.1-1,2.3    c0.1,0,0.2,0,0.4-0.1c0.2-0.1,0.4-0.3,0.7-0.6c0.7-0.5,1-1,1-1.5l0.2-2.5c0-0.4,0-0.7-0.1-0.9l-0.2,0.2c-0.6,0.5-1.3,0.8-2,0.8    c-0.3,0-0.7,0.2-1.2,0.7c-0.5,0.1-0.9,0.3-1.3,0.7c-0.2,0.2-0.5,0.2-0.7,0.2c-0.2,0-0.4-0.1-0.6-0.3c-0.2-0.2-0.3-0.7-0.3-1.3    c0.2-0.7,2.2-1.7,6-3.1c0.5-0.1,0.8-0.5,1-1.2c0-0.8,0.4-1.3,1.2-1.3c0.5,0,0.8,0.2,1,0.5c0.2,0.3,0.4,0.5,0.5,0.5    c0.2,0,0.3-0.1,0.5-0.2c0.2,0,0.3-0.1,0.3-0.2c1.1,0,1.6,0.3,1.6,0.9c0,0.3-0.2,0.5-0.7,0.7l-1.8,1c-0.8,0.5-1.2,1.4-1.2,2.5v1.4    c0.1,0,0.3-0.1,0.7-0.3c1.4-0.5,2.3-0.8,2.6-0.8c1.8,0,2.9,0.8,3.5,2.4c0,0.4,0.1,0.9,0.3,1.6c0,1.5-0.3,3.1-0.8,4.9    c-0.8,3.1-1.9,4.7-3.5,4.7c-0.8,0-1.3-0.3-1.3-0.8c0-0.1,0-0.1,0-0.2c0,0,0.6-0.6,1.8-1.8c0.2-0.4,0.3-0.7,0.3-0.9    c0-0.5,0.2-1.3,0.7-2.2c0.2-0.8,0.4-1.8,0.5-2.9h0.1l-0.1-0.7c-0.2-1.3-0.8-2-1.7-2c-0.3,0-0.7,0.1-1.2,0.3c-0.5,0.2-1,0.5-1.6,0.9    c-0.6,0.3-0.9,0.8-0.9,1.3v1.3c0.2,0,0.4-0.1,0.5-0.2c0.8-0.2,1.2-0.4,1.4-0.5c0.2-0.1,0.4-0.2,0.6-0.2l1.4,0.1    c0,0.9-0.2,1.4-0.5,1.5c-0.6,0.5-1,1.1-1.1,1.8c-0.1,0.7-0.5,1.3-1.2,1.6c-0.7,0.3-1,0.8-1,1.3l0.1,0.7c0,1.1-0.4,1.6-1.2,1.6    c-0.2-0.1-0.3-0.1-0.4-0.2c-0.1,0-0.2-0.1-0.2-0.3c-0.2-0.5-0.4-0.7-0.5-0.8h-0.1c-0.2,0-0.5,0.1-0.9,0.2c-0.3,0.2-0.6,0.2-0.9,0.2    c-0.5,0-0.8-0.3-1-1c0-0.6,0.1-0.9,0.2-1c0.1,0,0.4-0.1,0.7-0.3c0.7-0.2,1.1-0.4,1.3-0.5c0.2-0.1,0.3-0.2,0.4-0.4l-0.2-0.1    l-0.1,0.1c-0.8,0.2-1.5,0.3-2.1,0.5c-0.7,0.2-1,0.4-1,0.7c0,0.8-0.1,1.8-0.2,3.2l-0.8,0.3L100.5,94z M105.3,86.2    c0.2,0,0.3,0,0.3-0.1c0.1-0.1,0.2-0.1,0.2-0.1l-0.5-0.2c-0.1,0-0.2,0-0.2,0.1C105.2,86.1,105.2,86.2,105.3,86.2z M108.4,87.6v0.1    c-0.1,0-0.1,0-0.1-0.1H108.4z M116.7,82.8c-0.3,0-0.5-0.2-0.5-0.7c-0.2-0.1-0.2-0.3-0.2-0.7h0.2c0-0.6,0.1-1.6,0.3-2.9l0.1-1.4    c0-0.7-0.1-1.3-0.3-2v-0.5c0-0.8,0.2-1.4,0.7-1.6c0.4,0,0.6,0.2,0.7,0.6c0.6,0.9,0.9,2.1,0.9,3.6c0,0.7-0.1,1.5-0.2,2.5l-0.1,0.3    c0.1,0.2,0.1,0.3,0.1,0.6c0,0.4-0.2,0.8-0.7,1.3C117.2,82.5,116.9,82.8,116.7,82.8z" fill="rgb(62,62,62)"></path>
	<path d="M130.2,105.4h-0.2c-1,0-1.5-0.2-1.5-0.6c0-0.5,0.5-1,1.4-1.7c1.1-1,1.9-1.6,2.4-2c1.2-0.8,3.4-2.6,6.6-5.4    c1.4-1.2,2.5-1.8,3.3-1.8c0,0.2-0.1,0.3-0.2,0.6c-0.3,0.5-0.5,0.8-0.7,0.9v0.1l-2,2.1c-0.8,0.6-2.2,1.9-4.1,3.9l-0.7,0.6    c-0.6,0.2-1.4,0.8-2.4,1.8C131.3,104.7,130.7,105.2,130.2,105.4z M129.8,95.8c-0.7,0-1-0.4-1-1.3c0-0.5,0.1-0.8,0.2-0.8    c0.4-0.2,0.9-0.4,1.6-0.5c0.7-0.1,1.5-0.2,2.6-0.3c1.2,0,1.8,0.3,2,0.9l-0.5,0.1c-0.6,0.4-1.8,0.9-3.7,1.5    C130.4,95.6,130.1,95.8,129.8,95.8z M134.1,88.3c-1-0.2-2.2-0.8-3.7-1.6l-1.2-0.5l-0.3-1l0.1-0.5c0.1-0.8,0.4-1.2,0.9-1.2    c0.9,0.4,1.8,0.9,2.6,1.6c0.8,0.7,1.5,1,2,1.2c0.5,0.1,0.7,0.6,0.7,1.3C135.2,88.1,134.8,88.3,134.1,88.3z M160.8,106.6    c-1.2,0-2.2-0.8-3-2.4c-0.3-0.9-0.6-1.4-0.9-1.4L156,103c-1.2,0.2-2,0.4-2.4,0.6c-0.3,0.2-0.7,0.4-1.2,0.7    c-0.5,0.3-0.9,0.5-1.4,0.5s-1-0.1-1.6-0.3c-0.6-0.2-1.1-0.3-1.6-0.3c-0.5,0-0.7-1.5-0.7-4.4c0-2.5,0.9-7.7,2.6-15.4    c0.7-3.3,1.5-5.6,2.5-6.8c0.6-1,1.2-1.8,1.8-2.5l0.1-0.6c-0.4,0-1,0.3-2,0.8c-0.4,0.1-0.7,0.2-0.9,0.4c-0.2,0.2-0.4,0.3-0.5,0.3    c-0.2,0-0.6-0.1-1-0.2c-0.4-0.2-0.6-0.4-0.6-0.8c0-0.2,0.1-0.5,0.4-1c0.3-0.5,1.5-1.1,3.7-1.7l4.1-0.9c0.4,0,0.8,0.2,1.3,0.6    l0.2,0.2l-0.2,0.6c-2,2.4-3.3,3.8-3.8,4.4c-0.2,0.3-0.4,0.7-0.5,1c-0.1,0.4-0.2,0.6-0.4,0.6c-0.5,0.4-0.8,0.8-1,1.2    c-0.2,0.4-0.6,1.8-1.2,4.3l-0.8,2.8l0.1,0.5c0.2-0.2,0.3-0.2,0.6-0.2c0.5-0.6,1.1-1,1.6-1.3c0.9-0.4,1.4-1,1.4-2v-4.7    c0-0.7,0.4-1,1.3-1c0.7,0,1,0.8,1,2.3c0,0.8-0.1,1.8-0.2,2.9c0,0.5,0.3,0.7,0.8,0.7c3.1-0.8,4.8-1.3,5.1-1.3c1.5,0,2.4,0.8,2.5,2.3    c0.5,1.5,0.8,2.8,0.8,4.1l-1,9.2c0,0.7,0.3,1,1,1h0.5c0.6,0,0.9,0.4,0.9,1.3c0,0.3-0.1,0.5-0.2,0.5c-0.5,0.3-1.3,0.5-2.4,0.5    c-0.5,0.1-0.8,0.5-0.9,1.2c-0.2,0.7-0.7,1.7-1.6,3.1C161.9,106.4,161.4,106.6,160.8,106.6z M150.4,102.3c0.3-0.2,0.9-0.5,1.8-0.7    c3-0.8,6-1.5,9.1-2c0.8-0.2,1.3-0.7,1.5-1.5c0.4-1.7,0.7-4.5,1-8.4c0-0.1,0-0.1-0.1-0.1v-1.2c-0.2-0.5-0.5-1.5-0.7-3    c0-0.3-0.1-0.5-0.3-0.5c-0.7,0.2-1.2,0.2-1.4,0.2c-0.3,0-0.4,0.1-0.4,0.2c0,0.2,0.1,0.4,0.2,0.7c0.2,0.3,0.2,0.8,0.2,1.5    c0,1.3-0.4,2.6-1.2,3.9c-0.5,0.6-0.8,1.1-0.9,1.5c-0.2,0.8-0.5,1.2-1,1.2l-0.3,0.5l0.5,0.1l1-0.2c0.5-0.2,1.3-0.5,2.4-0.7    c0.9,0,1.4,0.3,1.4,0.9c0,0.6-0.4,1-1.2,1.3c-0.8,0.2-1.4,0.5-2,0.7c-0.6,0.3-0.9,0.4-1.1,0.4c-0.5,0-1.2,0.2-2.2,0.6l-2.4,0.6v0.1    c-0.2,0.2-0.5,0.3-0.8,0.3c-1.1,0-1.6-0.3-1.6-1c0-1.1,0.3-1.6,0.8-1.6c0.5-0.2,0.8-0.7,0.8-1.3v-1c0-0.6,0.1-1.5,0.3-2.8    c0.2-0.8,0.2-1.6,0.2-2.4l-0.3-0.2l-0.1,0.1c-0.8,0.7-1.4,1-1.8,1c-0.3,0-0.6-0.1-0.8-0.3c-1.1,4.9-1.6,7.9-1.6,9.1    C149.4,101,149.7,102.3,150.4,102.3z M156.4,93.2c0.5,0,1.2-1,2.1-3c0.2-0.3,0.3-1.4,0.6-3.3c0.2-0.5,0.3-0.8,0.3-1    c-1.3,0.5-2,0.7-2.1,0.8c-0.1,0.1-0.5,2.1-1.1,6C156.2,93,156.3,93.2,156.4,93.2z M160.6,104c0.2,0,0.3-0.1,0.5-0.3l0.9-1.6h-0.1    l-1.3-0.1c-0.4,0-0.8,0.3-1.3,0.8C159.5,102.9,159.9,103.4,160.6,104z" fill="rgb(62,62,62)"></path>
	<path d="M175.5,104c-0.5,0-0.7-0.2-0.7-0.7c0.5-1.8,1.3-3.8,2.3-6.2c-0.5-0.4-0.7-0.9-0.5-1.6c0.2-0.7,0.6-1.1,1.1-1.2    c0.5-0.1,1,0,1.5,0.1c0.2,0.3,0.3,0.6,0.3,0.8c0,0.5-0.8,2.5-2.3,6C176.5,103.1,175.9,104,175.5,104z" fill="rgb(62,62,62)"></path>
	<path d="M196.9,92.7c-0.8,0-1.3-0.5-1.3-1.4c0-0.5-0.1-1.3-0.3-2.5c-0.3-2.5-0.7-4.5-1.3-5.9c0-1.2,0.2-1.7,0.7-1.7    c0.8,0,1.5,1,2.1,2.9l0.6,4.5c0,0.3,0.2,0.5,0.6,0.5c0.5,0,1.2-0.7,1.8-2.1c0.8,0,1.8-1,3.2-2.9c0.2-0.8,0.7-1.2,1.4-1.2    c0.2,0.5,0.5,0.8,0.7,1.2c-0.4,0.6-0.8,1.3-1.3,2.2c-0.5,0.8-2,2.5-4.4,4.9C198.3,92.2,197.5,92.7,196.9,92.7z M210.1,81.5h-0.5    c-0.8,0-1.5-0.4-2-1.2c-1.5-2.1-2.3-3.7-2.4-4.8l-0.1-0.3c0-0.4,0.3-0.6,1-0.6c0.7,0,1.2,0.3,1.4,1c0.2,0.7,0.7,1.5,1.3,2.4    c0.6,0.9,1.2,1.8,1.7,2.6l0.1,0.3C210.6,81.3,210.4,81.5,210.1,81.5z M234.3,103.4c-0.3,0-1.7-0.8-4-2.5c-0.6-0.5-3.5-2.3-8.7-5.4    l-3.6-2.8c-1.2-0.5-2.2-1.2-3.1-2l-0.5-0.1c-0.1,0-0.1,0-0.2,0.1c0,0.1-0.9,1.8-2.6,5.2c0,0.2,0,0.3-0.1,0.5    c-0.5,0.4-0.8,1.2-1,2.3c-0.2,0.8-0.6,1.3-1.3,1.3c-0.3,0-0.6-0.2-0.7-0.5c-0.2-0.3-0.3-0.5-0.3-0.7c0-0.5,0.2-1.1,0.6-1.6    c0.7-1.8,2.1-4.6,4.4-8.5c1.6-3.6,3.1-7.3,4.6-10.9c0.2-1.3,0.6-2,1.4-2c0.7,0,1,0.4,1,1.2c0,0.9-0.5,2-1.4,3.3    c0,0.4-0.3,1.2-0.8,2.4l-2.5,5.5v0.1c0,0.2,0.1,0.4,0.2,0.6c3.8,2.3,7.6,4.7,11.4,7.3c5.5,3.2,8.3,5.3,8.3,6.1    C235.4,103,235,103.4,234.3,103.4z" fill="rgb(62,62,62)"></path>
	<path d="M240.6,83.3c-0.2,0-0.5-0.2-0.8-0.5c-0.3-0.3-0.5-0.7-0.5-1v-0.2c0.2-0.5,0.6-0.8,1.2-0.9c1.1-0.1,2.2-0.5,3.5-1.2    c0.9-0.5,1.4-1.2,1.4-2.1c0-0.4-0.2-0.7-0.5-1.1c-0.3-0.3-0.8-0.8-1.4-1.3c-0.6-0.5-0.9-1-0.9-1.3c0-0.9,0.4-1.4,1.3-1.4    c0.2,0,0.5,0.1,0.8,0.3c0.3,0,0.5,0.2,0.5,0.5c1.1,1,1.9,1.9,2.4,2.6l0.3,1.5v0.9c0,0.5,0.1,1,0.3,1.3c0,0.9-1.2,1.7-3.6,2.4    c-0.2,0-0.3,0.1-0.6,0.2c-0.2,0.1-0.8,0.3-1.8,0.7C241.2,83.2,240.6,83.3,240.6,83.3z M241.5,93.9c-0.3,0-0.6,0-0.8-0.1    c-0.2-0.1-0.5-0.5-0.7-1.3c6.1-3.6,9.5-5.4,10.1-5.4l0.6,0.2h0.3c0.5,0.2,0.7,0.5,0.7,0.8c0,0.4-1,1-3.1,1.8    c-0.1,0.5-0.2,0.8-0.5,0.8l-0.7-0.1c-0.2,0-0.4,0.1-0.5,0.2c-0.1,0.2-0.2,0.3-0.3,0.5c-0.8,0.4-1.7,0.8-2.5,1.4    c-0.8,0.5-1.4,0.9-1.8,1C242,93.9,241.7,93.9,241.5,93.9z M241.1,88.3c-0.5,0-0.8-0.5-0.8-1.4c0-0.5,0.3-0.9,0.9-1.3l4.1-1.7    c2.2-1.2,3.5-1.8,3.8-1.8v0.6c0,0.2,0.1,0.3,0.2,0.4c0.1,0.1,0.2,0.2,0.2,0.4c0,0.3-1.6,1.5-4.7,3.5    C243,87.8,241.8,88.3,241.1,88.3z M241.1,93.2c-0.2,0-0.2,0,0-0.1V93.2z M243.2,106c-0.6,0-0.9-0.6-0.9-1.8l0.5-4.6    c0-1.8,0.1-3.3,0.3-4.5l0.6-0.7l0.2,0.1c0.5,0.2,0.8,0.5,0.8,0.8l0.1,1c0.5,0,0.7-0.1,0.8-0.2c0.7-0.5,1.3-0.7,1.8-0.7    c0.5,0,1,0.1,1.5,0.4c0.5,0.3,1,0.6,1.4,0.9c0.4,0.3,0.8,0.5,1.1,0.5c0.3,0,0.5,0.1,0.5,0.2l-0.3,0.6c-1,2-1.7,3.2-2.2,3.5    c-0.5,0.3-0.8,0.5-1,0.6c-0.2,0-0.4,0.1-0.5,0.2c-0.1,0.4-0.4,0.7-0.9,1c-0.5,0.3-0.8,0.5-0.9,0.7c-0.1,0.2-0.4,0.3-1,0.3    c0,0.1-0.1,0.2-0.2,0.3c-0.2,0.1-0.2,0.2-0.2,0.3v0.1C244.7,105.7,244.2,106,243.2,106z M245.7,101.3c0.5-0.5,1.1-1,1.8-1.4    c0.5-0.2,0.8-0.6,0.8-1.4c0-0.4-0.2-0.6-0.6-0.6c-0.7,0-1.4,0.5-2.2,1.6c-0.1,0.8-0.2,1.2-0.5,1.3l0.1,0.5H245.7z M264.4,107.6    c-0.6,0-1.1-0.2-1.4-0.5c-0.3-0.3-0.5-0.6-0.5-0.9c0-0.3,0.2-0.7,0.6-1l0.1-0.8c-0.2-1-0.2-2-0.2-3c0-1,0.1-2,0.2-3    c0.1-0.2,0.1-0.3,0.1-0.6l-0.1-1.5l0.1-1.3l-0.2-0.9V94c-0.4,0.4-0.7,0.8-0.9,1.4l-0.5,0.2c-0.2,0.3-0.9,1.5-2.2,3.7    c-1.3,1.3-2,2.1-2,2.5c-0.2,0.8-0.5,1.2-1.2,1.2h-0.2c-0.4,0-0.7-0.2-0.8-0.5c-0.2-0.3-0.2-0.6-0.2-0.7c0-0.2,0-0.4,0.1-0.6    c0.8-1.4,1.5-2.4,2.2-3.1c0.5-0.5,1-1.2,1.6-2.3c1.2-1.4,2.3-2.8,3.3-4.1v-0.1l-1.6,0.9c-1,0.6-2.3,1.2-3.9,1.7    c-0.2,0.5-1,1-2.2,1.5c-0.4,0.2-0.8,0.3-1.2,0.3l-0.9-0.3l0.2-0.6c0.1-0.7,1.1-1.6,3.1-2.6c0.5-0.3,0.7-0.7,0.7-1    c0-0.4,0.1-1.1,0.3-2.1l0.1-1.2l-0.1-1c0-0.5,0-0.8,0.1-1.2c0.5-0.5,0.7-1.3,0.7-2.6c0-0.2-0.1-0.4-0.2-0.6    c-0.2-0.2-0.2-0.3-0.2-0.6c0-0.3,0.2-0.7,0.5-1c0.2-0.6,0.3-2.5,0.5-5.6l-0.3-0.2l-2,0.7c-0.3,0-0.5-0.2-0.7-0.6    c0-0.8,0.2-1.3,0.6-1.5c1.3-0.8,2.6-1.5,4-2.3c1.3-0.8,2.2-1.2,2.6-1.2c0.9,0,1.4,0.3,1.4,0.8c-0.2,0.5-0.5,0.7-0.9,0.7    s-0.9,0.5-1.7,1.4c-0.1,0.3-0.2,0.5-0.3,0.5c-0.4,0-0.6,0.1-0.6,0.2c0,0.2-0.1,0.4-0.3,0.7v2.2L260,77l1.4-1.3l1.8-0.6    c1.3,0,2,1,2,2.9h0.2V82c-0.2,1-0.2,2.8-0.2,5.4c0,0.6,0.2,1.3,0.7,2v0.1c0,0.2-0.1,0.5-0.3,1c0,0.1-0.1,0.3-0.2,0.6    c-0.2,0.3-0.2,1.4-0.2,3.3l-0.2,4.1l0.6,6.3c0,0.4-0.1,0.9-0.2,1.7C265,107.3,264.8,107.6,264.4,107.6z M263.1,88.5l0.2-4l-0.2-6.1    c0-0.5-0.1-0.7-0.3-0.7c-0.5,0-1.1,0.7-1.6,2c-0.2,0.4-0.2,0.7-0.2,0.9c0,0.5,0.3,1,0.8,1.5h0.2c0.4,0.2,0.6,0.5,0.6,0.7    c0,0.2-0.1,0.4-0.3,0.9c-0.2,0.4-0.5,0.6-0.8,0.6c-0.2,0-0.3-0.1-0.6-0.2c-0.2-0.2-0.4-0.2-0.5-0.2c-0.3,0.2-0.5,0.5-0.5,1    c0.1,0,0.4-0.1,0.9-0.3c0.5-0.2,0.9-0.3,1-0.3c0.5,0,0.9,0.5,1,1.5c0,0.3-0.2,0.5-0.5,0.5c-0.3,0-0.5,0-0.6,0.1l-0.2-0.1l-0.5,0.2    l-2,1.6c-0.2,0.6-0.3,1.5-0.3,2.8L263.1,88.5z M281,104c-0.9,0-1.5-0.4-1.8-1.3c-0.3-0.3-0.5-0.6-0.5-0.9c0-0.2,0-0.3,0.1-0.4    c0.1-0.1,0.1-0.2,0.1-0.3l-0.2-0.8l0.1-0.1v-0.5c0.7,0.4,1.2,0.8,1.4,1.4c0.3,0.5,0.6,0.8,1,0.8c0.1,0,0.4-0.5,1-1.6l-0.1-0.5    l0.6-3.8l-0.1-2.5c0-0.8,0-1.5,0.1-2.2l0.1-0.6c0-0.4-0.3-0.6-0.9-0.6c-1.2-0.5-3.1-0.8-5.5-1.2c-1,0-1.5-0.3-1.5-1    c0-1,0.4-1.5,1.2-1.5c2.4,0.2,4.4,0.7,6.1,1.3l0.3,0.1l0.5-0.2l0.5-8.4c0-0.4-0.2-0.7-0.5-0.8c-0.1,0-0.2,0-0.2,0.1    c-0.1,0.1-0.1,0.2-0.1,0.2v0.3l-0.1,0.2l-1.2,0.3c-1,0-1.6,0.3-1.8,1c-1.7,0.5-2.9,1.1-3.6,1.6h-0.3c-0.3,0-0.5-0.4-0.5-1.3    c0-0.5,1.3-1.4,4-2.6c2.6-1.2,4.1-2,4.3-2.3c0.2-0.3,0.4-1,0.4-1.8c0-0.9,0.4-1.4,1.2-1.4c0.5,0,0.8,0.2,0.8,0.7    c0,1.4,0.2,2.1,0.7,2.1c0.2,0,0.3-0.2,0.5-0.5c0.2-0.3,0.4-0.5,0.7-0.5c0.5,0,0.7,0.2,0.7,0.7s-0.7,1-2,1.7    c-0.8,0.2-1.3,3.8-1.3,10.6v3.1c-0.1,0.6-0.1,1.4-0.1,2.4l0.1,1.8c0,1.5-0.2,3.1-0.5,4.8c-0.2,0.4-0.2,0.7-0.2,1v0.6    c0,0.2-0.2,0.6-0.6,1.2l-0.6,0.3C282.4,103.7,281.6,104,281,104z" fill="rgb(62,62,62)"></path>
	<path d="M330.1,112.2c-0.6,0-1-0.3-1.3-1c-2.1-2.1-4.2-4.1-6.4-6.1c-1-0.7-1.9-1.4-2.6-2.2c-0.4-0.5-1.2-1.2-2.3-2    c-0.7-0.5-1.2-0.9-1.6-1.3c-0.4-0.4-1.2-1-2.5-2c-1.8-1.4-2.9-2.3-3.5-2.8c-0.6-0.5-1.1-0.8-1.6-0.9c-0.5,0-0.9,0.2-1.2,0.6    c-0.3,0.4-0.6,0.7-0.9,0.9c-0.3,0.2-0.8,0.6-1.3,1.4l-2.1,1.8c-0.4,0.8-1.2,1.5-2.3,2.3c-0.6,0.5-1.1,0.9-1.5,1.3    c-0.2,0.1-0.4,0.1-0.7,0.2c-0.3,0-0.7,0.1-1.2,0.3c-0.8-0.8-1.3-3-1.3-6.6c0-1,0-1.8,0.1-2.3c0.6-6.8,0.9-11.3,0.9-13.7l-0.1-2.8    l0.1-0.3c0-0.5-0.2-0.7-0.6-0.7c-0.4,0-0.6-0.3-0.6-0.9c0-1,0.5-1.7,1.5-2.2l1-0.3c0.3,0,0.5,0.1,0.6,0.3c0.1,0.2,0.2,0.3,0.5,0.3    c2.2,0,4.1-0.3,5.6-0.8c1.2-0.4,2.5-0.6,3.7-0.6c0.1,0,0.4,0.3,1,0.8c0.2,0.2,0.2,0.4,0.2,0.6c0,1-0.5,2.2-1.6,3.6    c-0.7,0.4-1,0.8-1,1.4l-0.1,0.2l-2.8,0.8c0,0.1-0.1,0.2-0.2,0.2c-0.2,0.1-0.2,0.2-0.2,0.2c-0.5,0.5-1,0.8-1.6,0.8h-0.6    c-1.1,0-1.9,0.7-2.4,2.2c-0.2,0.4-0.3,0.8-0.3,1.2c0.2,0,0.5-0.1,0.7-0.2c0.2-0.1,1.5-0.9,3.8-2.4c0.5-0.2,0.9-0.3,1-0.4    c0.2-0.1,0.3-0.2,0.5-0.2c0.2,0,0.4,0.2,0.8,0.5l-1.4,1.6c-0.8,1-2.3,2.1-4.3,3.2c-0.8,0.5-1.2,0.7-1.2,0.8    c-0.2,0.7-0.3,1.4-0.5,2.1c-0.2,0.7-0.2,3.4-0.2,7.9c0,1.7,0.2,2.5,0.5,2.5c0.3,0,1.6-1.1,4-3.2c1.5-2,2.6-3.2,3.1-3.6l0.2-0.3    l-0.5-0.2c-1-0.5-1.8-1.1-2.4-1.6c0.2-0.7,0.5-1.1,0.8-1.3c0.5,0,0.8,0,1.2,0.1c0.3,0.1,0.7,0.2,1.3,0.4c0.5,0.2,0.9,0.3,1.1,0.5    c0.2,0.1,0.4,0.2,0.5,0.2h0.1c1.5-1.5,2.9-3.2,4.4-5.1c0.9-1.4,1.6-2.1,2.1-2.1c0.8,0,1.2,0.5,1.2,1.4c-0.5,1.1-2.3,3.3-5.5,6.6    c-0.2,0.2-0.3,0.3-0.3,0.3c0,0.1,0.4,0.3,1.2,0.8c1.7,1.2,3.5,2.7,5.4,4.4c1.2,1.1,2.3,2,3.2,2.6l7.6,6.7c1.1,0.8,2.5,2.1,4.4,3.9    c0.2,0.2,0.2,0.6,0.2,1C331.4,111.9,330.9,112.2,330.1,112.2z M299.1,78.8c0.3,0,1.1-0.3,2.3-1c1.2-0.5,2.2-0.8,2.9-0.9    c0.7,0,1.6-0.6,2.5-1.6c0.3-0.3,0.5-0.6,0.7-0.8l-0.7-0.1l-0.7,0.1c-1.9,0.6-4.1,1.1-6.4,1.4c-0.5,0.1-0.8,0.4-0.8,1    c0.2,0.3,0.2,0.7,0.2,1.2l-0.1,0.6C299,78.8,299.1,78.8,299.1,78.8z M302.6,72.2c-0.4,0-0.6-0.2-0.6-0.5c0-1-0.5-2.3-1.5-3.9    c-0.2-0.3-0.2-0.5-0.2-0.7c0-0.9,0.5-1.4,1.5-1.4c0.8,0.4,1.6,2.1,2.6,5.1l-0.2,0.5l-1.4,0.8L302.6,72.2z" fill="rgb(62,62,62)"></path>
	<path d="M335.2,99.7c-0.5,0-0.8-0.2-0.8-0.7l0.1-0.8c1.3-2.8,2.7-5.1,4.1-6.9c0.3-0.4,1.9-3.3,4.7-8.9c1.3-2.7,2-4.4,2-5.1    c0-0.1-0.2-0.2-0.5-0.2c-0.2,0-0.4,0.1-0.6,0.2c-1.1,0.6-2.4,0.9-3.9,0.9l-0.9-0.2c0.1-0.4,0.2-0.8,0.5-1.4c0.8-0.3,2.8-0.8,6-1.5    c0.3-0.1,0.7-0.5,1-1.2c0.8-1.7,1.5-2.7,2.2-3.1c0.3,0.5,0.5,0.9,0.5,1.2c-0.1,0.3-0.2,0.7-0.5,1.2c-0.2,0.5-0.3,0.9-0.3,1.2    l0.3,0.1l0.2-0.1c1.2-0.2,2.3-0.5,3.3-0.9c0.7-0.5,1.2-0.7,1.5-0.7l0.2,0.1c0.2,0.1,0.3,0.2,0.5,0.3c0.1,0,0.1,0,0.1,0.1    c0,0.1-0.1,0.1-0.3,0.1c-1.6,1-3.8,2-6.4,2.9c-0.3,0.1-0.5,0.4-0.7,0.9c-2.8,6.4-5.6,12.2-8.6,17.3c-1.5,2.1-2.3,3.5-2.3,4.1    C336.5,99.4,336.1,99.7,335.2,99.7z M373.8,107c-0.9,0-1.9-0.5-3-1.5c-1.7-1-4.5-2.4-8.3-4.1l-8.4-3.8c-0.6-0.2-1.2-0.5-1.7-0.7    c-0.5-0.2-0.9-0.3-1.2-0.3c-0.5,0-1,0.3-1.5,1c-3.1,2.9-5.1,4.4-6,4.4c-0.2,0-0.5-0.1-0.9-0.2c-0.8-0.2-1.3-1.1-1.3-2.8    c0-2.1,0.5-3.7,1.4-4.5c1-0.9,1.7-1.3,2.1-1.3c1.2,0,2.8,0.4,4.9,1.2l0.6-0.2c1.7-2.7,2.5-4.2,2.5-4.6c0-0.3,0-0.7-0.1-1.2    c0-0.5-0.6-0.7-1.6-0.7l-2.3,0.1c-0.6,0-0.9-0.2-0.9-0.6c0-0.2,0.2-0.4,0.5-0.7c0.3-0.3,1.8-0.5,4.4-0.5c0.4,0.1,0.8,0.3,1.2,0.7    c0.4,0.4,0.6,0.8,0.6,1.2c0,0.4-0.1,0.9-0.3,1.6c-0.8,2.3-1.5,4-2.3,4.9l-0.1,0.1c0,0.1,0.1,0.2,0.3,0.3c2.2,0.8,3.9,1.5,4.9,2.1    c8.4,4,13.2,6.2,14.5,6.7c1,0.2,1.8,0.9,2.4,2.3C374.6,106.7,374.4,107,373.8,107z M343.9,100.1c0.2,0,1.9-1.3,4.9-3.9l0.2-0.1    c0-0.4-1.1-0.7-3.2-0.9c-0.6,0-1,0.2-1.3,0.5c-0.9,1.2-1.4,2.2-1.4,3C343.2,99.6,343.5,100.1,343.9,100.1z" fill="rgb(62,62,62)"></path>
</g></svg>