<svg xmlns="http://www.w3.org/2000/svg" x="0px" y="0px" viewBox="0 0 300 300" style="vertical-align: middle; max-width: 100%; width: 100%;" width="100%"><g>
	<g>
		<path d="M154.9,87.7c0-1.8-1.2-3.4-2.2-4.9c-3.4-4.6-6.8-9.2-10.1-13.8c-1.4-2-0.5-9.2,0.4-11.4     c0.4-1,0.9-1.9,1.8-2.4c1.2-0.7,2.7-0.5,4.1-0.9c6.9-1.9,1-9.4,2.8-13.4c0.2-0.6,0.1-1.2-0.5-1.4c-3.2-1.2-4.4-6.4-7.5-8.8     c-2.7-2-6.4-1.5-9.6-0.4c-6.4,2.3-19.4,12.2-12.7,20.2c1.5,1.8,3.6,2.9,5.6,4.1c2,1.2,4,2.6,5,4.7c1.2,2.5,0.8,5.5-0.4,8     c-1.2,2.5-3.2,4.5-5.1,6.5c-1,1-2,2-3,3l19.2,31.7c0.1-1.5,0.4-3,0.8-4.4c0.3-1.1,1.1-1.6,2-1.7c0.1-0.1,0.2-0.3,0.3-0.4     c3.1-2.8,5-6.6,7.5-10c0.8-1.1,1.7-2.4,1.8-3.8C154.9,88,154.9,87.8,154.9,87.7z" fill="rgb(247,212,191)"></path>
	</g>
	<g>
		<path d="M155,84.4c2.8,3.9,3,8.7,0.4,14.4c-2.7,6-4.8,11.2-5,17.9c-0.5,12.9,3.5,25.4,5.3,38     c0,13.2,3.9,27.5,5.8,40.5c1.8,12.7,4.4,25.4,5.9,38.1c2.2,18.8,0.6,37.3,6,55.7c1.3,4.3-74.3,3.6-80.4,3.3     c-6.1-0.3-12.1,0.9-18.1,1.2c-7.3,0.4-14.6-0.5-21.9-1.3c25.4-6,35.9-40.9,41.4-62.7c7.2-29.1,8.3-60.6,20.9-88.1     c2.2-4.8,4.8-9.6,6.2-14.7c1.5-5.7,1.5-11.8,1.4-17.7c0-5-0.1-10,0-14.9c0.1-6.3,0-12.2,2.3-18.2c0.4-1.1,0.9-2.3,1.8-3.1     c4.2-3.8,17.1,4,20.8,5.9C151,80.2,153.4,82.1,155,84.4z" fill="rgb(247,245,233)"></path>
	</g>
	<g>
		<path d="M139.9,29.6c2.9,0.8,5.5,2.6,7.2,5.1c-0.7-3.7-3.6-7-7.3-8.1c-2.2-0.7-4.5-0.6-6.8-0.1c-17.7,3.9-17.3,22.2-10.1,34.8     c-1.9,0.7-3.7,1.6-5,3.2c-1.2,1.6-1.7,3.8-0.8,5.6c0.8,1.5,2.5,2.6,2.7,4.3c0.2,2-1.9,3.4-3.5,4.5s-3.5,3-2.6,4.9     c2.1,4.4,1.2,5-2.3,8.1c-0.2,0.2-0.4,0.3-0.5,0.6c-0.4,1,1.3,1.4,2.3,1.1c3.2-1.2,5.8-4,6.7-7.3c3.1-0.2,6-2.3,7.1-5.1     c1.1-2.9,0.5-6.4-1.7-8.6c2.8-0.3,4.9-3.1,5.1-5.9c0.4-5-2.1-5.5,0.1-9.8c1.3-2.4,4-5,5.6-7.3C140.3,43.6,143.3,36.6,139.9,29.6z" fill="#000000"></path>
	</g>
	<g>
		<path d="M143.3,121.1c4.5,7.5,10.5,14.6,15.6,21.5c1.6,2.1,3.2,4.6,2.5,7c-0.8,1.1-2.6,1.3-4,0.8     s-2.3-1.6-3.2-2.7c-4.6-5.4-9.3-10.8-13.9-16.2c-5.4-6.4-11.3-13.4-13-21.4c-1.1-5.3-1-10.8-0.8-16.2c0.1-2.1,0.1-4.2,0.2-6.3     c0.1-2.4,0.2-4.8,1.3-7c2.9-5.3,8.5-3.9,9.7,1.3c2,9-0.8,16.8,0.4,25.7c0.2,1.7,0.5,3.5,1.1,5.1     C140.3,115.6,141.7,118.4,143.3,121.1z" fill="rgb(247,212,191)"></path>
	</g>
	<g>
		<path d="M153.6,26.8c-3.2-0.5-5.3-4-5-7.3c0.3-3.2,2.7-6,5.5-7.5c1-0.6,2.1-1,3.3-1.1     c3-0.2,5.6,1.8,7.9,3.7c1.1,0.9,2.3,2.3,1.5,3.5c-0.1,0.3-0.4,0.5-0.6,0.7c-3.9,3.6-8.2,7.4-13.5,8.1" fill="rgb(52,54,60)"></path>
	</g>
	<g>
		<path d="M165.9,13.4c-3.7-1.9-8.5,0.2-10.5,3.8s-1.9,8-0.8,12c0.5,1.6,1.1,3.2,1,4.9c0,1.1-0.4,2.3-1.1,3.1     c-0.4,0.5-0.3,1.3,0.3,1.6c3.2,2.2,3.4,8.5,7.3,10.4c4.8,2.3,7.2-4,10.8-3.6c0.5,0.1,1.1,0.5,1.5,0.9c1.4,1.7,1.8,4,2.5,6.2     c0.7,2.3,1.8,4.6,3.2,6.6c0.3,0.5,0.7,1,1.2,1.2c0.5,0.2,1.1,0.2,1.6,0.2c3.9-0.3,8.1-2.5,10.3-5.8c2.3-3.5-1.8-8.7-3.9-12     c-1-1.6-2.1-3.2-3-4.9c-2.7-5.3-3.8-12.8-2.1-18.5c-4.4-6-12-7.1-18.9-6.8" fill="rgb(247,212,191)"></path>
	</g>
	<g>
		<path d="M167.9,82.9c-4.1,23.4-2.6,47.9,5.3,70.2c12-2.2,23.9-4.6,35.8-7.2c-3.6-13.1-7-26.6-6.1-40.1     c0.2-3,0.6-5.9,0.8-8.8c0.5-6.3,0.4-12.7,0.3-19.1c-0.1-5.6-0.3-11.3-2.3-16.5c-1.3-3.5-3.5-6.6-5.6-9.7c-2.5-3.7-5.1-7.3-7.6-11     c-4,2.6-7.2,6-10.4,9.6c-2.9,3.4-4.4,8.9-5.6,13.3C170.7,70.1,169,76.4,167.9,82.9z" fill="rgb(62,62,62)"></path>
	</g>
	<g>
		<path d="M172.6,22.1c2.2,3.8,3.9,7.8,5.1,12c2.5-0.1,4.5-1.5,7-0.9c-1.5-3.5,1.5-10.7-2.1-13.3     c-2.5-1.7-7.3,0.8-9.8,1.3" fill="rgb(52,54,60)"></path>
	</g>
	<g>
		<path d="M165.8,28.2c-0.5,1.5-0.6,2.8-0.4,3.5c-1.1-3-5-8-8.4-7.1c-2.4,0.7-5.2-0.3-6.8-2.3     c-5.8-7.4,9-15,14.7-15.8c6.4-0.9,14.3,1.2,18.1,6.9c3.7,5.5,3.2,13.1-3.2,16.3c-2,1-5,0.4-5.6-1.8c-0.2-0.8-0.1-1.7-0.3-2.5     c-0.3-1.9-2.3-3.3-4.2-3C168.2,22.6,166.6,25.6,165.8,28.2z" fill="#000000"></path>
	</g>
	<g>
		<path d="M178.6,57.2c-1.2-1.7-2.5-3.3-3.7-5c0.8,1,11.7-12.7,12.8-12.2c0.2,0.1,0.3,0.2,0.4,0.4     c0.5,0.7,1.1,1.4,1.6,2c0.8,0.9-4,7.1-4.7,7.9c-2,2.5-4.3,4.7-6.8,6.7" fill="rgb(247,245,233)"></path>
	</g>
	<path d="M177,52.4c0,0-11.6,29.2-8,32.5c3.7,3.3,13.2-31.4,13.2-31.4L177,52.4z" fill="rgb(247,245,233)"></path>
	<g>
		<path d="M168.1,83.3c-5,23.2-2.8,48.4,5,70.5c12-2.2,23.9-4.7,35.8-7.2c-3.6-13.2-7-26.7-6.1-40.4     c0.2-3,0.6-5.9,0.8-8.9c0.5-6.4,0.4-12.8,0.3-19.2c-0.1-5.6-0.3-11.4-2.3-16.5c-0.9-2.4-13.2-21.3-13.1-21.5     c-1.3,1.5-2.5,3-3.7,4.7c-3.4,4.8-6.5,10-9.1,15.4C172.4,67.5,169.9,75.3,168.1,83.3z" fill="rgb(62,62,62)"></path>
	</g>
	<path d="M162.2,140.4c-0.5-0.4-0.9-0.7-1.1-1c0,0-0.1-0.1-0.1-0.1c-0.2,0-0.4,0.1-0.6,0.1    c-0.1,0.1-0.2,0.1-0.3,0.2c-3.3,1.4-5.4,4.4-8,6.8c0,0,0,0,0,0c0,0,0,0,0,0c-0.2,0.3-0.7,0.7-0.2,1.6c0.3,0.5,0.8,0.7,1,0.6    c0.3-0.1,0.4-0.2,0.4-0.2c0,0.1-0.6,0.4-0.9,0.6c-0.1,0-0.1,0.1-0.1,0.2c-0.2,0.3-0.2,0.7,0.2,1.3c0.6,0.8,1.3,0.8,1.7,0.5    c0.2-0.1,0.3-0.2,0.5-0.3c0.1-0.1,0.2-0.1,0.2-0.1s-0.2,0.7,0.2,1.2c0.4,0.4,1.1,0.6,1.4,0.4c0.3-0.1,0.7-0.4,1.2-0.7    c-0.1,0.1-0.1,0.1-0.1,0.2c-0.3,0.3,0.2,1.2,1.1,1.3c0.8,0,3-1.9,5.4-3.5c1.1-0.8,3.4-3.9,4.3-5.1    C166.7,143.7,163.9,141.8,162.2,140.4z" fill="rgb(247,212,191)"></path>
	<g>
		<path d="M168.5,127.9c-2.8,3.5-5.5,7-8,10.7c-0.1,0.2-0.3,0.4-0.2,0.6c0,0.2,0.1,0.3,0.2,0.5     c1.8,2.6,4.3,4.7,7.1,6.1c0.2,0.1,0.5,0.2,0.8,0.2c0.2-0.1,0.4-0.3,0.6-0.5c3.1-4.2,6.3-8.3,9.4-12.5" fill="rgb(255,255,255)"></path>
	</g>
	<g>
		<path d="M170,123.6c-3.4,4.2-6.7,8.6-9.7,13c-0.2,0.2-0.3,0.5-0.3,0.8c0,0.2,0.1,0.4,0.3,0.6     c2.2,3.1,5.2,5.7,8.6,7.4c0.3,0.1,0.6,0.3,0.9,0.2c0.3-0.1,0.5-0.3,0.7-0.6c3.8-5.1,7.7-10.2,11.5-15.2" fill="rgb(62,62,62)"></path>
	</g>
	<g>
		<path d="M201.3,289.4c1.2-3.5,2.1-10.5-0.4-13.8c-2.4-3.2-7.9-1.2-11.4-0.9c-0.6,0.1-1.3,0.1-1.9,0.5     c-1,0.7-1.1,2-1.4,3.1c-1,4.5-11.1,5.8-14.9,6.5c-1,0.2-2,0.3-2.9,0.8c-1.7,1-2.4,3.4-1.5,5.1c3.9,0.2,7.8,0.4,11.6,0.5     c4.3,0.2,9.2,0.2,12.1-3c-0.6,0.6-0.2,1.7,0.6,2.2c0.7,0.5,1.6,0.5,2.5,0.4c1.7,0,3.3-0.1,5-0.1c0.7,0,1.5-0.1,1.9-0.6     C201,290,201.2,289.7,201.3,289.4z" fill="rgb(62,62,62)"></path>
	</g>
	<g>
		<path d="M176.1,144.5c0.2,15.1,2,30.1,4.4,44.8c2.4,15.6,2,32.4,2.9,48.2c0.8,13.2,2.8,27.4,1.5,40.6     c6.4,0.2,12.8,0.4,19.1,0.5c-0.7-17.2-1.3-34.4-1.8-51.6c-0.4-14,0-28.1,0.5-42c0.6-14.9,2.7-29.7,2.3-44.6c0-0.5-0.1-1.1-0.4-1.5     c-0.4-0.5-1.1-0.5-1.7-0.4c-9.3,0.8-18.6,2.5-27.7,5.1" fill="rgb(62,62,62)"></path>
	</g>
	<circle cx="134.1" cy="50.4" r="2" fill="rgb(255,255,255)"></circle>
</g></svg>