<svg xmlns="http://www.w3.org/2000/svg" x="0px" y="0px" viewBox="0 0 164.6 17.7" style="vertical-align: middle; max-width: 100%; width: 100%;" width="100%"><g>
	<path d="M3,12.1H2.5c0-0.1,0.2-0.5,0.5-1.2c0-0.1-0.1-0.2-0.2-0.3c-0.3-0.1-0.6-0.3-0.8-0.5c-0.1,0-0.3,0-0.4-0.2    c0.1-0.1,0.1-0.2,0.1-0.3c0,0,0-0.1,0-0.2c0-0.4-0.1-0.7-0.3-0.7C1.5,8.9,1.3,9,1.1,9.2C0.9,9.3,0.6,9.4,0.4,9.5    C0.2,9.5,0.1,9.4,0,9c0-0.3,0.1-0.4,0.3-0.5c0.2-0.1,0.4-0.2,0.8-0.3C1.4,8.1,1.6,8,1.6,7.9L1.3,6.2c0-0.4,0.1-0.6,0.4-0.6    c0.1,0,0.3,0.1,0.4,0.3c0.1,0.2,0.2,0.5,0.3,1s0.1,0.7,0.2,0.7c0.1,0,0.1,0,0.1,0.1l1.1-0.4C3.8,7.2,3.8,7,3.8,6.5V6.4    c0-0.5,0.1-0.7,0.2-0.8h0.4c0.2,0,0.4,0.2,0.4,0.7c0,0,0.1,0.1,0.1,0.3c0.1,0,0.2-0.1,0.4-0.2c0.1,0,0.2-0.1,0.3-0.2l0.5,0.1    L5.7,6.7C5,7.3,4.6,7.6,4.6,7.8l-0.2,1c0,0.1,0.2,0.2,0.5,0.3c0,0.3,0,0.5-0.1,0.6C4.5,9.8,4.2,10.3,4,11C3.7,11.8,3.4,12.1,3,12.1    z M3.1,9.7c0.2,0,0.3-0.1,0.4-0.2c0.1-0.1,0.1-0.3,0.1-0.4l0-1c-0.7,0.2-1,0.4-1,0.7c0,0.1,0,0.2,0,0.4s0.1,0.3,0.2,0.3    C2.9,9.5,2.9,9.6,3,9.6C3,9.6,3.1,9.7,3.1,9.7z M9.1,16.2l-1.5-0.8v-0.2c0-0.2-0.1-0.4-0.2-0.6c-0.2-0.2-0.2-0.4-0.2-0.6v-0.2    c0-0.2-0.1-0.3-0.3-0.5c-0.1-0.1-0.3-0.2-0.7-0.2l0-0.1C6,13,5.9,12.9,5.9,12.8c0.1-0.4,0.2-0.6,0.4-0.7l1.3-0.6    c0.7-0.4,1.4-0.8,2.2-1.3c0.9-0.3,1.4-0.5,1.5-0.6c0.1,0,0.1-0.1,0.2-0.1c0,0,0-0.1,0-0.1l0,0c-0.1-1-0.5-1.6-1.2-1.8s-1-0.5-1-0.7    c0-0.1,0.2-0.4,0.5-0.9C10.6,4.5,11,3.5,11,3.1c0-0.6-0.2-0.9-0.7-0.9l-0.3,0L9.9,2.2c0-0.2,0-0.4,0.2-0.4c0.2-0.2,0.5-0.4,0.8-0.4    c0.2,0,0.5,0.1,0.7,0.3C11.8,2.1,12,2.6,12,3.3c0,0.1,0,0.2-0.1,0.3c-0.1,0.7-0.6,1.6-1.6,2.7c-0.1,0-0.1,0.1-0.1,0.2    s0.4,0.4,1.2,0.9c0.4,0.4,0.7,1,0.8,1.8c0,0.1,0,0.1,0,0.1l4.9-1.7c1.3-0.3,2.7-0.7,4-1.1c1.3-0.4,2.1-0.6,2.4-0.7    c0.1-0.1,0.3-0.2,0.5-0.2c0.2,0,0.5,0.1,0.8,0.3v0.3l-0.5,0.2c-0.4,0-0.6,0-0.7,0.1c-0.9,0.3-1.9,0.6-2.8,0.8    c-0.3,0-0.5,0.1-0.7,0.3c-0.1,0.1-0.2,0.1-0.2,0.1h-0.2c-0.3,0-0.7,0.1-1.3,0.3c-0.4,0.1-0.7,0.2-1,0.3c-0.2,0.1-0.9,0.3-2.1,0.7    c-0.9,0.3-1.5,0.5-1.7,0.6c-0.2,0.1-0.4,0.2-0.5,0.2h-0.2c-0.1,0-0.2,0.1-0.3,0.2s-0.2,0.2-0.2,0.2c-0.2,0.1-0.3,0.3-0.3,0.6    c-0.4,1.2-0.8,2.4-1.3,3.6c-0.5,0.9-1,1.5-1.6,1.8L9.1,16.2z M9.1,15.3c0.3,0,0.9-1.1,1.9-3.2l0.3-1v-0.4l-0.4,0.1    c-0.9,0.4-1.5,0.8-2,1c-0.9,0.5-1.3,0.8-1.4,1c0,0.2,0.1,0.5,0.2,0.8c0.1,0.3,0.2,0.5,0.3,0.7C8.2,15,8.6,15.3,9.1,15.3z" fill="rgb(62,62,62)"></path>
	<path d="M39.8,16.1c-0.3-0.1-0.6-0.3-0.9-0.6c-0.4-0.5-0.8-0.8-1-1c-0.3-0.2-0.8-0.5-1.3-1.1c0-0.1-0.1-0.1-0.2-0.1l-0.8-0.7    l-0.2,0c-0.3-0.2-0.8-0.4-1.4-0.7c-0.3-0.3-0.4-0.5-0.5-0.5l-1.6-0.7c-0.1-0.1-0.2-0.2-0.5-0.2l-0.2-0.1c-0.9-0.5-1.4-0.8-1.6-0.8    c-0.3,0-0.5,0.1-0.7,0.4s-0.5,0.5-0.9,0.9c-0.2,0.2-0.3,0.3-0.3,0.3c-0.1,0.3-0.4,0.6-0.8,0.9c-0.1,0.1-0.4,0.4-0.7,0.8h-0.1    c-0.3,0.3-0.7,0.7-1.2,1.1c-0.2,0.3-0.4,0.5-0.5,0.5c-0.1,0-0.4-0.1-0.8-0.4c0.2-0.3,0.4-0.6,0.5-0.7c0.7-0.3,1-0.6,1.1-0.9    c0-0.1,0.1-0.2,0.2-0.3c0.3-0.2,0.8-0.6,1.4-1.3c0.9-0.9,1.4-1.5,1.5-1.8c0-0.1,0-0.1,0.1-0.1c0,0,0.1,0,0.1-0.1    c0.9-1.2,1.8-2.5,2.7-3.8c0-0.2,0-0.3-0.1-0.4s-0.1-0.1-0.2-0.1c-0.1,0-0.3,0-0.6,0.1c-0.6,0.3-1.3,0.6-1.9,1.1    c-0.2,0.3-0.4,0.4-0.8,0.4c-0.3,0-0.5-0.1-0.5-0.4c0-0.1,0-0.2,0.1-0.3l1.5-2.6c0.1-0.3,0.2-0.6,0.2-1c0-0.2,0.2-0.4,0.5-0.5l0.2,0    c0.2,0.2,0.3,0.3,0.3,0.5l-0.1,0.2c-0.4,0.8-0.6,1.3-0.6,1.6c0,0.2,0.1,0.4,0.2,0.4c0.1,0,0.2,0,0.4-0.2c0.6-0.3,1-0.5,1.3-0.5    c0.2,0,0.4,0.1,0.7,0.3c0.2,0.2,0.4,0.5,0.4,0.8c0,0.4-0.4,1.2-1.1,2.3c-0.3,0.5-0.7,1-1.1,1.4l-0.2,0.4c0,0.1,0,0.1,0.1,0.1    c1.6,0.8,3.3,1.6,4.9,2.5c3.2,2.3,4.9,3.6,4.9,4c0,0.1,0,0.2-0.1,0.4C40.1,16,40,16.1,39.8,16.1z" fill="rgb(62,62,62)"></path>
	<path d="M43.5,12.9c-0.4,0-0.6-0.2-0.6-0.5c0-0.4,1-2,2.8-5l0.7-1.5c0.8-1.6,1.6-2.4,2.3-2.4l0.2-0.2v0.4c-0.1,0.2-0.3,0.4-0.5,0.7    c-0.2,0.2-0.4,0.4-0.5,0.6c-0.6,0.9-1,1.6-1.2,2.1l-1.6,3c0,0.1-0.2,0.5-0.6,1c-0.4,0.9-0.6,1.4-0.6,1.5l0,0.3    C44,12.8,43.8,12.9,43.5,12.9z M44.7,4.2c-0.1,0-0.2-0.1-0.3-0.2s-0.2-0.2-0.1-0.3c0-0.3,0.2-0.5,0.5-0.6c0.4-0.1,0.9-0.2,1.6-0.4    l0.8-0.3L50,2.1l0.7,0.4c-0.2,0.1-0.8,0.3-1.7,0.6c-1.1,0.1-1.6,0.2-1.7,0.3c-0.1,0.1-0.5,0.2-1.3,0.4l-0.1,0l-0.2,0.2    C45.2,4,45,4.1,44.9,4.2C44.8,4.2,44.7,4.2,44.7,4.2z M47.8,15.5c-0.3,0-0.5-0.2-0.6-0.4l0.3-1.8c0-0.2,0-0.4,0-0.6    c0-0.2,0-0.5,0-1c0-0.5-0.1-1.4-0.2-2.8c0-0.2,0.1-0.4,0.3-0.5c0.2-0.1,0.3-0.2,0.3-0.2c0.2,0,0.3,0.3,0.4,0.9    c0.1,0.4,0.2,0.8,0.2,1.1v0.2c0,0.1,0,0.3,0.1,0.5l0.1,1.5C48.4,14.5,48.2,15.5,47.8,15.5z M57.6,12.5c-0.2,0-0.5-0.2-0.7-0.4    s-1-0.5-2.3-0.9c-0.4-0.1-0.6-0.2-0.7-0.3c-0.3-0.2-0.7-0.3-1.4-0.5c-0.7-0.3-1.5-0.5-2.4-0.6c0,0-0.2,0-0.5,0.1    c-0.3,0.1-0.5,0.2-0.6,0.2c-0.2,0-0.3-0.1-0.3-0.3c0-0.1,0.1-0.2,0.2-0.4c0.1-0.2,0.2-0.3,0.4-0.4c0.2-0.1,0.4-0.1,0.7-0.1    c0.2,0.1,0.4,0.1,0.6,0.1l0.2,0c0.5,0,1.4,0.3,2.7,0.7c0.8,0.2,1.7,0.5,2.8,1l0.8,0.4v-0.1c0.1,0,0.2,0,0.3,0l0.7,0.2    C58,11.5,58,11.8,58,12c0,0.1-0.1,0.2-0.2,0.3C57.7,12.5,57.6,12.5,57.6,12.5z" fill="rgb(62,62,62)"></path>
	<path d="M59.8,16.5l-0.2-0.2l0.8-1.2c0.3-0.2,0.5-0.4,0.6-0.6l0.2-0.1c0.1-0.2,0.4-0.6,0.8-1l2.4-3c0.3-0.4,0.6-0.8,0.9-1.3    c0-0.1,0-0.1-0.1-0.2c-0.5,0-1,0.2-1.5,0.5c-0.6,0.2-1,0.4-1.1,0.5s-0.2,0.2-0.4,0.2l-0.6,0.3c0,0-0.1,0-0.3-0.1    c-0.2-0.1-0.2-0.2-0.2-0.4c0-0.1,0-0.2,0.1-0.3c0.3-0.3,0.5-0.7,0.5-1.4c0-2.5,0.2-4.6,0.6-6.2c0.1-0.5,0.2-0.8,0.5-0.8    c0.1,0,0.3,0,0.5,0.2h0.1c0.3-0.2,0.6-0.3,0.9-0.3c0.2,0,0.5,0,0.8,0.1c0.9,0.1,1.5,0.8,1.6,2.2c0,0.1,0,0.4,0,0.8L66,6.7    c-0.2,0.7-0.7,1.1-1.5,1.1c-0.1,0-0.3-0.1-0.4-0.4l0.2-0.2c0.2-0.1,0.5-0.4,0.7-1v0v0.1c-0.1,0.1-0.3,0.1-0.6,0.2    c-0.3,0.1-0.5,0.2-0.7,0.3c0,0.1-0.2,0.1-0.5,0.2c-0.4,0.1-0.7,0.5-0.7,1.2l0.1,0.4v0.3c0,0,0,0,0,0l0.7-0.3C64.4,8.2,65,8,65.2,8    c0.4,0,0.7,0.2,0.9,0.5C66,8.6,66,8.8,66,9s0,0.4-0.2,0.6l-0.4,0.6c-0.1,0.3-0.4,0.7-0.9,1.1l-0.2,0.5h-0.1c0,0,0.1,0,0.2,0    c3.2,1.3,6.2,2,9,2.2l2.2,0.2c1.3,0,2.8-0.2,4.5-0.5l0.3-0.1c0.1,0,0.2,0,0.3,0.1c0.1,0.1,0.2,0.1,0.3,0.2c0.1,0.1,0.2,0.1,0.3,0.3    c-0.7,0.6-1.7,0.9-3.1,0.9l-0.4,0l-0.6,0l-1,0l-0.9,0c-1.5-0.1-3-0.2-4.5-0.4c-1.2-0.3-2.4-0.5-3.6-0.7c-0.4-0.2-0.7-0.3-1-0.3    c-0.3,0-0.7-0.2-1.2-0.4c-0.7-0.3-1.1-0.5-1.4-0.5c-0.3,0-0.6,0.2-0.8,0.5c-0.6,0.8-1,1.4-1.4,1.8c-0.2,0.2-0.6,0.5-1,1    c-0.1,0.1-0.4,0.3-0.9,0.4L59.8,16.5z M62.8,6c0.1,0,0.6-0.2,1.3-0.5c0.8-0.3,1.3-0.6,1.4-0.7s0.2-0.3,0.2-0.7l-0.1-0.4l-0.5,0.3    c-0.4,0-1.1,0.3-2.2,0.8l0,0.1v0.9C62.7,5.9,62.7,5.9,62.8,6C62.7,6,62.7,6,62.8,6z M62.9,3.7l0.6-0.2c0.5-0.2,0.9-0.4,1.4-0.4    l0.5,0.1l0-0.3c0-0.5-0.3-0.8-1-0.8l-0.2,0c-0.1,0-0.1,0-0.2,0.1c-0.6,0.4-1,0.7-1,0.9c0,0.2-0.1,0.4-0.3,0.5L62.9,3.7L62.9,3.7z" fill="rgb(62,62,62)"></path>
	<path d="M84.9,15.4c-0.2,0-0.3-0.1-0.3-0.3c0.2-0.8,0.6-1.7,1-2.7c-0.2-0.2-0.3-0.4-0.2-0.7c0.1-0.3,0.2-0.5,0.5-0.5    c0.2,0,0.5,0,0.7,0.1c0.1,0.1,0.2,0.3,0.2,0.4c0,0.2-0.3,1.1-1,2.6C85.3,15,85.1,15.4,84.9,15.4z" fill="rgb(62,62,62)"></path>
	<path d="M96.8,14.8v-0.3c0.1-0.2,0.2-0.3,0.2-0.5c0-0.1,0-0.3-0.2-0.4l0.4-0.8v-0.4l0-0.3c0-0.1-0.1-0.2-0.3-0.2    c-0.6,0-0.9-0.3-1.1-0.9c-0.2-0.4-0.4-0.7-0.5-0.7v0c-0.2,0-0.4,0.2-0.6,0.4c-0.2,0.2-0.6,0.3-1.1,0.3c-0.2,0-0.3-0.1-0.3-0.2v0    c0,0,0-0.1,0-0.2c0-0.1,0.2-0.3,0.6-0.5c0.4-0.2,0.6-0.3,0.8-0.4c0.1,0,0.2-0.1,0.2-0.2L95,9.3c0-0.4,0.1-0.6,0.4-0.6    c0.1,0,0.1,0,0.2,0.1s0.2,0.1,0.3,0.2c0.1,0.1,0.2,0.2,0.3,0.2s0.4-0.2,1-0.6C97.9,8.2,98.4,8,98.6,8c0.2,0,0.3,0.2,0.3,0.6    c-0.1,0.1-0.1,0.3-0.2,0.7c-0.1,0.4-0.1,0.7-0.1,0.9c0.2-0.2,0.3-0.3,0.4-0.3c0.2,0,0.3,0.1,0.3,0.4c0,0.1,0,0.3-0.1,0.4    c-0.1,0.1-0.2,0.2-0.3,0.2c-0.3,0.2-0.5,0.8-0.7,2c-0.1,1.1-0.3,1.7-0.4,1.8L96.8,14.8z M97.1,11c0.1,0,0.2-0.1,0.3-0.2    c0.1-0.1,0.1-0.2,0.1-0.3l0.5-1.8c0-0.1,0-0.1-0.1-0.2c-0.3,0.3-0.6,0.6-1,0.8c-0.3,0.2-0.5,0.5-0.5,0.9l0.2,0.3    C96.8,10.8,97,11,97.1,11z M101.1,2.8c-0.1,0-0.3,0-0.4-0.1c-0.1-0.1-0.2-0.2-0.2-0.3c0-0.2,0-0.3,0-0.4s1.3-0.6,3.9-1.5h0.4    c-0.1,0.4-0.3,0.6-0.6,0.7c-0.3,0.1-1.2,0.6-2.8,1.5C101.3,2.8,101.2,2.8,101.1,2.8z M110.9,11.8c-0.9,0-1.4-0.4-1.7-1.1l-0.7-1.1    c-0.6-0.9-0.9-1.6-1-1.9l-0.7-1.3c-0.3-0.4-0.4-0.7-0.5-0.9c-0.2-0.4-0.4-0.7-0.5-0.8c-1.2,0.4-2.4,0.9-3.6,1.4l0,0.2    c0.2,0.9,0.3,1.4,0.3,1.4s0.3-0.3,0.8-0.8c0.5-0.5,0.9-0.9,1.1-1.3c0.1-0.1,0.3-0.3,0.5-0.4c0.1,0.2,0.2,0.4,0.2,0.5    c0,0.3-0.2,0.7-0.5,1c-0.2,0.2-0.5,0.5-0.7,1l-0.9,1c-0.4,0.2-0.7,0.3-0.8,0.3c-0.3,0-0.5-0.2-0.6-0.5c-0.1-0.4-0.2-0.7-0.4-1.2    h0.2c0-0.2,0-0.6-0.1-1.1l-0.2-2.5c0-0.1,0.1-0.3,0.4-0.6c0,0,0.1,0,0.2,0.1c0.1,0,0.1,0.1,0.1,0.2c0.2,0.7,0.3,1.1,0.3,1.3    c0,0.3,0.1,0.4,0.2,0.4l1.9-0.6c0.7-0.3,1.1-0.5,1.1-0.7c0-0.1-0.1-0.3-0.3-0.7s-0.3-0.7-0.3-0.8c0-0.1,0.1-0.3,0.3-0.5h0.2    c0.7,0.6,1,1.1,1.1,1.3c0,0.2,0.1,0.3,0.2,0.3c0.1,0,0.4-0.2,1-0.5c0.6-0.3,0.8-0.5,0.9-0.5c0.1,0,0.3,0.1,0.6,0.3    c-0.1,0.3-0.6,0.6-1.5,1c-0.1,0-0.2,0.2-0.4,0.4c-0.1,0-0.1,0.1-0.1,0.2c0,0,0,0.1,0.1,0.1c0.4,0.9,0.7,1.5,0.8,1.8    s0.3,0.7,0.7,1.2c0.3,0.5,0.5,0.9,0.6,1.2c0.2,0.4,0.6,0.9,1.2,1.6c0.2,0.2,0.4,0.4,0.7,0.5l0.1,0c0.1,0,0.1,0,0.2,0    c0.1,0,0.5-0.6,1.3-1.8c1-1.6,1.7-2.4,1.9-2.4c0.3,0,0.5,0.1,0.5,0.3l-0.1,0.1c0,0.2-0.1,0.3-0.1,0.4c0,0.1-0.1,0.1-0.2,0.2    c-0.1,0.1-0.1,0.1-0.1,0.2v0.2L114.1,8c-0.3,0.1-0.5,0.4-0.5,0.7l-1.4,2.4C112,11.5,111.5,11.8,110.9,11.8z M107.2,17.1    c-0.1,0-0.1,0-0.2,0c-0.1,0-0.2-0.1-0.3-0.2l0.4-0.4H107c-0.3,0.2-0.7,0.3-1.1,0.3c-0.8,0-1.2-0.1-1.2-0.4s0-0.6-0.1-1    c0-0.7,0.1-1.2,0.2-1.5l0-0.5l-0.1-0.7c0-0.6,0.1-0.9,0.4-0.9l0.2,0.1c0.3,0.2,0.6,0.4,1,0.4l0.6-0.1c0.3,0,0.6,0.2,1,0.6    c0.4,0.6,0.7,1.3,0.7,2l0,0.1l-0.1,0.5c0,0.1,0.1,0.1,0.2,0.1h0.3c0.2,0,0.3,0.1,0.3,0.2c0,0.1-0.2,0.3-0.5,0.6    c-0.3,0.3-0.5,0.5-0.6,0.5C108,16.9,107.7,17.1,107.2,17.1z M105.7,15.7l1.9-0.3V15l0.1-0.2c0-0.1,0-0.1-0.1-0.1    c-0.1,0-0.4,0-0.7,0.1c-0.6,0.1-0.9,0.3-1.1,0.5C105.7,15.3,105.7,15.4,105.7,15.7z M106.3,14c0.2-0.1,0.5-0.1,1-0.1    c0.1,0,0.2,0,0.2-0.1l0-0.2c-0.3-0.4-0.6-0.7-0.7-0.7c-0.6,0-0.9,0.3-0.9,0.9C106,14,106.1,14,106.3,14z" fill="rgb(62,62,62)"></path>
	<path d="M122.3,17.7c-0.2,0-0.3-0.4-0.4-1.1l-0.4-2.1l-0.2-1.8l-0.3-1.4c0-0.4-0.1-0.7-0.3-1.1c-0.1,0-0.1,0.1-0.2,0.3l-0.6,1    c-0.9,1.4-1.4,2.4-1.7,3.1c-0.1,0.5-0.3,0.8-0.5,1.1c-0.1,0.1-0.2,0.3-0.2,0.5l0,0.2c0,0.3-0.1,0.5-0.3,0.7c-0.3,0-0.5,0-0.5-0.1    c-0.1-0.1-0.2-0.3-0.2-0.5c0-0.3,0.3-1.1,0.9-2.3s1.1-2.1,1.4-2.5c0.1-0.1,0.1-0.2,0.2-0.4c1.5-3,2.5-5.1,3-6.1V4.8h-0.2    c-0.3,0.3-0.5,0.5-0.6,0.5s-0.3,0.1-0.6,0.3c-0.3,0.2-0.6,0.4-1.2,0.7c-0.5,0.3-0.9,0.4-1,0.4c-0.2-0.2-0.3-0.4-0.3-0.5    c0-0.3,0.1-0.5,0.3-0.6l2.4-1.2c0.8-0.5,1.4-0.8,1.8-1c0.1,0,0.1-0.1,0.2-0.1c0.1,0,0.3,0.1,0.6,0.3c0.1,0,0.1,0.1,0.1,0.2    c0,0.1-0.1,0.2-0.2,0.4c-0.1,0.3-0.3,0.7-0.6,1.1c-0.1,0.1-0.1,0.2-0.1,0.3L122,8.1c-0.4,0.7-0.7,1.1-0.7,1.2v0.1l0.6,0.5    c1.3,0.4,2.7,0.8,4.1,1.1c0.1,0.1,0.2,0.2,0.4,0.2c-0.1,0.2-0.2,0.3-0.4,0.4c-0.1,0.1-0.3,0.2-0.4,0.2s-0.2,0-0.3-0.1    c-0.1-0.1-0.2-0.1-0.4-0.1l-0.4,0.1c-0.4,0-0.9-0.1-1.6-0.4c-0.3-0.1-0.5-0.1-0.6-0.1s-0.2,0-0.2,0c0,0,0,0.1,0,0.2l0.2,1.2    c0.4,2.7,0.6,4,0.6,4.1c0.1,0,0.1,0.2,0.1,0.3c0,0.3,0,0.6,0.1,0.7v0.1L122.3,17.7z M121.9,3.4c-0.1,0-0.4-0.2-0.7-0.5    c-0.4-0.3-0.5-0.6-0.5-0.9c0-0.3,0.1-0.4,0.4-0.4c0.2,0,0.3,0,0.5,0.2c0.4,0.4,0.7,0.8,0.8,1c0,0.1,0,0.2,0,0.4    C122.2,3.3,122.1,3.4,121.9,3.4z M127.2,17.4c-0.1,0-0.2-0.1-0.2-0.3v0c0-0.3,0.1-0.5,0.4-0.6c1.5-0.5,2.3-0.7,2.3-0.7    c0,0,0-0.2,0-0.6c0-1.1-0.1-1.7-0.2-1.7l-0.2,0c-0.2,0-0.3-0.1-0.3-0.2c0-0.2,0.1-0.4,0.2-0.5c0.1-0.1,0.2-0.2,0.2-0.3    c0-0.1,0-0.2,0-0.3l0-0.4l0-1.2V9.1c0-0.1,0.1-0.2,0.2-0.3c0.2-0.1,0.3-0.1,0.3-0.1c0,0,0.1,0,0.1,0.1c0.1,0.1,0.1,0.1,0.1,0.2    l0,0.9l0,0.5c0,0.4,0.1,0.8,0.3,1.3l0.4-0.4c0.5-0.6,0.8-1.1,0.8-1.4l-0.2,0.1c-0.1,0-0.2-0.1-0.2-0.2V9.5c0-0.2,0.2-0.4,0.5-0.5    l0.2,0c0.2,0,0.4,0.1,0.6,0.4c0.1,0.1,0.2,0.3,0.2,0.4l-0.1,0.2c-0.1,0.6-0.3,1-0.5,1.2c-0.4,0.7-0.8,1.2-1.2,1.5    c-0.2,0.1-0.3,0.2-0.3,0.4l0.1,0.9c0.1,1.1,0.2,1.7,0.3,1.7c0.1,0,0.1,0,0.2-0.1c0,0,0.6-0.9,1.6-2.6c0-0.2,0.1-0.4,0.2-0.4    l0.6,0.4v0.1c-0.2,0.5-0.5,1.1-0.8,1.6c-0.3,0.3-0.5,0.6-0.6,0.9c0.1,0,0.2,0,0.3,0.1c0.5-0.1,1.3-0.2,2.6-0.4c0.6,0,1.1,0,1.4-0.1    l0.5,0.1c0.2,0,0.3,0,0.4-0.1v-0.1c0.1,0,0.2,0,0.2,0.1c0.1,0.1,0.3,0.1,0.6,0.1l1.4-0.1c0.3,0,0.7,0.1,1.1,0.3    c0.1,0.1,0.2,0.2,0.2,0.3l0,0.3c-0.2,0.3-0.4,0.5-0.8,0.5c-0.1,0-0.2,0-0.4-0.1c-0.1,0-0.4-0.1-0.7-0.1c-0.3,0-0.6-0.1-0.8-0.1    c-0.2-0.1-0.4-0.1-0.6-0.1l-0.8,0c-0.2,0.1-0.3,0.1-0.4,0.1s-0.2,0-0.3,0l-0.1,0.1l-3,0.4c-1.5,0.4-2.3,0.6-2.3,0.6    c0,0.1-0.1,0.1-0.1,0.1l-0.1,0c-0.5,0-1,0.1-1.6,0.2C128,17.3,127.5,17.4,127.2,17.4z M128.4,6.8h-0.1c-0.4,0-0.6-0.3-0.6-0.8    l0-0.7c0-0.3-0.1-0.4-0.2-0.5c-0.1,0-0.1-0.1-0.1-0.2s0-0.2-0.1-0.3c0.1-0.3,0.2-0.7,0.2-1.3l-0.1-1.1c0-0.3,0.1-0.6,0.2-0.7    c0.1-0.1,0.3-0.2,0.4-0.2c0.2,0,0.3,0.1,0.4,0.2c0.1,0.1,0.1,0.2,0.2,0.4c0.1,0,0.1-0.1,0.1-0.2c-0.1-0.4-0.2-0.7-0.2-0.9    c0-0.1,0.1-0.3,0.2-0.7C129,0,129.1,0,129.2,0c0.1,0,0.2,0,0.3,0.2s0.2,0.2,0.2,0.3l0,0.4v0.5h0.1v0.1c0,0,0.2,0,0.4-0.2    c0,0,0.1-0.1,0.2-0.2l-0.1,0l0.2-0.1c0-0.3,0.2-0.4,0.5-0.4c0.2,0,0.3,0.1,0.4,0.3c0,0.2,0.2,0.3,0.4,0.3c1.2,0,1.8,0.6,1.8,1.8    c0,0.3-0.2,0.5-0.5,0.8c-0.3,0.3-0.5,0.5-0.5,0.6c0,0.5-0.4,0.9-1.2,1.1c-0.3,0.1-0.7,0.3-1.1,0.5l-0.6,0.3    c-0.3,0.1-0.5,0.2-0.6,0.4C128.7,6.6,128.5,6.8,128.4,6.8z M128.3,9.2c-0.2,0-0.3,0-0.3-0.1c0-0.1-0.1-0.1-0.1-0.2    c-0.1-0.1-0.1-0.2-0.1-0.2c0-0.2,0.9-0.7,2.6-1.6c0.9-0.5,1.4-0.8,1.5-0.8c0.2,0,0.4,0.1,0.6,0.4h0.1c0,0.1-0.3,0.4-0.8,0.7    c-0.5,0.3-0.9,0.5-1.1,0.6c-0.4,0.1-0.7,0.2-0.8,0.4s-0.5,0.3-1,0.4C128.7,8.8,128.5,9,128.3,9.2z M128.7,3.6V2.9L128.6,3v0.3v0.3    H128.7z M128.7,5.2l0.4-0.3c-0.1-0.1-0.1-0.1-0.2-0.1l-0.3,0.3C128.6,5.1,128.7,5.2,128.7,5.2z M129.8,3.1l0.3-0.1l0.1-0.6    c0-0.1,0-0.1-0.1-0.1c-0.3,0-0.4,0.1-0.4,0.3L129.8,3.1z M131,3.8c0.2,0,0.5-0.3,1.1-0.8l0.1-0.2l-0.1-0.2    c-0.1-0.3-0.3-0.5-0.5-0.5c-0.3,0-0.5,0.2-0.5,0.5l0.1,0.6c0,0.2,0,0.3-0.1,0.3C131,3.6,131,3.7,131,3.8z" fill="rgb(62,62,62)"></path>
	<path d="M143,16.5l-0.2-0.2l0.8-1.2c0.3-0.2,0.5-0.4,0.6-0.6l0.2-0.1c0.1-0.2,0.4-0.6,0.8-1l2.4-3c0.3-0.4,0.6-0.8,0.9-1.3    c0-0.1,0-0.1-0.1-0.2c-0.5,0-1,0.2-1.5,0.5c-0.6,0.2-1,0.4-1.1,0.5s-0.2,0.2-0.4,0.2l-0.6,0.3c0,0-0.1,0-0.3-0.1    c-0.2-0.1-0.2-0.2-0.2-0.4c0-0.1,0-0.2,0.1-0.3c0.3-0.3,0.5-0.7,0.5-1.4c0-2.5,0.2-4.6,0.6-6.2c0.1-0.5,0.2-0.8,0.5-0.8    c0.1,0,0.3,0,0.5,0.2h0.1c0.3-0.2,0.6-0.3,0.9-0.3c0.2,0,0.5,0,0.8,0.1c0.9,0.1,1.5,0.8,1.6,2.2c0,0.1,0,0.4,0,0.8l-0.5,2.5    c-0.2,0.7-0.7,1.1-1.5,1.1c-0.1,0-0.3-0.1-0.4-0.4l0.2-0.2c0.2-0.1,0.5-0.4,0.7-1v0v0.1c-0.1,0.1-0.3,0.1-0.6,0.2    c-0.3,0.1-0.5,0.2-0.7,0.3c0,0.1-0.2,0.1-0.5,0.2c-0.4,0.1-0.7,0.5-0.7,1.2l0.1,0.4v0.3c0,0,0,0,0,0l0.7-0.3c1-0.4,1.6-0.7,1.9-0.7    c0.4,0,0.7,0.2,0.9,0.5c-0.1,0.1-0.1,0.3-0.1,0.5s0,0.4-0.2,0.6l-0.4,0.6c-0.1,0.3-0.4,0.7-0.9,1.1l-0.2,0.5h-0.1c0,0,0.1,0,0.2,0    c3.2,1.3,6.2,2,9,2.2l2.2,0.2c1.3,0,2.8-0.2,4.5-0.5l0.3-0.1c0.1,0,0.2,0,0.3,0.1c0.1,0.1,0.2,0.1,0.3,0.2c0.1,0.1,0.2,0.1,0.3,0.3    c-0.7,0.6-1.7,0.9-3.1,0.9l-0.4,0l-0.6,0l-1,0l-0.9,0c-1.5-0.1-3-0.2-4.5-0.4c-1.2-0.3-2.4-0.5-3.6-0.7c-0.4-0.2-0.7-0.3-1-0.3    c-0.3,0-0.7-0.2-1.2-0.4c-0.7-0.3-1.1-0.5-1.4-0.5c-0.3,0-0.6,0.2-0.8,0.5c-0.6,0.8-1,1.4-1.4,1.8c-0.2,0.2-0.6,0.5-1,1    c-0.1,0.1-0.4,0.3-0.9,0.4L143,16.5z M145.9,6c0.1,0,0.6-0.2,1.3-0.5c0.8-0.3,1.3-0.6,1.4-0.7s0.2-0.3,0.2-0.7l-0.1-0.4l-0.5,0.3    c-0.4,0-1.1,0.3-2.2,0.8l0,0.1v0.9C145.8,5.9,145.8,5.9,145.9,6C145.9,6,145.9,6,145.9,6z M146,3.7l0.6-0.2    c0.5-0.2,0.9-0.4,1.4-0.4l0.5,0.1l0-0.3c0-0.5-0.3-0.8-1-0.8l-0.2,0c-0.1,0-0.1,0-0.2,0.1c-0.6,0.4-1,0.7-1,0.9    c0,0.2-0.1,0.4-0.3,0.5L146,3.7L146,3.7z" fill="rgb(62,62,62)"></path>
</g></svg>