<svg xmlns="http://www.w3.org/2000/svg" x="0px" y="0px" viewBox="378.9 314 51.6 42.8" style="vertical-align: middle; max-width: 100%; width: 100%;" width="100%"><g>
	<g>
		<g>
			<g>
				<path d="M395,340.5c2.7,0,5.3,0,8,0c1.9,0,1.9-3,0-3c-2.7,0-5.3,0-8,0C393,337.5,393,340.5,395,340.5L395,340.5z" fill="rgb(62,62,62)"></path>
			</g>
		</g>
		<g>
			<g>
				<path d="M395.6,347.8c3.1,0,6.2,0,9.3,0c1.9,0,1.9-3,0-3c-3.1,0-6.2,0-9.3,0C393.7,344.8,393.7,347.8,395.6,347.8       L395.6,347.8z" fill="rgb(62,62,62)"></path>
			</g>
		</g>
		<g>
			<g>
				<path d="M395.6,333.8c3.3,0.3,6.7,0.5,10,0.8c1.9,0.2,1.9-2.8,0-3c-3.3-0.3-6.7-0.5-10-0.8       C393.7,330.7,393.7,333.7,395.6,333.8L395.6,333.8z" fill="rgb(62,62,62)"></path>
			</g>
		</g>
		<g>
			<g>
				<path d="M394.9,326.7c4.2-2.2,9-2.4,13.3-0.4c1.7,0.8,3.3-1.8,1.5-2.6c-5.3-2.4-11.1-2.3-16.3,0.4       C391.7,325,393.2,327.6,394.9,326.7L394.9,326.7z" fill="rgb(62,62,62)"></path>
			</g>
		</g>
		<g>
			<g>
				<path d="M379.1,341.8c2,3.4,6.2,5,10,3.7c1.8-0.6,1-3.5-0.8-2.9c-2.5,0.9-5.2,0-6.6-2.3       C380.7,338.6,378.1,340.1,379.1,341.8L379.1,341.8z" fill="rgb(62,62,62)"></path>
			</g>
		</g>
		<g>
			<g>
				<path d="M379.1,335.9c2,3.4,6.2,5,10,3.7c1.8-0.6,1-3.5-0.8-2.9c-2.5,0.9-5.2,0-6.6-2.3       C380.7,332.7,378.1,334.2,379.1,335.9L379.1,335.9z" fill="rgb(62,62,62)"></path>
			</g>
		</g>
		<g>
			<g>
				<path d="M379.1,329.1c2,3.4,6.2,5,10,3.7c1.8-0.6,1-3.5-0.8-2.9c-2.5,0.9-5.2,0-6.6-2.3       C380.7,325.9,378.1,327.4,379.1,329.1L379.1,329.1z" fill="rgb(62,62,62)"></path>
			</g>
		</g>
		<g>
			<g>
				<path d="M379.1,321.3c2,3.4,6.2,5,10,3.7c1.8-0.6,1-3.5-0.8-2.9c-2.5,0.9-5.2,0-6.6-2.3       C380.7,318.1,378.1,319.6,379.1,321.3L379.1,321.3z" fill="rgb(62,62,62)"></path>
			</g>
		</g>
		<g>
			<g>
				<path d="M386.6,331.7c-0.3-2.9-0.4-5.8,0.3-8.6c0.8-3.6,2.7-5.3,6.4-5.8c4.4-0.6,9.7-0.4,14.1-0.1       c6.7,0.4,8.3,4.9,8.6,10.8c0.2,5.3,0.1,10.6,0.2,15.9c0,3.9-0.3,8.1-4.8,9.5c-2,0.6-4.5,0.3-6.5,0.3c-4.7,0-10.6,1-15.1-0.4       c-5.9-1.8-4.9-9.2-4.6-14.2c0.3-5.9,0.9-11.7,1.8-17.6c0.3-1.9-2.6-2.7-2.9-0.8c-1.3,8.3-2.6,17.3-1.9,25.8       c0.4,5,2.4,9.1,7.6,10c3.4,0.6,7.3,0.2,10.7,0.2c3.7,0,7.6,0.3,11.3-0.3c6-1,7.6-4.8,7.6-10.6c0-7.5,1-16.1-0.9-23.4       c-1.2-4.9-4.5-7.7-9.5-8.2c-3.9-0.4-8,0-12,0c-2.6,0-5.6-0.3-8.1,0.7c-5.8,2.4-5.8,11.7-5.2,16.8       C383.8,333.6,386.8,333.6,386.6,331.7L386.6,331.7z" fill="rgb(62,62,62)"></path>
			</g>
		</g>
	</g>
	<g>
		<g>
			<g>
				<path d="M423.8,320.7c0.5-0.8,2.1-2.9,3.3-2.5c1.5,0.5-0.5,3.3-0.9,3.8c-1.1,1.6,1.5,3.1,2.6,1.5       c1.6-2.3,3-6.2-0.2-7.9c-2.9-1.6-5.9,1.4-7.4,3.6C420.1,320.8,422.7,322.3,423.8,320.7L423.8,320.7z" fill="rgb(62,62,62)"></path>
			</g>
		</g>
		<g>
			<g>
				<path d="M420.2,320.1c1.8,1.8,3.6,3.5,5.4,5.3c1.4,1.3,3.5-0.8,2.1-2.1c-1.8-1.8-3.6-3.5-5.4-5.3       C420.9,316.7,418.8,318.8,420.2,320.1L420.2,320.1z" fill="rgb(62,62,62)"></path>
			</g>
		</g>
		<g>
			<g>
				<path d="M416,341.4c4.2-5.3,8.5-10.7,12.7-16c1.2-1.5-0.9-3.6-2.1-2.1c-4.2,5.3-8.5,10.7-12.7,16       C412.7,340.8,414.8,342.9,416,341.4L416,341.4z" fill="rgb(62,62,62)"></path>
			</g>
		</g>
		<g>
			<g>
				<path d="M409.5,337.2c4.2-5.3,8.5-10.7,12.7-16c1.2-1.5-0.9-3.6-2.1-2.1c-4.2,5.3-8.5,10.7-12.7,16       C406.2,336.6,408.3,338.8,409.5,337.2L409.5,337.2z" fill="rgb(62,62,62)"></path>
			</g>
		</g>
		<g>
			<g>
				<path d="M407.8,337.1c2,1.3,4,2.6,6,3.9c1.6,1.1,3.1-1.5,1.5-2.6c-2-1.3-4-2.6-6-3.9       C407.7,333.4,406.2,336,407.8,337.1L407.8,337.1z" fill="rgb(62,62,62)"></path>
			</g>
		</g>
		<g>
			<g>
				<path d="M407.1,335.9c-0.7,2.8-0.9,5.6-0.6,8.4c0.1,0.9,0.9,1.8,1.9,1.4c2.5-0.8,4.6-2,6.6-3.8       c1.4-1.3-0.7-3.4-2.1-2.1c-1.5,1.4-3.3,2.4-5.2,3c0.6,0.5,1.3,1,1.9,1.4c-0.3-2.6-0.1-5.1,0.5-7.6       C410.5,334.9,407.6,334.1,407.1,335.9L407.1,335.9z" fill="rgb(62,62,62)"></path>
			</g>
		</g>
	</g>
</g></svg>