<svg xmlns="http://www.w3.org/2000/svg" x="0px" y="0px" viewBox="0 0 458.4 43.5" style="vertical-align: middle; max-width: 100%; width: 100%;" width="100%"><g>
	<path d="M2.3,26.7c-0.8,0-1.3-0.4-1.5-1.1c0-0.6-0.1-1-0.3-1.1c0-1.1-0.1-2.6-0.4-4.6C0,19.2,0,18.2,0,16.9C0,16.3,0.3,16,0.9,16    c0.1,0,0.3,0.1,0.6,0.4c0.5,0.5,0.8,0.9,0.8,1.1c0,0.2,0.2,2,0.6,5.4l0.3,0.3C3.3,23,3.8,22.6,4.7,22c1.4-1.4,2.3-2.4,2.7-3    c0.4-0.6,0.8-1,1.1-1c0.7,0,1.7,1.4,3.1,4.2c0.7,0,1.3-0.8,1.8-2.6l1.1-2.9c0.2-1.6,0.7-2.6,1.5-3.1l0.3-0.1c0.2,0,0.4,0.1,0.7,0.4    c0.3,0.3,0.4,0.5,0.4,0.6l-0.1,2c0,0.8-0.7,2.4-2,4.8c-1.3,2.4-2.5,3.8-3.5,4.1c-1.2,0-2.1-1-2.7-2.9C8.9,22.2,8.6,22,8.3,22    c-0.3,0-0.8,0.3-1.3,1c-0.5,0.6-0.9,1-1.1,1.1c-0.2,0.1-0.6,0.5-1.1,1.1c-0.5,0.6-1,1-1.4,1.2C3,26.6,2.6,26.7,2.3,26.7z" fill="rgb(62,62,62)"></path>
	<path d="M32.8,26.7c-2.4,0-3.6-2.2-3.6-6.5v-0.5c-1,0-2.3-0.2-4-0.6c-0.9-0.1-1.3-0.2-1.3-0.4c0-0.2,0-0.3-0.1-0.3    c0.3-1.1,0.7-1.7,1.1-1.7l0.6,0.1c1.6,0.2,2.8,0.3,3.4,0.3c0.6,0,1-0.7,1.1-2.2c0.2-0.6,0.4-1,0.8-1.3c0-0.3,0.1-0.6,0.4-1.1    l-0.1-0.1c0.1-0.6,0.5-1.2,1.3-1.7c0.8-0.6,1.4-0.8,1.8-0.8c0.4,0,0.6,0,0.6,0.1c1.4,0.8,2.3,2,2.6,3.7c-0.1,0.6-0.5,1.3-1.1,2.2    c-0.7,0.9-1.4,1.4-2.2,1.5c-0.3,0-0.5,0.2-0.7,0.6c-0.2,0.4-0.6,0.6-1.1,0.6h-0.1c-0.3,0-0.4,0.5-0.4,1.5c0,1.4,0,2.3,0.1,2.7    c0,0.5,0.9,1,2.5,1.5c1.2,0.4,2,0.9,2.3,1.5c-0.6,0.3-1,0.5-1.3,0.5h-0.6c-0.1,0-0.4,0.1-0.9,0.2C33.4,26.6,33.1,26.7,32.8,26.7z     M32.9,16.1c0.3-0.2,0.7-0.6,1.2-1.2c0.5-0.6,0.7-1.2,0.7-1.6l-0.1-0.4c-0.1-0.2-0.2-0.3-0.4-0.3c-0.2,0-0.4,0.1-0.6,0.2    c-0.2,0.1-0.5,1.2-1,3.1L32.9,16.1z" fill="rgb(62,62,62)"></path>
	<path d="M58.3,26.7l-0.8-0.4c-0.9-0.3-1.7-0.7-2.3-1c-1.3-0.7-2.3-2-2.9-3.8l-0.6-0.9c-0.1-0.5-0.2-0.8-0.3-0.8    c-0.1,0-0.2,0.2-0.4,0.5c-0.2,0.3-1.3,1.3-3.1,2.8c-1.9,1.5-3.1,2.3-3.6,2.3c-0.8,0-1.1-0.3-1.1-0.9c0-0.4,0.2-0.7,0.5-0.8    c4.6-3.7,7-6,7.1-7.1c0.2-0.3,0.3-1,0.3-1.9l-0.1-1.9c0-2.2,0.3-4.3,1-6.3c0.2-0.6,0.8-1.6,2-3.1c1.1-1.8,2.1-2.7,3.1-2.7    c1.4,0.7,2.2,1.8,2.2,3.4v0.9l0.1,0.5c0,2.2-0.7,4.5-2,6.8c-0.2,0.9-0.7,1.8-1.7,2.6l-0.9,1.7c-0.8,0.3-1.1,0.6-1.1,0.9    c0,0.4,0.2,1,0.5,1.8c0.6,1.9,1.7,3.2,3.3,3.8l2.3,1.5c0.3,0.5,0.4,0.9,0.4,1.1c0,0.3-0.2,0.4-0.7,0.6C59,26.5,58.6,26.6,58.3,26.7    z M53.4,14.6c2.4-2.7,3.6-5.9,3.7-9.4l-0.3-0.5c-0.2-0.3-0.3-0.4-0.4-0.4c-0.4,0-1.1,1-2,3.1C53.4,9.4,53,11,53,12.1L53.4,14.6z" fill="rgb(62,62,62)"></path>
	<path d="M71.6,26.7c-0.4,0-0.8-0.1-1-0.3c-0.3-0.2-0.6-0.3-1-0.3c-0.4,0-0.8-0.1-1-0.3c-1.8-0.7-2.7-2-2.7-4.1L65.7,20    c0-1,0.3-2,0.9-3.1c1.1-2.9,2.6-4.3,4.3-4.3c1.2,0,2.6,0.9,4.1,2.7c0.3,0.2,0.4,0.4,0.6,0.6c0.1,0.2,0.2,0.4,0.2,0.4    c0,0.5-0.6,0.8-1.9,0.8c-0.3-0.1-0.5-0.3-0.8-0.6c-0.3-0.7-0.9-1-1.5-1c-0.2,0-0.5,0-1.1,0.1c-0.6,0.1-1,0.5-1.5,1.3    c-0.4,0.8-0.7,1.9-0.9,3.3c0,1.2,0.2,2.1,0.6,2.7c0.4,0.6,1,0.9,1.7,0.9c2,0,3.4-0.3,4.3-0.8c0.6-0.3,1.2-0.4,1.8-0.4l1.1-0.5    c2.2-1.5,3.4-2.3,3.7-2.3c0.2,0,0.3,0,0.4,0.1h0.4c0,0.5,0,0.9-0.1,1.1c-1.5,1.7-2.6,2.6-3.3,2.7L78.5,24c-1.3,0.3-2.1,0.6-2.6,1.1    c-0.1,0.2-0.4,0.4-0.8,0.6c-0.5,0.2-0.9,0.3-1.2,0.3C72.9,26.5,72.1,26.7,71.6,26.7z" fill="rgb(62,62,62)"></path>
	<path d="M90.9,26.7c-2,0-3.1-1.3-3.1-4c0-1.4,0.5-3.4,1.5-6c0.1,0,0.2-0.1,0.3-0.4c0.9,0,2.3-0.6,4.2-1.9c1-0.3,1.8-0.6,2.3-0.6    c1.7,0,2.8,0.5,3.2,1.5c0.7,1.7,1,2.7,1,3.1c0,2.4-0.9,3.9-2.6,4.5c-0.1,0-0.1,0-0.1,0.1c-0.5,0.5-1.3,1.1-2.2,1.7    c-1,0.6-1.6,1-2,1.3C92.5,26.4,91.7,26.7,90.9,26.7z M91.4,24.1c0.8,0,2.5-1,5.1-3.1c0.9-0.8,1.4-1.5,1.4-2s-0.2-1-0.7-1.5    c-0.5-0.5-1-0.8-1.5-0.8c-0.3,0-0.7,0.1-1,0.3c-0.3,0.2-0.8,0.4-1.4,0.6l-0.3,0.3c-1.6,0.6-2.5,2.1-2.7,4.5    C90.4,23.5,90.7,24.1,91.4,24.1z" fill="rgb(62,62,62)"></path>
	<path d="M124.3,26.7c-0.2,0-0.4-0.1-0.8-0.4c-0.3-0.3-0.7-1.1-1-2.4c-0.3-1.4-0.6-2.3-0.9-2.8c-0.2-0.1-0.5-0.4-0.9-1l-0.1-0.3    c-0.1,0-1.3,1.1-3.7,3.4c-0.1,0-0.1,0-0.1,0.1v0.1c0,0.5-0.5,0.9-1.4,1.3c-0.3,0.2-0.5,0.3-0.6,0.3c-0.7,0-1-0.3-1-0.8    c0-0.9,0-1.5,0.1-2c0.1-0.5,0.1-0.9,0.1-1.3c0-1.1-0.3-1.7-0.9-1.7l-0.5,0.1c-1.7,1.4-2.9,3.4-3.7,5.7c-0.3,0.6-0.7,0.9-1.3,0.9    c-0.3,0-0.6-0.1-1-0.3c-0.4-0.2-0.6-0.4-0.6-0.6c0-0.2,0-0.4,0-0.4c0-0.2,0.1-0.6,0.3-1.1c0.2-0.6,0.3-1.8,0.5-3.6l-0.6-2.8v-0.4    c0-0.4,0.2-0.9,0.6-1.4l0.8-0.3c0.7,0,1.1,0.5,1.4,1.5c0,1.7,0,2.6,0.1,2.8h0.4l1.1-1.1c1.4-1.4,2.6-2.2,3.3-2.2    c0.8,0,1.6,1,2.6,3.1c0.1,0.3,0.2,0.5,0.4,0.5c0.2,0,0.8-0.5,1.9-1.5c1.1-1,1.9-1.5,2.4-1.5c0.9,0,1.5,0.3,1.8,0.8    c0.3,0.6,0.6,1.3,1.1,2.2c0.2,0.3,0.3,0.8,0.4,1.3c0.1,0.5,0.3,0.8,0.8,0.9l-0.1,1c0,0.4,0.2,0.9,0.5,1.3l0.3,1.1    c0,0.3-0.2,0.5-0.6,0.8C124.8,26.6,124.5,26.7,124.3,26.7z" fill="rgb(62,62,62)"></path>
	<path d="M140.4,26.7c-2.4,0-3.6-2.2-3.6-6.5v-0.5c-1,0-2.3-0.2-4-0.6c-0.9-0.1-1.3-0.2-1.3-0.4c0-0.2,0-0.3-0.1-0.3    c0.3-1.1,0.7-1.7,1.1-1.7l0.6,0.1c1.6,0.2,2.8,0.3,3.4,0.3c0.6,0,1-0.7,1.1-2.2c0.2-0.6,0.4-1,0.8-1.3c0-0.3,0.1-0.6,0.4-1.1    l-0.1-0.1c0.1-0.6,0.5-1.2,1.3-1.7c0.8-0.6,1.4-0.8,1.8-0.8c0.4,0,0.6,0,0.6,0.1c1.4,0.8,2.3,2,2.6,3.7c-0.1,0.6-0.5,1.3-1.1,2.2    c-0.7,0.9-1.4,1.4-2.2,1.5c-0.3,0-0.5,0.2-0.7,0.6c-0.2,0.4-0.6,0.6-1.1,0.6h-0.1c-0.3,0-0.4,0.5-0.4,1.5c0,1.4,0,2.3,0.1,2.7    c0,0.5,0.9,1,2.5,1.5c1.2,0.4,2,0.9,2.3,1.5c-0.6,0.3-1,0.5-1.3,0.5h-0.6c-0.1,0-0.4,0.1-0.9,0.2C141.1,26.6,140.7,26.7,140.4,26.7    z M140.6,16.1c0.3-0.2,0.7-0.6,1.2-1.2c0.5-0.6,0.7-1.2,0.7-1.6l-0.1-0.4c-0.1-0.2-0.2-0.3-0.4-0.3c-0.2,0-0.4,0.1-0.6,0.2    c-0.2,0.1-0.5,1.2-1,3.1L140.6,16.1z" fill="rgb(62,62,62)"></path>
	<path d="M188,26.7c-1.5-0.3-2.5-1.4-2.9-3.4l-0.5-6.4c-0.2-1.2-0.4-1.8-0.6-1.8c-0.5,0.5-1.2,0.8-2.2,0.8c-0.4,0-0.6,0-0.6,0.1    c-0.5,0.5-1.4,1-2.7,1.4l-1,0.1h-2.3c-0.3-0.7-0.5-1.2-0.5-1.5c0-0.3,0.3-0.5,0.8-0.7c0.6-0.2,1.2-0.4,1.9-0.5    c0.7-0.1,1.3-0.3,1.9-0.4c0.9-0.4,1.7-0.6,2.2-0.6c0.6,0,1.3-0.3,2.4-0.8c0.3-0.2,0.5-1.3,0.6-3.3c0.2-2,0.4-3.1,0.8-3.3    s0.6-0.2,0.6-0.2c0.6,0,1.1,0.6,1.4,1.9H187c0,0.4-0.1,1.4-0.4,2.8c0,0.3,0.1,0.5,0.3,0.6l0.8-0.3c2.3-1.4,3.7-2.2,4.1-2.5    c0.4-0.3,0.7-0.4,0.9-0.4c0.5,0.3,0.8,0.5,1,0.6c0.1,0.2,0.2,0.3,0.2,0.5c0,0.7-2,2-6.1,4.1c-0.5,0.2-0.8,0.6-0.8,1.1    c0,1.4,0.1,3.3,0.4,5.7c0.1,0.7,0.2,1.4,0.3,2.2c0.1,0.8,0.3,1.1,0.8,1.1c0.5,0,1.8-1,4-2.9l1.5-1l0.1-0.4l1.3-0.8    c0.1,0,0.3,0.1,0.5,0.3c0.3,0.2,0.4,0.4,0.4,0.6c0,0.6-0.3,1.1-0.8,1.5c-0.5,0.4-0.8,0.9-0.8,1.5c-0.3,0.1-0.4,0.2-0.4,0.4    l-2.3,1.4c-0.7,1.1-1.4,1.7-2,1.7c-0.2,0-0.3,0-0.5-0.1c-0.2-0.1-0.3-0.1-0.4-0.1c-0.2,0-0.3,0.2-0.3,0.6L188,26.7z" fill="rgb(62,62,62)"></path>
	<path d="M204.8,26.7c-2,0-3.1-1.3-3.1-4c0-1.4,0.5-3.4,1.5-6c0.1,0,0.2-0.1,0.3-0.4c0.9,0,2.3-0.6,4.2-1.9c1-0.3,1.8-0.6,2.3-0.6    c1.7,0,2.8,0.5,3.2,1.5c0.7,1.7,1,2.7,1,3.1c0,2.4-0.9,3.9-2.6,4.5c-0.1,0-0.1,0-0.1,0.1c-0.5,0.5-1.3,1.1-2.2,1.7    c-1,0.6-1.6,1-2,1.3C206.4,26.4,205.5,26.7,204.8,26.7z M205.3,24.1c0.8,0,2.5-1,5.1-3.1c0.9-0.8,1.4-1.5,1.4-2s-0.2-1-0.7-1.5    c-0.5-0.5-1-0.8-1.5-0.8c-0.3,0-0.7,0.1-1,0.3c-0.3,0.2-0.8,0.4-1.4,0.6l-0.3,0.3c-1.6,0.6-2.5,2.1-2.7,4.5    C204.3,23.5,204.6,24.1,205.3,24.1z" fill="rgb(62,62,62)"></path>
	<path d="M246.9,26.7c-2,0-3.1-1.3-3.1-4c0-1.4,0.5-3.4,1.5-6c0.1,0,0.2-0.1,0.3-0.4c0.9,0,2.3-0.6,4.2-1.9c1-0.3,1.8-0.6,2.3-0.6    c1.7,0,2.8,0.5,3.2,1.5c0.7,1.7,1,2.7,1,3.1c0,2.4-0.9,3.9-2.6,4.5c-0.1,0-0.1,0-0.1,0.1c-0.5,0.5-1.3,1.1-2.2,1.7    c-1,0.6-1.6,1-2,1.3C248.5,26.4,247.7,26.7,246.9,26.7z M247.4,24.1c0.8,0,2.5-1,5.1-3.1c0.9-0.8,1.4-1.5,1.4-2s-0.2-1-0.7-1.5    c-0.5-0.5-1-0.8-1.5-0.8c-0.3,0-0.7,0.1-1,0.3c-0.3,0.2-0.8,0.4-1.4,0.6l-0.3,0.3c-1.6,0.6-2.5,2.1-2.7,4.5    C246.4,23.5,246.7,24.1,247.4,24.1z" fill="rgb(62,62,62)"></path>
	<path d="M264.1,26.7h-0.3c-0.1,0-0.2,0-0.3,0c-0.1,0-0.1-0.1-0.1-0.4c-1-1.4-1.5-3.1-1.5-5.1c0.3-0.8,0.4-1.9,0.4-3.4    c0-0.9,0.3-1.6,1-2l0.6-0.4c0.7,0.3,1,0.7,1,1.3l-0.1,1.8c-0.3,1-0.4,1.8-0.4,2.3c0,1.1,0,1.9,0.1,2.4l0.5,0.4    c0.3-0.4,0.6-0.6,0.9-0.6c2-0.7,3.1-2.6,3.3-5.6c0-1.9,0.5-2.8,1.5-2.8l0.4,0.1c0.3,0.1,0.6,0.3,0.7,0.5c0.1,0.3,0.2,0.7,0.2,1.4    c0,1.8,0.3,3.4,0.8,4.9c0.1,0.3,0.2,0.7,0.3,1.4c0.1,0.7,0.2,1.2,0.3,1.5c0.1,0.3,0.2,0.5,0.2,0.7c0,0.9-0.3,1.3-0.9,1.3    c-0.3,0-0.9-0.6-1.8-1.8V24l-0.8-1.3c-0.4,0.4-0.9,0.8-1.4,1.1C267,25.4,265.4,26.3,264.1,26.7z" fill="rgb(62,62,62)"></path>
	<path d="M281.7,26.7c-0.3,0-0.6-0.2-1.1-0.7c-0.5-0.5-0.8-1-0.8-1.5c0-0.1,0-0.2,0.1-0.3c0-0.1,0-0.2-0.2-0.4c0.7-1,1-2.5,1-4.3    c0-0.2,0-0.4-0.1-0.7c-0.1-0.3-0.1-0.9-0.2-1.9c0-0.9-0.2-1.8-0.6-2.6c-0.1-0.9-0.2-1.5-0.4-1.7c-0.2-0.2-0.3-1-0.3-2.2    c0-0.6,0.2-0.9,0.6-0.9c0.4,0,0.8,0.1,1.3,0.4c0.6,0,0.9,0.5,0.9,1.4c0.4,3.8,0.7,5.7,0.9,5.7c0.2,0,0.4-0.1,0.8-0.4    c0.3-0.3,0.5-0.5,0.6-0.7c0-0.2,0.2-0.3,0.4-0.3c0.5-0.3,1.1-0.9,1.8-1.9c0.7-1,1.4-1.6,2-1.9c0.2-0.1,0.4-0.5,0.8-1.3    c0.3-0.3,1-0.5,2-0.5c0.4,0,0.6,0.2,0.6,0.6c-0.5,0.2-0.8,0.3-0.9,0.4c0,0.6-0.6,1.5-1.7,2.7c-1.1,1.2-1.9,2.3-2.1,3.1    c-0.7,0.4-1.1,0.9-1.4,1.3c-1.8,1.7-2.7,3.4-2.7,5v0.9c0,0.3-0.1,0.8-0.3,1.5C282.6,26.4,282.3,26.7,281.7,26.7z" fill="rgb(62,62,62)"></path>
	<path d="M324.8,26.7c-0.8,0-1.3-0.4-1.5-1.1c0-0.6-0.1-1-0.3-1.1c0-1.1-0.1-2.6-0.4-4.6c-0.1-0.6-0.1-1.6-0.1-2.9    c0-0.6,0.3-0.9,0.9-0.9c0.1,0,0.3,0.1,0.6,0.4c0.5,0.5,0.8,0.9,0.8,1.1c0,0.2,0.2,2,0.6,5.4l0.3,0.3c0.1-0.1,0.6-0.5,1.5-1.1    c1.4-1.4,2.3-2.4,2.7-3c0.4-0.6,0.8-1,1.1-1c0.7,0,1.7,1.4,3.1,4.2c0.7,0,1.3-0.8,1.8-2.6l1.1-2.9c0.2-1.6,0.7-2.6,1.5-3.1l0.3-0.1    c0.2,0,0.4,0.1,0.7,0.4c0.3,0.3,0.4,0.5,0.4,0.6l-0.1,2c0,0.8-0.7,2.4-2,4.8c-1.3,2.4-2.5,3.8-3.5,4.1c-1.2,0-2.1-1-2.7-2.9    c-0.3-0.4-0.6-0.6-0.9-0.6c-0.3,0-0.8,0.3-1.3,1s-0.9,1-1.1,1.1c-0.2,0.1-0.6,0.5-1.1,1.1c-0.5,0.6-1,1-1.4,1.2    C325.5,26.6,325.1,26.7,324.8,26.7z" fill="rgb(62,62,62)"></path>
	<path d="M355.3,26.7c-2.4,0-3.6-2.2-3.6-6.5v-0.5c-1,0-2.3-0.2-4-0.6c-0.9-0.1-1.3-0.2-1.3-0.4c0-0.2,0-0.3-0.1-0.3    c0.3-1.1,0.7-1.7,1.1-1.7l0.6,0.1c1.6,0.2,2.8,0.3,3.4,0.3c0.6,0,1-0.7,1.1-2.2c0.2-0.6,0.4-1,0.8-1.3c0-0.3,0.1-0.6,0.4-1.1    l-0.1-0.1c0.1-0.6,0.5-1.2,1.3-1.7c0.8-0.6,1.4-0.8,1.8-0.8c0.4,0,0.6,0,0.6,0.1c1.4,0.8,2.3,2,2.6,3.7c-0.1,0.6-0.5,1.3-1.1,2.2    c-0.7,0.9-1.4,1.4-2.2,1.5c-0.3,0-0.5,0.2-0.7,0.6c-0.2,0.4-0.6,0.6-1.1,0.6h-0.1c-0.3,0-0.4,0.5-0.4,1.5c0,1.4,0,2.3,0.1,2.7    c0,0.5,0.9,1,2.5,1.5c1.2,0.4,2,0.9,2.3,1.5c-0.6,0.3-1,0.5-1.3,0.5h-0.6c-0.1,0-0.4,0.1-0.9,0.2S355.5,26.7,355.3,26.7z     M355.4,16.1c0.3-0.2,0.7-0.6,1.2-1.2c0.5-0.6,0.7-1.2,0.7-1.6l-0.1-0.4c-0.1-0.2-0.2-0.3-0.4-0.3c-0.2,0-0.4,0.1-0.6,0.2    c-0.2,0.1-0.5,1.2-1,3.1L355.4,16.1z" fill="rgb(62,62,62)"></path>
	<path d="M379.4,26.6l-0.8-0.3c-0.9-0.4-1.2-1.2-1.1-2.4V23c0-0.3-0.1-0.9-0.3-1.9l-0.8-4.5c0-0.1-0.1,0-0.3,0.4    c-0.3,0.9-1.3,2.2-2.8,3.8c-0.5,0.6-2,1.4-4.5,2.4h-0.5c-1.9-0.3-2.9-1.1-2.9-2.6c0-0.6,0.2-1.3,0.5-2l1.8-2.7    c0.9-1.6,2.3-2.3,4.2-2.2c0.5,0,1.2,0.4,2,1.3l0.5-0.5l0.5-4.6c0-0.3,0-1.2,0.1-2.7c0-0.8,0-1.4,0-1.9c0-1,0.4-1.8,1.3-2.3    c0.9,0,1.4,1.5,1.5,4.5c0.2,3,0.3,5,0.3,5.8c0.1,0.3,0.4,2.5,1,6.5l0.3,2.7c0,0.6,0.1,1.2,0.4,1.9c0.3,0.6,0.4,1.1,0.3,1.3    C380.2,26.4,379.9,26.6,379.4,26.6z M368.7,20.9c0.2,0,0.6-0.2,1.2-0.6c0.6-0.4,1.2-0.9,1.8-1.4c0.6-0.5,0.8-0.9,0.8-1.1    c0-0.2-0.2-0.6-0.5-1.3c-0.2-0.3-0.3-0.4-0.5-0.4c-0.2,0-0.6,0.3-1.4,0.9c-0.8,0.6-1.3,1.2-1.5,1.7c-0.2,0.6-0.3,0.9-0.3,1.1    C368.2,20.6,368.3,20.9,368.7,20.9z" fill="rgb(62,62,62)"></path>
	<path d="M399.8,26.6l-0.8-0.3c-0.9-0.4-1.2-1.2-1.1-2.4V23c0-0.3-0.1-0.9-0.3-1.9l-0.8-4.5c0-0.1-0.1,0-0.3,0.4    c-0.3,0.9-1.3,2.2-2.8,3.8c-0.5,0.6-2,1.4-4.5,2.4h-0.5c-1.9-0.3-2.9-1.1-2.9-2.6c0-0.6,0.2-1.3,0.5-2l1.8-2.7    c0.9-1.6,2.3-2.3,4.2-2.2c0.5,0,1.2,0.4,2,1.3l0.5-0.5l0.5-4.6c0-0.3,0-1.2,0.1-2.7c0-0.8,0-1.4,0-1.9c0-1,0.4-1.8,1.3-2.3    c0.9,0,1.4,1.5,1.5,4.5c0.2,3,0.3,5,0.3,5.8c0.1,0.3,0.4,2.5,1,6.5l0.3,2.7c0,0.6,0.1,1.2,0.4,1.9c0.3,0.6,0.4,1.1,0.3,1.3    C400.6,26.4,400.3,26.6,399.8,26.6z M389.1,20.9c0.2,0,0.6-0.2,1.2-0.6c0.6-0.4,1.2-0.9,1.8-1.4c0.6-0.5,0.8-0.9,0.8-1.1    c0-0.2-0.2-0.6-0.5-1.3c-0.2-0.3-0.3-0.4-0.5-0.4c-0.2,0-0.6,0.3-1.4,0.9c-0.8,0.6-1.3,1.2-1.5,1.7c-0.2,0.6-0.3,0.9-0.3,1.1    C388.6,20.6,388.8,20.9,389.1,20.9z" fill="rgb(62,62,62)"></path>
	<path d="M407.5,26.7c-0.3,0-0.5-0.1-0.7-0.3c-0.2-0.2-0.3-0.5-0.3-0.8c0-1.1,0.9-4.1,2.7-8.9c0.3-0.8,0.8-1.3,1.3-1.3    c0.3,0,0.6,0.2,0.9,0.6c0.3,0.4,0.5,0.7,0.6,1c0,0.2,0.1,0.7,0.1,1.3c0,1.3,0.3,2.8,0.8,4.6c0,0.4,0.1,0.6,0.4,0.6    c0.4-0.3,1.1-1,1.9-2.3c0.3-0.3,0.6-0.5,0.8-0.5c0.8,0.1,1.1,0.6,1.1,1.4c0,1.1-0.6,2.3-1.9,3.6c0,0.1-0.1,0.3-0.4,0.5    c-0.3,0.3-0.6,0.4-1,0.4c-1,0-1.9-0.4-2.6-1.1c-0.7-0.7-1-1.5-1-2.2c0-0.2-0.1-0.3-0.2-0.4c-0.1-0.1-0.2-0.2-0.2-0.3l-0.5,0.6    l-0.1,2.6C408.8,26.4,408.2,26.7,407.5,26.7z M412.5,4.9c-0.6,0-1-0.2-1.1-0.5c-0.1,0-0.5-1-1.1-2.9c0.3-0.9,0.8-1.4,1.8-1.4    c0.4,0,1,1.3,1.7,3.8C413.6,4.5,413.2,4.9,412.5,4.9z" fill="rgb(62,62,62)"></path>
	<path d="M433.7,26.7c-0.6,0-1-0.8-1.1-2.4c-0.1-0.4-0.1-2-0.1-4.9l-0.4-0.8c-0.7-2.5-1-3.7-1.1-3.8c0,0-0.2-0.1-0.3-0.2    c-0.4,0.3-0.7,0.5-0.9,0.8c-2.2,2.3-3.5,4.4-4,6.3c-0.5,1.4-1.1,2-1.9,2c-0.1,0-0.3,0-0.5-0.1c-0.3-0.1-0.4-0.3-0.5-0.5    c-0.1-0.3-0.1-0.5-0.1-0.6l0.1-0.5c0.4-1,0.6-2.5,0.6-4.5c0-0.5,0.2-2.7,0.6-6.6c0-0.8,0.4-1.1,1.1-1.1c0.9,0,1.3,0.5,1.3,1.5    c-0.3,1.5-0.4,2.8-0.4,3.7c0,0.3,0,0.6,0.1,0.8l0.5-0.4c0.8-1.3,1.8-2.1,2.9-2.6l0.1-0.3c0.2-0.7,0.6-1,1.3-1    c0.7,0,1.3,0.3,1.7,0.8c0.5,0.5,0.7,1.1,0.7,1.7v0.3c0.1,0.2,0.1,0.5,0.1,0.9l0.8,4c0.2,2.1,0.5,4.3,0.9,6.4v0.3    c0,0.3-0.3,0.5-0.9,0.6C434.1,26.6,433.8,26.7,433.7,26.7z" fill="rgb(62,62,62)"></path>
	<path d="M451.9,43.5c-0.5,0-1.2-0.2-2.2-0.5c-2.5-0.6-4.5-1.5-6-2.8l-1.1-0.6c-0.6-0.8-0.9-1.6-0.9-2.4c0-2.6,2.9-6.3,8.8-11.1    c0.5-0.3,0.8-0.8,0.8-1.4l-0.3-1.3c-0.3-0.8-0.6-1.1-0.9-1.1c-0.3,0-0.6,0.1-1,0.4c-0.4,0.3-0.8,0.4-1.3,0.4    c-1.4,0-2.4-0.6-2.9-1.7l-0.9-2.7l0.6-1.3v-0.6c0.2-0.7,0.3-1.6,0.3-2.8l0.5-0.8c0.3-0.3,0.6-0.6,0.8-0.9c0.3-1,1.2-1.5,2.6-1.5    c2.1,0,3.4,1.1,4,3.2c0.2,0.9,0.4,1.7,0.8,2.2l0.1,0.4c-0.2,0.3-0.3,0.6-0.3,1v1l-0.1,1.3c0,1.2,0.2,2.2,0.5,3.1l0.1,0.3    c0.4-0.3,0.8-0.6,1.3-0.9c0.8-0.3,1.4-0.8,1.9-1.3c0.3-0.1,0.8-0.1,1.3-0.1v0.5l0.1,0.3c0,0.1-0.1,0.3-0.4,0.8    c-1,1.4-1.9,2.3-2.7,2.9c-0.8,0.6-1.3,0.9-1.3,1l-0.1,0.8l0.3,1c0.3,1.9,0.4,3.1,0.4,3.8c0,0.6,0.1,1.3,0.3,2    c0.3,1.4,0.4,3,0.4,4.6C455.1,41.8,454,43.5,451.9,43.5z M451.3,41.1c0.3,0,0.5-0.1,0.8-0.2c0.3-0.1,0.4-2,0.4-5.6l-0.4-3.3    c0-1.1-0.2-2.3-0.6-3.7c-0.1,0.1-0.3,0.3-0.6,0.6c-0.3,0.3-0.7,0.7-1.1,1.1c-0.9,0.6-1.4,1.1-1.7,1.4c-2.5,2.6-3.7,4.6-3.7,6    c0,0.4,1.2,1.2,3.7,2.4C450.1,40.7,451.1,41.1,451.3,41.1z M447.6,20.3c0.3,0,0.7-0.2,1.3-0.6c0.6-0.4,1.2-1.4,1.6-2.9l-0.1-1    c-0.2-0.8-0.3-1.3-0.4-1.7c-0.1-0.4-0.5-0.6-1.1-0.6c-0.8,0-1.3,0.8-1.7,2.4c-0.4,1.6-0.6,2.7-0.6,3.2c0,0.3,0.1,0.6,0.3,0.9    C447.1,20.2,447.3,20.3,447.6,20.3z" fill="rgb(62,62,62)"></path>
</g></svg>