<svg xmlns="http://www.w3.org/2000/svg" x="0px" y="0px" viewBox="0 0 357.6 57.3" style="vertical-align: middle; max-width: 100%; width: 100%;" width="100%"><g>
	<path d="M11.5,28.1c0-0.5,0-0.9-0.1-1c-0.1-0.1-0.1-0.2-0.1-0.3c0-0.3,0.2-0.7,0.5-1c0.3-0.3,0.7-1.4,1.2-3.3v-0.3h-0.3    c-0.2,0.5-0.8,1.1-1.8,1.8c-1.1,1.7-2.3,2.6-3.5,2.8c-0.3,0-0.5,0.1-0.7,0.2c-0.2,0.1-0.4,0.2-0.5,0.2c-0.2,0-0.4,0-0.5-0.1    c-0.5-0.8-0.8-1.4-0.8-2L6,17.8C6.6,16.2,7,14.8,7,13.6c-0.4,0-0.7,0.1-0.7,0.4c0,0.3-0.5,0.5-1.4,0.8c-0.4,0-0.6,0-0.7,0.1    c-0.9,0.7-1.7,1-2.5,1c-0.4,0-0.7,0-1.1-0.1C0.2,15.8,0,15.5,0,15.1c0-0.6,0.2-1,0.5-1.2c0.3-0.2,0.9-0.4,1.7-0.7    c2-0.5,3.8-1.4,5.5-2.5c1.3-0.3,2.3-0.7,3-1.2l0.4-0.1c0.4,0,0.7,0.2,0.8,0.5c0,0.3,0,0.5-0.1,0.7c-0.1,0.2-0.2,0.5-0.3,0.7    c-1,0.4-1.6,1-1.8,1.6l-0.4,0.5v0.8c0.2,0.4,0.3,0.6,0.3,0.8c0,0.2-0.2,0.4-0.7,0.5l-0.1,0.3C9,16,9.1,16.2,9.1,16.4    c0,0.3-0.2,0.7-0.7,1.4c0,0.4-0.1,1.1-0.4,2c-0.2,0.4-0.4,1.4-0.5,3l0.1,0.7c0.3,0,0.7-0.3,1.2-0.9c1.6-1.4,2.6-2.4,3.1-3    c0.5-0.6,1.3-0.9,2.2-0.9c0.5,0,1,0.1,1.3,0.4c0.2,0,0.3,0.3,0.3,0.8c0,1.1-0.4,3-1.2,5.5C14,27.2,13,28.1,11.5,28.1z M10.8,44.7    c-1.3,0-2.1-0.6-2.2-1.7c0-3.1-0.1-5-0.3-5.5c-0.1,0-0.6,0.2-1.4,0.7c-1.6,1-2.6,1.5-3.1,1.7c-0.1,0.2-0.3,0.3-0.7,0.3    c-0.6,0-0.9-0.6-0.9-1.7c0-0.3,0.2-0.5,0.5-0.5c3.1-1.7,5.2-2.9,6.1-3.6c0.9-0.7,1.7-1.2,2.4-1.2c0.3-0.1,0.7-0.5,1.3-1.2l0.9-0.5    c0.5,0,1,0.3,1.6,0.9c-1,1-1.9,1.9-2.9,2.7c-1,0.7-1.4,1.8-1.4,3.2c0,1.6,0.1,2.5,0.3,2.8c0.1-0.1,0.2-0.2,0.4-0.4    c0.2-0.2,0.2-0.3,0.1-0.3l-0.1-0.1c0-0.3,0.1-0.5,0.4-0.5l5.6-7.1c0.1,0,0.1,0,0.1-0.1l1.6-3.5c0.3-0.3,0.6-0.4,0.9-0.5    c0.2,0,0.4-0.2,0.5-0.5c0.1-0.3,0.5-0.6,1.2-1c-0.2,0.4-0.3,0.8-0.3,1.2c-0.5,1.6-1.1,3.1-1.7,4.7c-0.4,0.1-0.6,0.5-0.8,1.3    c-0.7,1.4-1.6,2.7-2.6,3.9c0,0.3-0.2,0.4-0.5,0.4l-0.4,0.7c0.1,0.1,0.1,0.2,0.1,0.4c0,0.2-0.2,0.5-0.7,0.9c-1,1-1.5,1.8-1.7,2.4    c-0.2,0.6-0.7,1.2-1.7,1.8L10.8,44.7z M65.1,48.4c-0.6,0-1.1-0.2-1.6-0.5c-1.3-1.3-2.7-2.2-4.1-2.6c-1.5-0.9-7-3.7-16.7-8.4    c-7.3-3.1-11.1-4.7-11.4-4.7c-0.3,0-0.6,0.4-1,1l-0.4,0.3c-2.7,4.5-4.9,8.4-6.6,11.8V46c0.2,0.3,0.3,0.6,0.3,0.8    c0,0.2-0.4,0.3-1.2,0.3c-0.4,0-0.8,0-1.3-0.1c-0.5,0-0.8-0.5-0.8-1.2c0-0.7,0.4-1.4,1.2-2v-0.4c-0.3-0.3-0.4-0.5-0.4-0.7    c0-0.2,0.1-0.3,0.4-0.3s0.4,0,0.4-0.1c0.7-0.5,1.7-2,2.9-4.5c2.5-4.5,3.8-6.8,3.8-7.1c0-0.2-1.4-0.8-4.3-1.8    c-0.4-0.2-0.7-0.5-0.9-0.9c-0.3-0.4-0.4-0.7-0.4-0.9c0-0.4,0.4-0.7,1.2-0.7c0.3,0,1.7,0.4,4.1,1.3l1.8,0.7c0.2,0,0.3-0.1,0.5-0.4    c0.3-0.9,0.8-1.8,1.2-2.7c0.5-0.9,1.6-3.6,3.5-7.9c0.2-0.1,0.3-0.2,0.3-0.3H35c-1.6,1-2.5,1.4-2.8,1.4c-0.8,0.3-1.4,0.8-1.7,1.6    c-0.4,0.8-1,1.2-1.8,1.2c-1.7,0-2.5-0.6-2.5-1.8c0-0.3,0.1-0.7,0.3-1.2c1-1.9,2-4.3,3-7.1c0.2-0.3,0.3-0.6,0.4-0.9    c0.1-0.3,0.2-0.7,0.5-1c0.2-0.3,0.5-0.5,1-0.5c0.1,0,0.2,0.1,0.5,0.3c0.2,0.2,0.4,0.6,0.6,1.1l-2.6,6.6c-0.2,0.1-0.4,0.4-0.7,0.8    V18h0.3l3-1.7c2.6-1.1,4.1-1.7,4.5-1.7c0.7,0,1.2,0.4,1.6,1v0.3c0,0.4-0.7,2.4-2.2,6l-1.3,3.3c-0.4,0.4-0.8,1-1.1,1.9    c-0.3,0.9-0.7,1.6-1.1,1.9v0.3c0.3,0.4,0.7,0.7,1.3,0.9c4.7,2.3,8.1,3.8,10.2,4.6l1,0.5c5.3,2.8,8.3,4.3,8.9,4.6    c2.4,0.9,4.1,1.7,5,2.4c0.7,0.2,1.1,0.3,1.2,0.4c1.6,0.7,3.1,1.6,4.5,2.8c0.7,0.2,1,0.7,1,1.6C65.9,47.9,65.6,48.4,65.1,48.4z" fill="rgb(3,3,3)"></path>
	<path d="M76.6,38.3h-0.4c-0.5,0-1-0.2-1.6-0.5c-0.5-0.3-0.8-2.4-0.8-6.2c0-1.7-0.1-2.6-0.3-2.7c-0.2,0-0.3-0.1-0.3-0.2l-0.7,0.1    c-0.2,0-0.4-0.1-0.5-0.3c-0.2-0.2-0.3-0.4-0.5-0.7c-0.1-0.3-0.2-0.5-0.2-0.8c0-0.3,0.1-0.6,0.4-0.8c0.9-0.5,1.7-1.1,2.5-1.8    c0-0.9,0.4-1.7,1.3-2.4c0-0.2,0-0.3,0.1-0.3c0.1,0,0.3-0.2,0.5-0.3c0.1,0.6,0.1,1.1,0.1,1.4c1-0.4,1.7-1,2.4-1.8    c0.3-0.1,0.6-0.1,0.9-0.1l0.7,0.1c0,0.4-0.1,0.7-0.3,0.9c-0.2,0.1-0.5,0.5-1,1c-0.2,0.7-0.6,1.3-1.2,1.8c-1.3,0.8-2,1.6-2,2.5    c0.1,1.4,0.1,3.5,0.1,6.3l0.4,1.7c1.2-0.7,2.4-1.8,3.4-3.4c2.8-4.1,4.3-6.5,4.5-7.2c0-0.3,0.2-0.7,0.6-0.9s0.7-0.5,1-0.7    c0,0.5-0.1,0.9-0.2,1.1c-0.1,0.2-0.2,0.4-0.3,0.5c0.2,0.2,0.3,0.3,0.3,0.4c0,0.3-0.1,0.4-0.3,0.5c-0.2,0.1-0.6,1-1.2,2.9    c-2.6,4.9-4.3,7.6-5.1,8C79,37.5,78.2,38.1,76.6,38.3z M77.1,18c-0.5-0.3-1.3-0.4-2.2-0.5c-1.8,0-2.8-0.5-2.8-1.4    c0-0.3,0.2-0.6,0.5-0.9c0.3-0.3,0.7-0.5,1-0.5c0.8,0,1.3,0,1.6,0.1c0.6,0.4,2,0.5,4.1,0.5c1.4,0,2.1,0.4,2.1,1    c0,0.2-0.1,0.4-0.4,0.7c-0.3,0.3-0.4,0.5-0.5,0.5C79.1,17.8,78,18,77.1,18z M89.2,20.1l-0.7-1.4l2.6-4.7c3.9-6.2,6.1-9.9,6.6-11.2    l1.2-1.8c0.1-0.3,0.2-0.5,0.4-0.5c0.2,0,0.3,0.1,0.5,0.3c0.1,0.2,0.3,0.3,0.7,0.3c0.3,0,0.5,0.2,0.5,0.6c0,0.2-0.1,0.4-0.2,0.5    c-0.1,0.2-0.3,0.6-0.6,1.2c-0.3,0.7-0.8,1.7-1.7,3.2l-0.5,1.2c0,0.2,0.1,0.3,0.4,0.4l11.9,3.1c1.9,0,3.7,0.7,5.2,2    c0.7,0.2,1,0.6,1,1.2c0,0.6-0.4,0.9-1,0.9c-1,0-1.7-0.1-1.8-0.4c-0.4-0.6-1-0.9-2-0.9H111c-1.7,0-4.8-0.8-9.4-2.4    c-1.8-0.6-3-0.9-3.7-0.9c-1.1,0-1.7,0-1.7,0.1c-0.8,0.9-2,2.6-3.7,5.2c-0.7,1.2-1.2,2-1.4,2.2C90.5,19,89.9,19.5,89.2,20.1z     M98.3,56.9c-0.4,0-0.7-0.1-1-0.4l-1.7-3.1c0.2-0.3,0.3-0.5,0.4-0.9c0.1-0.3,0.3-0.5,0.5-0.5c0.9,0,1.4,0.3,1.6,1    c0.2,0.7,0.4,1,0.7,1c0.3,0,0.9-0.4,1.7-1.2c3.2-3.4,5.5-6.9,6.8-10.5l0.8-3c0-0.4-1.4-0.9-4.1-1.4c-1.1-0.2-1.7-0.7-1.7-1.7    c0-0.2,0.9-2.6,2.6-7.2c0.3-0.5,0.6-0.8,1-0.8c0.2,0,0.4,0.1,0.6,0.3c0.2,0.2,0.5,0.3,0.9,0.4c0,0.8-0.3,1.5-0.9,2.2    c-0.9,2.4-1.3,3.6-1.3,3.8c0,0.5,0.4,0.9,1.3,1.1c0.9,0.2,1.7,0.4,2.6,0.6c1,0.4,1.4,1,1.4,1.7l-0.1,0.4c-0.5,1.8-0.9,3.2-1,4.3    c-1.3,4.1-4,8.3-8,12.6C101,56.1,100,56.5,98.3,56.9z M97.7,35.2h-0.5C96.4,34.9,96,34.5,96,34c0-0.3,0.1-0.7,0.4-1.2    c0.5-2.1,1.8-4.9,3.8-8.5c0.3-0.9,0.8-1.7,1.2-2.4c0.5-0.7,0.8-1.2,0.9-1.3c0.1-0.1,0.7-0.4,2-0.7l0.4,0.5c-2.9,6-4.5,9.1-4.7,9.3    c-1.1,2.2-1.7,3.7-1.7,4.6L97.7,35.2z" fill="rgb(3,3,3)"></path>
	<path d="M123.2,25.6c-0.6-0.6-0.9-1-0.9-1.3c0.3-0.8,0.7-1.3,1.2-1.4c5.9-1.5,9-2.4,9.4-2.6c0.3,0.1,0.4,0.2,0.4,0.3l0.4-0.1    c2.6-1,6.4-2,11.4-2.8l15.7-3.1c0.5,0,0.9,0.1,1.2,0.3c0.2,0,0.3-0.1,0.5-0.2c0.2-0.1,1.1-0.3,2.8-0.5c1.7-0.2,2.5-0.4,2.6-0.6    c0.6-0.3,1.3-0.4,2.1-0.4c0.9,0,1.6,0.1,2.1,0.3l0.4-0.1c0.7,0,1.2,0.5,1.6,1.4c0.1,0,0.1,0.1,0.1,0.4h-0.1    c-0.2,0.4-0.6,0.7-1.3,0.7c-0.4,0-0.8-0.1-1-0.3c-0.2-0.2-0.4-0.3-0.5-0.3c-0.3,0-0.5,0.2-0.7,0.5c-0.2,0.3-0.5,0.5-0.9,0.5    c-0.2,0-0.4-0.1-0.5-0.3c-0.2-0.2-0.4-0.3-0.5-0.3c-0.8,0.5-1.9,0.8-3.4,0.8c-0.9,0-3.8,0.4-8.8,1.3c-2.9,0.9-5.2,1.3-7,1.3    c-0.5,0-2.1,0.4-4.9,1.3c-1.8,0.4-2.9,0.6-3.2,0.7c-0.3,0.1-0.6,0.2-0.9,0.2c-1.2,0.5-5.7,1.7-13.4,3.4c-0.6,0.2-1.4,0.5-2.4,0.9    L123.2,25.6z M182.9,57.3l-0.1-0.8l0.1-0.3c0-0.1-0.2-0.1-0.5-0.1c-0.4,0-3.2-1.1-8.7-3.4c-2.2-1.1-4.4-2.2-6.6-3.1    c-2-1.1-3.4-1.8-4.2-2.1c-1.7-0.5-2.8-1.1-3.5-1.7c-0.3-0.3-0.8-0.4-1.7-0.4c-0.8,0-1.4,0.4-1.7,1.2c-0.3,0.6-0.9,1.4-2,2.5    c-1.1,1-2,2.2-2.8,3.4l-2.6,3c-0.8,0.7-1.6,1-2.5,1l-0.5-0.7c0-0.5,0.2-1,0.7-1.4c0.4-0.4,1.2-1.4,2.2-2.8    c5.8-6.4,8.7-9.8,8.9-10.1h-0.5c-1.8,1-4.3,1.9-7.6,2.9l-0.8-0.4l-0.1-0.9c0-0.3,0.2-0.6,0.6-0.7s0.6-0.5,0.6-1.1l-0.1-6.7l0.7-4.5    c0-1.7,0.1-3.3,0.3-5c0.1-0.2,0.1-0.6,0.1-1.3v-0.4c0-0.4,0.5-0.7,1.4-0.7c0.4,0,0.7,0.4,0.9,1c0.2-0.2,0.3-0.3,0.5-0.3    c1.7-1.2,3.1-1.8,4.5-1.8c0.3,0,0.7,0,0.9,0.1c2.1,1.5,3.1,2.9,3.1,4.3c0,3.1-0.2,5.4-0.5,7.1l-0.8,4.3c0,0.3,0.3,0.7,0.8,1.2    c0,0.1,0,0.2,0.1,0.2c0.1,0,0.1,0.2,0.1,0.3l-0.1,0.3c-0.2,0.8-0.7,1.6-1.7,2.5l-0.3,1.3c0.1,0,0.3,0.1,0.7,0.3    c0.4,0.2,0.6,0.3,0.7,0.3c0.2,0,0.3,0,0.4-0.1l0.8,0.1c0,0.5,0.4,0.9,1.2,1c1.7,0.6,4.2,1.8,7.2,3.5l2.2,0.9c1.4,0.9,3.9,2,7.5,3.3    c3.1,1,5.1,2.1,5.9,3.3C186,56.9,185,57.3,182.9,57.3z M149.8,15.1h-0.4c-0.4,0-0.7-0.1-1-0.4c-0.4-0.3-0.9-2-1.7-5.1    c-0.7-1.6-1-2.7-1-3.4c0-0.2,0.1-0.5,0.3-0.9c0.2-0.4,0.3-0.6,0.5-0.6c0.3,0,0.6,0.1,1,0.4h0.4c0.3,0,0.8-0.1,1.4-0.4    c0.6-0.3,1-0.6,1.1-1.1c0.1-0.5,0.2-1,0.3-1.5h-0.1c0-1.4,0.3-2.1,1-2.1c0.1,0,0.2,0.1,0.5,0.2c0.2,0.1,0.5,0.2,0.7,0.3    c0.3,0.1,0.4,0.3,0.4,0.5s-0.1,0.4-0.2,0.5c-0.1,0-0.2,0.1-0.2,0.2c0,0.1,0.1,0.4,0.3,1c0.2,0.6,0.3,1,0.4,1    c0.1,0.1,0.3,0.1,0.5,0.1c0.3,0,0.6,0,0.9-0.1c0.2-0.1,0.5-0.1,0.9-0.1c1,0,1.9,0.1,3,0.4c1,0.3,1.5,0.8,1.5,1.6    c0,0.3-0.1,0.6-0.4,1c-0.4,1-0.9,1.6-1.4,1.8c-0.4,0.7-1,1.2-1.8,1.6c-1,0.6-1.7,1-2,1.3c-0.3,0.3-1.2,0.7-2.7,1.2    c-0.1,0-0.2-0.1-0.4-0.3c-0.2-0.2-0.4-0.3-0.7-0.3c-0.3,0-0.5-0.1-0.7-0.2c0,0.6,0.1,1,0.2,1.3c0.1,0.3,0.2,0.6,0.2,1    C150.5,14.7,150.2,15,149.8,15.1z M151.4,10.2c0.4,0,1.3-0.4,2.5-1.2c2.1-1.4,3.1-2.3,3.1-2.8h-2.5c0-0.1,0-0.1-0.1-0.1    c-0.7,0.4-1.2,0.5-1.4,0.5s-0.5,0.2-0.8,0.7c0,0.3-0.1,0.5-0.2,0.7c-0.1,0.2-0.3,0.6-0.5,1.3c-0.3,0.4-0.4,0.6-0.4,0.8    C151.1,10.2,151.2,10.2,151.4,10.2z M152.6,40.8c1.4-0.3,3.4-1,5.9-2.1c0.3,0,0.4-0.1,0.4-0.3c-0.6,0-1.1-0.2-1.5-0.5    c-0.4-0.3-0.8-0.5-1.1-0.5c0-0.6,0-1,0.1-1.3l1.7-0.3c0.2-0.1,0.3-0.2,0.5-0.3c0.1-0.1,0.2-0.7,0.2-2h-0.3l-2.2,0.9    c-2.7,1.5-4.1,2.3-4.1,2.5c0,0.2-0.2,1.2-0.5,3c0.1,0.4,0.2,0.7,0.3,0.7c0.1,0,0.2,0,0.3,0H152.6z M152.8,33.5l6-2.2l0.4-0.7    c0-1,0-1.9,0.1-2.5v-0.3c-0.3,0.4-0.5,0.7-0.7,1c-0.2,0.4-0.6,0.5-1.1,0.5l-0.3-0.1v0.1l-4.3,1.8c-0.7,0.4-1.1,0.8-1.2,1.4    c0,0.5,0.3,0.8,0.8,0.8H152.8z M154.5,27.8l4.7-2c0-1-0.4-1.4-1-1.4c-0.4,0-0.8,0.1-1.3,0.4c-1,0.3-1.5,0.5-1.7,0.7    c-0.2,0.2-0.6,0.9-1.3,2.2l0.1,0.1H154.5z" fill="rgb(3,3,3)"></path>
	<path d="M198.7,39.4c-0.4,0-0.7-0.3-0.9-0.8l0.7-1.6l-1.7,0.1c-0.1,0-0.3-0.1-0.5-0.4v-0.1c0-0.2,0.1-0.3,0.2-0.5    c0.1-0.2,0.2-0.8,0.2-2c1-7.5,1.4-12.7,1.4-15.5c0-0.5,0-0.8-0.1-0.9l-1.8,1.4l-0.8,0.1c-0.6,0-0.9-0.4-0.9-1.2    c0-0.7,1.5-2,4.6-3.9c1.6-1.3,3.7-2.4,6.3-3.1c0.3,0,0.7,0.4,1.4,1c-0.3,0.4-0.5,0.6-0.9,0.8c-0.3,0.2-0.6,0.4-1,0.8    c-2.1,1.1-3.4,1.9-3.9,2.4c-0.1,0-0.4,2.1-0.8,6.4c0,0.7,0.3,1,0.9,1c3.1,0,4.6,2.1,4.6,6.2c0.1,0.3,0.1,0.4,0.1,0.5h0.1    c0.2,0,0.3,0,0.3-0.1c0-0.1,0.7-0.4,2-1l1,0.1c-0.2,0.3-0.3,0.5-0.3,0.6c0,0.1-0.2,0.3-0.6,0.6c-1.8,1.6-3.1,3.1-4.1,4.7l-0.4,0.7    l-1-0.1v-0.1c-0.4,0.1-0.9,0.8-1.5,2C200.8,38.7,199.9,39.4,198.7,39.4z M198.9,36.1c0.3-0.1,0.5-0.1,0.6-0.1s0.5-0.3,1-0.9    c1.9-1.3,2.9-2.8,2.9-4.3c0-0.3-0.2-0.5-0.7-0.5c-0.8,0.1-1.5,0.3-2,0.6c-0.6,0.3-1,0.6-1.2,0.9c-0.2,0.3-0.3,0.6-0.3,0.9l0.1,0.7    c0,0.4-0.2,1.2-0.7,2.2C198.6,35.7,198.7,35.9,198.9,36.1z M199.8,28.3c0.8,0,1.6-0.2,2.4-0.5h0.7c-0.1-0.2-0.1-0.4-0.1-0.8    l-1.2-0.9c-0.1,0-0.3,0.1-0.5,0.2c-0.3,0.1-0.5,0.2-0.8,0.3c-0.3,0.1-0.4,0.4-0.4,0.8c0,0.4-0.1,0.7-0.3,0.7L199.8,28.3z     M230.1,32.5c-1.1-0.2-2.7-0.7-4.7-1.4l-5.6-1.2c-1.4,0-2.4-0.4-3-1.2v-0.5c0-0.9,0.4-1.3,1.3-1.3c1.7,0,3.5,0.3,5.4,0.9    c1.1,0.3,1.8,0.4,2.1,0.4c0.5,0.5,1.3,0.9,2.4,1.2c1,0.3,1.9,0.7,2.5,1.1c0.6,0.4,1,0.7,1.1,0.8c0.1,0.1,0.2,0.2,0.2,0.4l-0.1,0.7    L230.1,32.5z M227.2,47.5c-0.7,0-1.3-0.4-1.9-1.1c-0.6-0.7-0.9-1.3-0.9-1.8v-0.3c0-0.1-0.1-0.2-0.3-0.3c-0.2-0.1-0.4-0.3-0.5-0.7    l0.9-1c0.2,0,0.4,0.1,0.6,0.3c0.2,0.2,0.6,0.7,1.1,1.4h0.4c1.9-3.8,3.2-6.6,3.8-8.4c3-8.1,4.5-13.3,4.5-15.5c0-2.4-0.2-3.6-0.5-3.8    c-2.4,0.4-3.9,0.8-4.5,1.2c-0.5,0.4-1.3,0.6-2.3,0.7c-1,0.1-1.8,0.3-2.4,0.5l-0.5,0.1c-0.4,0-0.8-0.3-1.3-0.9    c-0.5-0.6-0.8-1.1-0.8-1.6v-1.3h0.1l-0.4-3.9c0-0.9,0.4-1.4,1.2-1.4c0.4,0,0.8,0.1,1.1,0.3c0.3,0.2,0.5,1.6,0.5,4.2    c0.1,1,0.3,1.6,0.8,1.6c0.3,0,0.7-0.1,1.2-0.3c4.4-1.3,7-2,7.7-2c1.2,0,2,0.7,2.4,2c0,6.3-0.3,10.1-0.9,11.5    c-0.5,1.8-1.1,3.4-1.7,5c-0.6,1.6-1,2.7-1.2,3.3c-0.2,0.6-0.6,1.5-1.1,2.6c-0.2,0.2-0.7,1.4-1.4,3.7c-0.8,1.6-1.7,3.1-2.6,4.7    l0.1,0.4C228.3,47.2,227.9,47.5,227.2,47.5z" fill="rgb(3,3,3)"></path>
	<path d="M252.4,35.4c-1.2-0.6-2.2-2.4-3-5.5v-1.6c0-0.3-0.1-0.6-0.3-0.7c-0.4,0.9-0.6,1.4-0.8,1.4l-0.5,1.6l-0.8,0.1    c-0.7-0.7-1-1.1-1-1.3c0.4-1.7,1-2.6,1.6-2.9l0.1-0.5c0-0.4,1-2.1,2.9-4.9v-0.4c0-0.7,0.3-1.2,1-1.6c0.2-0.4,0.5-0.9,0.9-1.4    c0.4-0.5,0.8-0.7,1.2-0.7c0.8,0.2,1.2,0.7,1.2,1.4c0,0.3-0.3,0.6-0.9,0.9c-2.3,3.5-3.4,5.3-3.4,5.4c0.3,0.1,0.4,0.3,0.4,0.5    c0.5,1,0.8,1.8,0.9,2.4c0.5,3.3,0.9,5.1,1,5.4l0.1,0.9L252.4,35.4z M271.8,50.9c-1.3-0.9-2.2-1.8-2.8-2.8c-0.5-1-0.8-1.8-0.8-2.5    c0.2-0.3,0.3-0.7,0.3-1.4s0-1.2,0.1-1.6c0.3,0.1,0.5,0.2,0.8,0.2c0.3,0,0.4,0.2,0.4,0.3c0.3,1.3,0.7,2.6,1.3,3.8    c0,0.1,0.2,0.1,0.5,0.1c0.1-0.3,0.2-0.4,0.3-0.4l0.7-5.1c0-0.9,0.1-2.2,0.3-3.9c0.2-1.7,0.4-3.3,0.5-4.9c0-1.1-0.2-1.7-0.7-1.7    c-0.3,0-0.7,0.3-1.2,0.9l-0.8,0.5c-0.4,0.6-1,1-1.6,1.2c-0.1,0-0.2,0.1-0.4,0.4c-0.7,0.9-1.2,1.3-1.6,1.4c-0.4,0-1,0.5-1.8,1.4    l-6.2,4.5c-1.3,1-2.1,1.4-2.2,1.4c-0.4,0-0.7-0.6-0.7-1.7l0.3-0.7c0.6-0.9,1.2-1.4,1.8-1.7c0.9-0.4,3.1-2,6.8-4.6    c2.4-1.8,4.2-3.2,5.2-4.1c0.5-0.5,1.2-1,2-1.3c0.9-0.6,1.3-1.5,1.3-2.6c0-0.7,0.1-1.6,0.2-2.6c0.1-1,0.2-1.7,0.3-2.1    c0-0.4,0.1-0.7,0.1-1l-0.1-1c0-0.9,0.2-1.9,0.7-3.2c0.4-1.3,0.8-2.7,1-4.3c0-0.2,0.1-0.3,0.3-0.5c-0.4,0-0.9,0.1-1.6,0.4    c-1.9,0.7-3.5,1-4.6,1c-0.7-0.1-1.2-0.2-1.4-0.5c-0.3-0.2-0.5-0.7-0.7-1.4c-1.1-2.3-1.7-3.5-1.7-3.8c0-0.7,0.3-1,0.8-1    c0.7,0,1.1,0.2,1.2,0.5c0.4,0.4,0.9,1.2,1.2,2.2c0.4,1,0.9,1.5,1.5,1.5c0.3,0,0.7-0.1,1.2-0.3c3.6-1.3,5.9-2,7.1-2    c0.6,0.1,1,0.4,1,1c0,0.6-0.1,1.1-0.3,1.6c-1,1.3-2,2.5-2.8,3.7c-0.2,0.4-0.3,1-0.3,2c-0.5,3-0.9,5.2-1,6.7    c0,2.2-0.6,10.9-1.8,26.1c-0.3,1-0.7,1.4-1.4,1.4L271.8,50.9z M299.6,41.7c-0.9,0-1.3-0.3-1.3-0.8v-0.3c0-0.5-0.3-0.8-0.8-0.8    c-4.4-0.5-9.7-2.2-15.9-5.1l-3.8-1.4c-1-0.4-1.8-1.1-2.5-2c0.4,0,0.8-0.1,1-0.2c0.2-0.1,0.4-0.2,0.6-0.2l2.2,0.8    c1.9,0.4,3.4,0.9,4.3,1.4c1.1,0.9,2.7,1.5,4.7,2c0.3,0,0.5,0.1,0.9,0.3c0.3,0.2,0.6,0.3,0.9,0.3c0.3,0,0.7,0.1,1.2,0.3l4.3,0.7    l3.9,1.2c0.9,0.3,1.3,1.1,1.3,2.5c0,0.5-0.1,0.9-0.4,1C300,41.5,299.8,41.6,299.6,41.7z" fill="rgb(3,3,3)"></path>
	<path d="M312.5,42.4c-0.6,0-1-0.9-1.2-2.8l-0.3-1h0.3c0-3.8-0.2-7.2-0.7-10.1l-0.1-2.8l-0.1-0.3l-0.1,0.1l-2.4,4.9l0.3,0.9    c-0.3,0.7-0.7,1-1.3,1c-1,0-1.4-0.5-1.4-1.6c0-1,0.2-1.8,0.5-2.5c2.9-4.6,5.2-7.9,7.1-9.8c0-0.2,0.3-0.3,0.8-0.3l1.4,0.8    c-0.6,0.4-1.1,0.7-1.4,1.1c-0.3,0.4-0.6,0.9-1,1.4c0,0.1,0,0.2-0.1,0.3c-0.1,0.1-0.4,0.5-0.8,1.2c0,0.2,0.2,0.3,0.5,0.4    c0.3,0.1,0.5,1,0.5,2.9c0,1.8,0.1,3.1,0.3,3.7s0.2,1.2,0.2,1.6l0.5,9.2l0.1,0.4c0,0.4-0.2,0.6-0.7,0.7c0,0.1-0.1,0.2-0.3,0.3    C312.8,42.3,312.6,42.4,312.5,42.4z M323.2,40.8h-0.4c-1.2,0-1.8-0.7-1.8-2l0.3-2.8c0-1.7,0.2-3.8,0.5-6.3c0.2-0.6,0.3-1.7,0.3-3.4    c-0.4-0.3-0.5-0.6-0.5-0.9c0-0.2,0.2-0.5,0.5-1c0.3-0.5,0.5-1,0.5-1.6c0-1.2-0.1-2.1-0.4-2.5v-0.7c0.3-0.3,0.5-0.7,0.5-1.4    c0-0.7,0.4-1,1.2-1c0.3,0,0.6,0.2,0.8,0.5c0.3,0.7,0.6,1.1,0.9,1.2c0.2,0.1,0.5,0.3,0.9,0.6c0.3,0.3,0.6,0.5,0.9,0.9    c0.2,0.3,0.5,0.9,0.8,1.8c0.3,0.9,0.6,1.6,0.9,1.9c0,0.1,0.3,0.1,0.8,0.1l2.5-1.6c0.8,0,1.2,0.4,1.2,1c0,0.4-0.4,0.7-1,1    c-2.1,1.2-3.5,2.5-4.2,3.8c-0.4,1-1.1,1.4-2,1.4l-1-0.1c-0.3,0-0.5,1.1-0.6,3.3c-0.1,2.2-0.2,4.4-0.2,6.7    C324.1,40.4,323.8,40.6,323.2,40.8z M325.5,26.8l0.7-0.7L326,26c-0.2,0-0.5,0.2-0.9,0.7l0.1,0.1H325.5z M355.4,48.9    c-0.2,0-0.5,0-0.9-0.1c-0.4,0-1.8-1.6-3.9-4.7c-0.1-0.4-0.1-1.1-0.1-2c0-1,0.3-1.4,0.8-1.4c0.3,0,0.6,0.3,0.9,0.9    c0.3,0.6,0.7,1.2,0.9,1.8v0.7c0,0.4,0.3,0.8,1,1c0,0.2,0,0.3,0.1,0.3c0.1,0,0.1,0,0.1-0.1l0.4-7.1v-4.3l0.1-6.4    c0-3.6-0.1-5.4-0.3-5.4c-0.2,0-0.3-0.1-0.3-0.2c0,0.1-0.2,0.2-0.5,0.3c-0.4,0.1-0.6,0.2-0.7,0.3c-0.1,0.1-0.4,0.3-0.7,0.5    c-1,0.2-2.2,0.7-3.8,1.4c-0.4,0.2-0.7,0.3-1,0.3c-0.9,0-1.3-0.6-1.3-1.8c0.5-0.3,0.8-0.8,0.8-1.7v-0.8c0.3-1.3,0.5-3.1,0.8-5.2    l-0.3-2.1c0-0.9,0.3-1.3,1-1.3c0.6,0,1,0.4,1.3,1c0,0.2,0.1,0.4,0.3,0.5c2-2.5,3.5-4.1,4.5-4.7c0.3,0,0.6,0.1,0.7,0.3    c0.1,0.2,0.3,0.4,0.7,0.7c0.6,0.8,0.9,1.5,0.9,2c0,0.6,0.2,1.9,0.7,4.1l0.1,10.6L357.1,46l0.1,0.9    C356.8,48.3,356.2,48.9,355.4,48.9z M352.4,20.7c1.4-0.4,2.2-0.6,2.2-0.7l-0.7-0.3c-1.1-0.9-2.1-1.3-3-1.3c-0.1,0-0.4,0.9-1,2.6    l0.1,0.3C350.2,21.3,351,21.1,352.4,20.7z M354.8,16.9v-1c0-2.3-0.3-3.5-0.8-3.7c-0.6,0.5-1.4,1.5-2.4,3l0.4,0.7c1.1,0.7,2,1,2.6,1    H354.8z" fill="rgb(3,3,3)"></path>
</g></svg>