<svg xmlns="http://www.w3.org/2000/svg" x="0px" y="0px" viewBox="0 0 192.1 21.4" style="vertical-align: middle; max-width: 100%; width: 100%;" width="100%"><g>
	<path d="M16.6,20.3L16.6,20.3l-0.2-0.3l-0.1-0.2L16,19.1l-0.6-1.2l-0.6-1.3l-0.4-0.9l-0.1-0.2l-0.1-0.3L14,14.9l-0.1-0.2l-0.1-0.3    l-0.1-0.3l-0.2-0.4l-0.2-0.4L13.1,13L13,12.6l-0.2-0.3L12.7,12l-0.1-0.2l-0.1-0.2l-0.1-0.2l-0.1-0.1L12.3,11l-0.6,0.7l-0.3,0.3    l-0.3,0.3L11,12.6l-0.2,0.3l-0.2,0.3l-0.2,0.3l-0.2,0.2l-0.1,0.2l-0.2,0.4l-0.2,0.2l-0.2,0.1l-0.2,0H9.2l-0.1,0l-0.1,0l-0.1-0.1    l-0.1-0.1l0-0.1l0-0.1V14l0.1-0.2L9,13.5l0.2-0.3l0.3-0.4l0.2-0.2l0.2-0.2l0.2-0.2l0.2-0.2l0.2-0.3l0.3-0.3l0.3-0.5l0.5-0.7    l0.2-0.3l-0.3-0.7l-0.1-0.3l-0.2-0.4l-0.1-0.4l-0.1-0.3L11,7.6l-0.1-0.2l-0.1-0.2l0-0.1h0l-0.1,0l-0.1,0l-0.1,0.1l-0.2,0.1L9.9,7.5    L9.5,7.7L9.1,7.9L8.7,8.1L8.3,8.2L7.9,8.4L7.7,8.6L7.2,8.8l0,0.6l0,0.2l0,0.3l0,0.3l0,0.2l0,0.2v0.1l0,0l0.1,0l0.2-0.1l0.1,0l0.1,0    l0.1,0.1l0,0.1l0,0.1l0,0.1v0l0,0.1l-0.1,0.1l-0.1,0.2l-0.2,0.2l-0.5,0.4l-0.1,0.9l0,0.4l0,0.4l0,0.3l0,0.3l0,0.6l-0.1,0.4    l-0.2,0.3l-0.3,0.2l-0.4,0l-0.4-0.2l-0.4-0.4l-0.4-0.6l-0.1-0.2l-0.1-0.2l-0.1-0.1l0-0.1l0-0.1l-0.1,0l-0.2,0.1l-0.3,0.3l-0.3,0.2    L3,14.9l-0.3,0.3l-0.2,0.2L2,16.1l-0.5,0.6L1.1,17l-0.2,0.2l-0.3,0l-0.2-0.1L0.1,17L0,16.7l0-0.2l0.1-0.2l0.1-0.2L0.4,16l0.2-0.1    l0.2-0.2L1,15.5L1.6,15l0.9-0.8l0.8-0.7l0.8-0.7L5.2,12l0.7-0.6l0-0.6l0-0.5L6,10l0-0.2l0-0.1L5.7,9.8l-0.4,0.3L5,10.3l-0.1,0.1    l-0.1,0.1l-0.2,0.1l-0.2,0.1l-0.2,0L4,10.7l-0.2-0.2l-0.1-0.3l0.1-0.4l0.1-0.1l0.1-0.1l0.2-0.1l0.2,0l0.1,0l0.2-0.1l0.3-0.1    l0.3-0.1l0.4-0.2l0.3-0.1L6,8.7l0-0.1V8.6l0-0.1l0-0.2l0-0.2L5.9,7.7l0-0.3l0.1-0.2L6,7.1l0.2-0.1l0.2-0.1l0.2,0l0.2,0.1L7,7.1    l0.1,0.1l0.1,0.2v0.3v0.2V8v0.1l0,0l0.1,0L7.5,8l0.3-0.2l0.4-0.2l0.5-0.2l0.5-0.2L9.6,7l0.3-0.1l0.2-0.1l0.2-0.1l0.1-0.1l0.1,0    l0-0.1l-0.1-0.3l-0.1-0.4l-0.1-0.4L10,4.5L9.8,3.7L9.7,2.9L9.6,2.3V2.2l0-0.2l0-0.2l0-0.2l0-0.2l0-0.2l0-0.1L9.5,1l0.3-0.3l0.3-0.1    l0.3,0.1L10.7,1l0.1,0.1l0,0.1l0,0.1l0,0.2l-0.1,0.6l0,0.7l0.1,0.7l0.2,0.7l0.2,0.5l0.2,0.6l0.2,0.5l0.1,0.2l0,0l0.1,0L11.8,6    L12,5.9l0.4-0.2l0.3-0.1l0.2,0l0.2,0.1L13,6l0,0.1l0,0.1l-0.1,0.1l-0.1,0.1l-0.1,0.1l-0.2,0l-0.3,0.1l-0.1,0l-0.1,0l-0.1,0l0,0v0.1    l0,0.1l0.1,0.2L12,7.4l0.1,0.3L12.2,8l0.1,0.3l0.1,0.2l0.1,0.2l0.1,0.2L12.5,9l0,0.1l0.1,0l0.1-0.1l0.2-0.2l0.2-0.2l0.3-0.4L13.6,8    l0.2-0.1l0.2,0l0.4,0.2l0.2,0.3l0,0.3L14.3,9l-0.1,0.1l-0.1,0.1l-0.1,0l0,0l-0.2,0.1l-0.4,0.3L13.2,10L13,10.1l0.1,0.3l0.2,0.5    l0.2,0.5l0.2,0.5l0.1,0.2l0.1,0.3l0.1,0.4l0.1,0.3l0.1,0.3l0.1,0.3l0.1,0.3l0.1,0.2l0.1,0.2l0.2,0.4l0.2,0.5l0.2,0.5l0.4,0.9    l0.4,0.9l0.4,0.8l0.4,0.7l0.1,0.3l0.1,0.2l0.1,0.2l0,0.1l0,0.2l-0.1,0.2l-0.1,0.1l-0.1,0h0l0,0h0l0,0h-0.1l-0.1,0l-0.1,0L16.6,20.3    L16.6,20.3z M5,5.5L5,5.5L4.9,5.3L4.8,5.2L4.7,4.9l0.1-0.3L5,4.4l0.3-0.2l0.1,0l0.1-0.1l0.1-0.1L5.8,4l0.5-0.2l0.7-0.3l0.7-0.3    L8.1,3L8.5,3l0.3,0l0.2,0.1l0.1,0.2l0.1,0.1l0,0.1l0,0.1l0,0.1L9,3.8L8.8,3.9L8.6,4L8.4,4L8.1,4L7.7,4.1L7.4,4.2L7,4.4L6.6,4.6    L6.3,4.8L6.1,5L6,5.2L5.9,5.3L5.8,5.4L5.6,5.5L5.4,5.6h0H5.3l-0.1,0L5,5.5L5,5.5z M5.9,12.7l-0.2,0.1l-0.1,0.1L5.4,13l-0.1,0.1    l-0.2,0.1l-0.3,0.2l0.9,0.9l0-0.2l0-0.1l0-0.2l0-0.2l0-0.3L5.9,12.7z M13.6,3.7l-0.1-0.1l-0.1-0.1l-0.1-0.2l0-0.1l0-0.1l0-0.1    l0.1-0.1l0.1-0.2l0.1-0.1l0.2-0.1l0.2,0l0.1,0l0.2-0.1l0.2-0.1l0.2-0.1l0.5-0.2l0.5-0.2L16,1.6l0.3-0.1l0.2,0l0.2,0.1l0.1,0.2    l0,0.2l0,0.2l-0.1,0.2l-0.2,0.1l-0.3,0.1l-0.5,0.2L15.2,3l-0.4,0.2l-0.3,0.2l-0.2,0.2l-0.2,0.1l-0.2,0l-0.2,0L13.6,3.7z" fill="rgb(222,165,60)"></path>
	<path d="M21.7,14.9c-0.2,0-0.3-0.3-0.4-0.9l-0.1-0.3h0.1c0-1.2-0.1-2.3-0.2-3.2l0-0.9l0-0.1l0,0L20.2,11l0.1,0.3    c-0.1,0.2-0.2,0.3-0.4,0.3c-0.3,0-0.5-0.2-0.5-0.5c0-0.3,0.1-0.6,0.2-0.8c0.9-1.5,1.7-2.5,2.3-3.2c0-0.1,0.1-0.1,0.3-0.1l0.5,0.3    c-0.2,0.1-0.3,0.2-0.4,0.4c-0.1,0.1-0.2,0.3-0.3,0.4c0,0,0,0.1,0,0.1c0,0-0.1,0.2-0.3,0.4c0,0.1,0,0.1,0.1,0.1    c0.1,0,0.2,0.3,0.2,0.9c0,0.6,0,1,0.1,1.2c0,0.2,0.1,0.4,0.1,0.5l0.2,2.9l0,0.1c0,0.1-0.1,0.2-0.2,0.2c0,0,0,0.1-0.1,0.1    C21.8,14.9,21.8,14.9,21.7,14.9z M25.2,14.4H25c-0.4,0-0.6-0.2-0.6-0.6l0.1-0.9c0-0.5,0.1-1.2,0.2-2c0.1-0.2,0.1-0.6,0.1-1.1    c-0.1-0.1-0.2-0.2-0.2-0.3c0-0.1,0-0.2,0.1-0.3c0.1-0.2,0.1-0.3,0.1-0.5c0-0.4,0-0.7-0.1-0.8V7.6C24.9,7.5,25,7.4,25,7.1    c0-0.2,0.1-0.3,0.4-0.3c0.1,0,0.2,0.1,0.3,0.2c0.1,0.2,0.2,0.4,0.3,0.4s0.2,0.1,0.3,0.2c0.1,0.1,0.2,0.2,0.3,0.3    c0.1,0.1,0.2,0.3,0.3,0.6c0.1,0.3,0.2,0.5,0.3,0.6c0,0,0.1,0,0.3,0L28,8.6c0.3,0,0.4,0.1,0.4,0.3c0,0.1-0.1,0.2-0.3,0.3    c-0.7,0.4-1.1,0.8-1.3,1.2C26.5,10.8,26.3,11,26,11l-0.3,0c-0.1,0-0.1,0.4-0.2,1.1s-0.1,1.4-0.1,2.1C25.5,14.2,25.4,14.3,25.2,14.4    z M25.9,9.9l0.2-0.2l0,0c-0.1,0-0.2,0.1-0.3,0.2L25.9,9.9L25.9,9.9z M35.5,17c-0.1,0-0.2,0-0.3,0c-0.1,0-0.6-0.5-1.3-1.5    c0-0.1,0-0.4,0-0.6c0-0.3,0.1-0.5,0.3-0.5c0.1,0,0.2,0.1,0.3,0.3c0.1,0.2,0.2,0.4,0.3,0.6v0.2c0,0.1,0.1,0.3,0.3,0.3    c0,0.1,0,0.1,0,0.1s0,0,0,0l0.1-2.3v-1.4l0-2.1c0-1.1,0-1.7-0.1-1.7c-0.1,0-0.1,0-0.1-0.1c0,0-0.1,0.1-0.2,0.1    c-0.1,0-0.2,0.1-0.2,0.1s-0.1,0.1-0.2,0.1c-0.3,0.1-0.7,0.2-1.2,0.5c-0.1,0.1-0.2,0.1-0.3,0.1c-0.3,0-0.4-0.2-0.4-0.6    c0.2-0.1,0.3-0.3,0.3-0.5V7.8c0.1-0.4,0.2-1,0.3-1.7l-0.1-0.7c0-0.3,0.1-0.4,0.3-0.4c0.2,0,0.3,0.1,0.4,0.3c0,0.1,0,0.1,0.1,0.2    c0.6-0.8,1.1-1.3,1.4-1.5c0.1,0,0.2,0,0.2,0.1c0,0.1,0.1,0.1,0.2,0.2c0.2,0.3,0.3,0.5,0.3,0.7c0,0.2,0.1,0.6,0.2,1.3l0,3.4L36,16    l0,0.3C35.9,16.8,35.7,17,35.5,17z M34.5,7.9c0.5-0.1,0.7-0.2,0.7-0.2L35,7.6c-0.4-0.3-0.7-0.4-1-0.4c0,0-0.1,0.3-0.3,0.8l0,0.1    C33.8,8.1,34.1,8,34.5,7.9z M35.3,6.7V6.4c0-0.7-0.1-1.1-0.3-1.2c-0.2,0.2-0.4,0.5-0.8,1l0.1,0.2C34.8,6.6,35.1,6.7,35.3,6.7    L35.3,6.7z" fill="rgb(222,165,60)"></path>
	<path d="M39.4,19.2L39.4,19.2L39.4,19l0-0.1l0-0.1l0.1-0.1l0.1-0.2l0.2-0.2l0.7-0.7l0.7-0.7l0.6-0.7l0.5-0.7l0.2-0.3l0.2-0.3    l0.2-0.3l0.2-0.2l0.2-0.3l0.3-0.3l0.3-0.4L44,13l0.2-0.4l0.3-0.4l0.3-0.4l0.3-0.4l0.7-0.9l0.4-0.6l0.2-0.3l0.2-0.2l0.1-0.2l0.1-0.1    h0l-0.1,0.1l-0.1,0.1l-0.2,0.1L46,9.6l-0.3,0.2l-0.3,0.2L45.3,10l-0.2,0.1l-0.1,0.1L45,10.4l-0.2,0.1l-0.2,0.1l-0.2,0l-0.2-0.1    L44,10.4l-0.2-0.2L43.8,10l0-0.2l0.1-0.2L44,9.4l0.2-0.1l0.2-0.1l0.2-0.1l0.2-0.1L44.9,9L45.2,9l0.3-0.1l0.4-0.1l0.4-0.2l0.9-0.4    L47.5,8l0.2-0.2l0.2-0.4L48.1,7l0.2-0.3l0.2-0.3l0.1-0.2L48.7,6l0.1-0.2l0.1-0.2l0.1-0.1l0.1-0.2l0.1-0.1l0.2-0.1l0.2,0l0.2,0    L50,5.2l0.1,0.1l0.1,0.2l0.1,0.2l0,0.2l-0.1,0.2L50,6.3l-0.3,0.3L49.4,7l-0.2,0.4l-0.1,0.1l0.1,0l0.3-0.1l0.4-0.1l0.5-0.1l0.8-0.2    L51.9,7l0.6-0.1H53L53.3,7l0.2,0.2l0,0.3l-0.1,0.3L53.3,8l-1.5,0l-0.9,0l-0.6,0.1l-0.5,0.1l-0.6,0.2l-0.2,0.1l-0.2,0.1l-0.2,0    l-0.1,0h0l0,0l0,0v0l-0.2,0.3l-0.4,0.6l-0.4,0.7L47,10.6l-0.2,0.2L46.6,11l-0.3,0.3l-0.2,0.4l-0.4,0.6l-0.4,0.5l-0.4,0.5l-0.4,0.5    L44.3,14l-0.2,0.2l-0.2,0.3l-0.2,0.2L43.5,15l-0.2,0.3l-0.2,0.3l-0.2,0.3l-0.9,1l-0.7,0.9l-0.5,0.7l-0.3,0.6l-0.2,0.3l-0.2,0.2    l-0.3,0L39.4,19.2L39.4,19.2z M44.8,7.1L44.8,7.1L44.7,7l0-0.1l0-0.2l0.1-0.2l0.1-0.2l0.3-0.2L45.3,6l0.3-0.3l0.3-0.3l0.4-0.3    l0.3-0.3l0.3-0.3l0.3-0.3l0.2-0.2L47.6,4l0.2-0.2L48,3.6l0.2-0.2l0.2-0.2l0.1-0.1l0-0.1l0,0l-0.4,0h-0.7l-0.7,0l-0.4,0l-0.2,0    l-0.2,0l-0.2-0.1l-0.1-0.2l-0.1-0.2l0-0.2l0-0.2L45.5,2l0.1-0.1l0.2-0.1L46,1.7h0.1l0.3,0.1L47,1.9l0.7,0.1L48.4,2l0.4,0l0.3,0    l0.2,0l0.1,0h0.1L49.6,2l0.2-0.1l0.3-0.2l0.5-0.4l0.5-0.5l0.4-0.4l0.2-0.2l0,0l0.1,0l0.1,0l0.1,0L52.3,0l0.4,0.1l0.2,0.3v0.4    L52.8,1l-0.1,0.1l-0.1,0.1l-0.1,0l-0.3,0.2l-0.6,0.4L51,2.2l-0.2,0.2l0,0l0.1,0l0.2,0l0.2,0l0.3,0.1L52,2.6l0.4,0.1l0.4,0.1L53.1,3    l0.3,0.1l0.3,0.1l0.2,0.1l0.1,0.1l0.2,0l0.1,0l0.1,0l0.1,0.1l0.1,0.2l0,0.2l-0.1,0.2l-0.1,0.2l-0.2,0.1l-0.2,0l-0.3-0.1L53.4,4    l-0.3-0.1l-0.4-0.1L52,3.6l-0.4-0.1l-0.4-0.1l-0.3-0.1l-0.2-0.1l-0.4-0.1l-0.4,0l-0.3,0l-0.2,0.1l-0.8,0.7L47.5,5l-1.1,1.1    l-0.7,0.8L45.6,7l-0.1,0.1l-0.1,0.1l-0.1,0.1l-0.1,0.1l-0.1,0l-0.1,0L44.8,7.1L44.8,7.1z M49.6,21l0-0.1l0-0.2l0-0.4v-0.3l0-0.3    l0-0.2l0-0.2l0.1-0.4l0.1-0.8l0.1-1.1l0-1.3l0-0.4l0-0.4l0-0.4l0-0.3l0-0.2l0-0.2v-0.1v0l-0.2,0.1l-0.3,0.4l-0.4,0.5l-0.3,0.5    l-0.4,0.6L48.2,16l-0.3,0.1l-0.3-0.1l-0.1,0L47.4,16l-0.1-0.1l-0.1-0.1l-0.1-0.1l0-0.1l0-0.2l0.1-0.2l0.2-0.9l0.2-0.9l0.1-0.8v-0.6    l0-0.2l0-0.1l0.1-0.1l0.1-0.1l0.1-0.1l0.1-0.1l0.1,0h0.2l0.3,0.1l0.2,0.2l0.1,0.3L48.9,12l-0.1,0.1l0,0.1l0,0.1l0,0.1v0.1l0,0.2    l0,0.2l-0.1,0.3l0,0.2l0,0.2v0.2v0.1l0,0h0l0,0l0,0l0.2-0.2l0.3-0.3l0.4-0.3l0.4-0.3l0.1-0.1l0.1-0.1l0-0.1l0-0.2l0-0.2l0-0.2    l0.1-0.2l0-0.2l0.1-0.2l0-0.3l0-0.3l0-0.3l0-0.4l0-0.2l0.1-0.1l0.2-0.1l0.2-0.1l0.2,0l0.2,0.1l0.2,0.1l0.1,0.2l0.1,0.2l-0.1,0.3    l-0.1,0.5L51.6,11l-0.1,0.2l0,0.2l0,0.1l-0.1,0.2l0.6-0.3l0.5-0.2L53,11l0.4-0.1l0.4,0H54l0.1,0l0.1,0.1l0.1,0.1l0.1,0.1l0.1,0.1    l0,0.1v0.2v0.1v0.1v0.1V12l-0.1,0.3L54,12.9l-0.5,0.8L53,14.6l-0.2,0.3l-0.2,0.3l-0.1,0.3l-0.1,0.2l-0.1,0.3L52.2,16l-0.1,0.1    l-0.1,0L51.7,16l-0.1-0.2l0-0.2l0.1-0.2l0.1-0.1l0.1-0.2l0.2-0.3l0.2-0.3l0.2-0.3l0.2-0.4l0.2-0.3l0.2-0.3l0.2-0.4l0.2-0.5l0.1-0.4    l0-0.2l-0.3,0.1l-0.5,0.2l-0.6,0.2l-0.4,0.2l-0.3,0.2l-0.1,0.8l0,0.4l0,0.3l0,0.3v0.2l0,0.9l0,1.1l-0.1,1l-0.1,0.6l-0.1,0.3l0,0.3    l-0.1,0.5l-0.1,0.8l0,0.3l0,0.2l0,0.1l-0.1,0.1l-0.2,0.1l-0.2,0l-0.2,0L49.6,21L49.6,21z" fill="rgb(222,165,60)"></path>
	<path d="M55.9,10l-0.1-0.2l0.1-0.2l0.2-0.2l0.1-0.1l0.1-0.1l0.1,0l0.1,0L56.7,9l0.6-0.3l0.8-0.5l0.8-0.6l0.5-0.3l0.9-0.5l1-0.5    l0.9-0.4l0.2-0.1l0.2-0.1l0.2-0.1l0.1-0.1L63,5.4l0.1,0l0.1,0h0.2l0.2,0l0.2-0.1l0.3-0.1L64.5,5l0.4-0.2l0.4-0.1l0.5-0.1l0.5-0.1    l0.4-0.1L67,4.3l0.3-0.1l0.2,0h0.4l0.3,0.2l0.1,0.3L68.1,5l-0.1,0.1l-0.1,0l-0.2,0h-0.4l-0.4,0l-0.3,0l-0.3,0l-0.3,0.1l-0.3,0.1    l-0.3,0.1l-0.3,0.1l-0.3,0.1l-0.5,0.1l-0.3,0.1l-0.1,0l0,0V6v0.1l0,0.2l0,0.2L63.9,7l-0.1,0.7l-0.1,0.6l0,0.4l0,0.1l0,0h0.1h0.2    l0.4-0.1l0.3-0.1l0.4-0.2l0.4-0.3l0.3-0.2l0.2-0.1l0.1,0l0.2,0l0.1,0.1L66.6,8l0,0.2l0,0.2l-0.4,0.4l-0.9,0.5l-0.9,0.4l-0.7,0.2    l-0.1,0l-0.1,0l-0.2-0.1l-0.2-0.1l-0.3-0.2l-0.1-0.3l-0.1-0.5l0-0.9l0-0.6V6.7l0-0.2l0-0.1l-0.3,0.1l-0.6,0.3l-0.7,0.4l-0.8,0.5    l-0.3,0.2l-0.3,0.2l-0.3,0.2l-0.2,0.2l-0.5,0.3l-0.6,0.4l-0.5,0.5l-0.5,0.4l-0.2,0.2l-0.2,0.1l-0.1,0.1l-0.2,0h-0.2l-0.1,0    l-0.1-0.1l-0.1-0.1L55.9,10z M60.7,20.5l-0.1-0.4l0.1-0.4l0.4-0.2l0.4-0.1l0.6-0.1l0.6-0.1l0.5-0.1l0.4-0.1l0.5-0.2l0.8-0.3    l1.2-0.4l1-0.3l0.8-0.2l0.8-0.2l1.1-0.2l0.6-0.1l0.6-0.1l0.4-0.1l0.3-0.1l0.8-0.1l1.2-0.2l1.4-0.1l1.4-0.1l0.7,0h0.4l0.2,0l0.1,0.1    l0.1,0.1l0,0.1l0,0.1l-0.1,0.1l-0.1,0.1l-0.2,0l-0.4,0l-0.6,0l-1,0.1l-0.9,0.1l-0.9,0.1l-0.7,0.2l-0.3,0.1L72,17.5l-0.4,0.1    l-0.4,0.1l-1.1,0.2l-1.2,0.3l-1.2,0.3l-0.9,0.3l-0.3,0.1L66,19.1l-0.5,0.2l-0.4,0.2l-0.4,0.2l-0.5,0.2l-0.4,0.1L63.5,20l-0.3,0.1    l-0.4,0.1l-0.4,0.1l-0.3,0.1l-0.5,0.2l-0.3,0.1l-0.2,0L61,20.8L60.7,20.5z M62.5,2.6l-0.1-0.2l0-0.2l0-0.3l0.1-0.2l0.1-0.1l0.2-0.1    l0.2-0.1l0.1,0l0.2,0l0.2,0l0.2,0l0.2,0l0.2,0l0.2,0l0.2,0h0.2l0.1,0l0.1,0.1l0.1,0.1L65,1.6l0,0.2L65,2l-0.1,0.2l-0.1,0.1l-0.1,0    l-0.1,0l-0.2,0l-0.3,0l-0.2,0.1l-0.2,0.1l-0.2,0.1l-0.2,0.1l-0.2,0h-0.2l-0.2,0L62.5,2.6z M67.3,16.9l-0.1-0.2v-0.3l0.1-0.4    l0.1-0.5l0.1-0.4l0-0.3l0-0.1l-0.2,0.1l-0.4,0.2l-0.4,0.2l-0.3,0.2l-0.4,0.2l-0.4-0.1l-0.3-0.3l0-0.4l0.1-0.2l0.2-0.2l0.2-0.1    l0.2,0l0.1,0l0.2-0.1l0.3-0.1l0.4-0.1l0.5-0.2l0.3-0.1l0.1-0.1v-0.1v-0.1v-0.2l0-0.2v-0.2l0-0.5l0.2-0.2l0.1-0.1l0.1,0l0.1,0h0.2    l0.2,0.1l0.2,0.1l0.1,0.1l0.1,0.2v0.1v0.1l0,0.2l0,0.2V13l0,0.1v0.1v0h0.1l0.2,0l0.2,0l0.3-0.1l0.4-0.1l0.3,0l0.2,0l0.2,0.1    l0.2,0.3l-0.1,0.3l-0.2,0.2L69.9,14h-0.1l-0.2,0l-0.2,0l-0.2,0l-0.5,0.1v0.5l0,0.3l0,0.3l-0.1,0.4l-0.1,0.4l-0.1,0.5l-0.1,0.3    L68.2,17l-0.1,0.1L68,17.2l-0.2,0l-0.2,0l-0.2-0.1L67.3,16.9z M65.8,11.7l-0.1-0.2l0-0.2l0-0.2l0.1-0.2l0.2-0.1l0.2-0.1l0.2,0    l0.4-0.1l0.8-0.2l0.9-0.2L69,9.9l0.4-0.1l0.3,0l0.2,0.1l0.1,0.2l0,0.2l0,0.2L70,10.6l-0.2,0.1l-0.1,0l-0.2,0.1l-0.3,0.1l-0.3,0.1    L68.6,11l-0.3,0.1l-0.2,0.1L68,11.2l-0.1,0l-0.2,0.1l-0.2,0.1l-0.2,0.1l-0.2,0.1l-0.2,0.1l-0.2,0.1l-0.1,0.1l-0.2,0.1l-0.2,0.1    l-0.2,0l-0.2-0.1L65.8,11.7z M68.6,9.2L68.6,9.2L68.4,9l0-0.1l-0.1-0.2V8.5V8.2l0.1-0.3l0.1-0.6l0.1-0.8l0.1-0.7l0-0.5l0-0.2l0-0.3    l0-0.3l0-0.3l0-0.3V3.7V3.6l0-0.1l-0.1-0.3l0-0.3l0.2-0.2l0.2-0.2l0.2-0.1l0.2,0l0.2,0.1l0.2,0.1L70,2.9l0,0.2l0,0.3l-0.1,0.2    l-0.1,0.2L69.7,4l-0.1,0.4l-0.1,0.7l-0.1,0.7l0,0.3l0,0l0.1-0.4l0.3-0.9l0.4-0.9L70.6,3l0.5-0.9l0.5-0.5l0.6-0.4l0.6-0.3l0.6-0.1    h0.2l0.2,0h0.1l0.1,0L74,0.9l0.1,0.1l0.1,0.1l0.1,0.1l0.2,0.2l0.1,0.2l0,0.3l0,0.4l0,0.7l-0.4,1.6l-0.2,0.9L74,5.9l0,0.2L74,6.1    l0,0l0.1,0.1l0.1,0.1l0.1,0.1l0,0.1l0,0.1v0.1l0,0.1l-0.1,0.1l-0.1,0.1L74,7l-0.1,0l-0.1,0.1l-0.1,0.1l-0.1,0.1l0,0.1l0,0.1l0,0.1    l0,0.2l0,0.2l-0.1,0.6l-0.1,0.4l-0.1,0.3l-0.1,0.1l-0.1,0l-0.1,0l-0.1,0l-0.1,0l-0.1-0.1l0-0.2l0-0.4L72.8,8l0.1-0.4l0-0.2V7.4    h-0.1l-0.3,0.1l-0.4,0.1l-0.4,0.1l-0.3,0l-0.3-0.1l-0.2-0.2l-0.1-0.3V6.9l0-0.1l0.1-0.1l0.1-0.2l0.1-0.2L71.6,6l0.2-0.4L72,5.4    L72,5.2l0,0H72l-0.1,0h-0.1L71.4,5l-0.2-0.3l0-0.4L71.4,4l0.3-0.1l0.4,0l0.5,0L72.9,4L73,4.1l0.1,0.1l0.1,0.2l0.1,0.2l0,0.3    l-0.1,0.4L73,5.6L72.8,6l-0.1,0.2l-0.1,0.1l0,0.1l0,0l0.1,0l0.1,0l0.2,0l0.2,0l0.4-0.1l0.1-0.4l0-0.2l0-0.2l0.1-0.2l0-0.2l0.1-0.5    l0-0.8l0-0.8l-0.1-0.6L73.6,2l-0.1-0.2l-0.2-0.1l-0.3,0l-0.2,0.1L72.5,2l-0.3,0.2l-0.4,0.3l-0.2,0.2l-0.2,0.2l-0.2,0.2L71,3.5    l-0.1,0.3l-0.1,0.3l-0.1,0.3l-0.1,0.3l-0.1,0.3l-0.1,0.4l-0.1,0.3l-0.1,0.3L70,6.4L70,6.8l-0.1,0.4l-0.1,0.4l-0.1,0.7l-0.1,0.4    l-0.1,0.2l-0.2,0.1l-0.2,0.1l-0.2,0l-0.2,0L68.6,9.2L68.6,9.2z" fill="rgb(222,165,60)"></path>
	<path d="M75.8,14.2L75.7,14l0-0.2l0-0.2l0.1-0.3l0.3-0.5l0.4-0.6l0.4-0.6l0.3-0.4l0.4-0.6l0.5-0.7l0.6-0.8L79,8.9l0.4-0.5L79.6,8    l0.3-0.4l0.3-0.4l0.3-0.4l0.3-0.4L81,6.1l0.2-0.3l0.3-0.3l0.2-0.4l0.2-0.3l0.2-0.3l0.3-0.3l0.2-0.3l0.2-0.2l0.1-0.2l0.1-0.2    l0.1-0.1l0.1-0.1l0-0.1l0.1-0.1l0.1-0.1l0.1-0.1l0.5-0.1l0.4,0.1l0.2,0.4l0,0.5l-0.1,0.1l-0.1,0.1l-0.1,0.1L84,4l-0.1,0l-0.2,0.1    l-0.2,0.2l-0.2,0.2l-0.2,0.3L82.9,5l-0.2,0.2l-0.1,0.1l-0.1,0.2l-0.2,0.3l-0.2,0.3l-0.3,0.4l-0.3,0.4l-0.3,0.5l-0.4,0.5l-0.3,0.4    l-0.3,0.4l-0.3,0.4l-0.3,0.4l-0.2,0.3l-0.2,0.3l-0.2,0.3l-0.2,0.3L78.4,11l-0.6,0.8l-0.5,0.7L77,13.1l-0.1,0.5l0,0.3l-0.1,0.2    l-0.1,0.1l-0.1,0.1l-0.2,0.1l-0.1,0l-0.2,0l-0.2-0.1L75.8,14.2z M81.3,15l-0.1-0.3l0-0.5l0.2-0.8l0.1-0.4l0.1-0.4l0.1-0.3l0.1-0.2    l0.1-0.7l0.1-0.5l0.1-0.4l0-0.2l0-0.2l0-0.2L82,9.6l0.1-0.1l0.2-0.1l0.2,0l0.2,0l0.2,0.1l0.2,0.2l0.1,0.3l0,0.3L83,10.5l-0.2,0.3    l-0.2,0.6L82.5,12l-0.1,0.6l-0.1,0.5l0,0.6v0.5l0.1,0.4l0,0.2l-0.1,0.2l-0.1,0.2L82,15.2l-0.2,0l-0.1,0h-0.1l-0.1,0L81.3,15z     M88.2,16.7L88.2,16.7l-0.2-0.2l0-0.1L88,16.3v-0.1l0-0.2l0.1-0.3l0.1-0.2l0-0.2l0-0.2l0-0.2l0-0.2l0-0.2l0-0.3l0.1-0.2l0.1-0.5    l0.1-0.6l0-0.5v-0.2l-0.1,0.1l-0.3,0.4l-0.4,0.5l-0.4,0.6L87.1,14l-0.2,0.3l-0.2,0.3l-0.2,0.3l-0.2,0.4l-0.2,0.2L86,15.6h-0.2    l-0.2-0.1l-0.1-0.1l-0.1-0.2l0-0.2l0-0.2l0.2-0.3l0.3-0.4l0.5-0.6l0.3-0.4l0.3-0.4l0.3-0.4l0.2-0.4l0.2-0.3l0.2-0.3l0.2-0.2    l0.1-0.1l0.1-0.1l0-0.1l0.1-0.1l0-0.1l0-0.1l0.1-0.1l0.1-0.1l0.1-0.1l0.1-0.1l0.1-0.1l0.1-0.1l0-0.1l0-0.1V10l0-0.4V9.2l0-1L89,8    l0.1-0.1l0.1-0.1l0.1,0l0.2,0l0.2,0.1L89.9,8L90,8.2l0.1,0.2v0.1v0.2l0,0.2L90,9L90,9.2l0,0.3l0,0.4l0,0.4l0,0.3l0,0.3l0,0.2l0,0.1    l0,0.1l0,0.2l0,0.3l0,0.3l0,0.4l-0.1,0.5l-0.1,0.5l-0.1,0.5l-0.1,0.5l-0.1,0.5l0,0.4l0,0.4l0,0.5l-0.1,0.3l-0.1,0.2l-0.2,0.1    l-0.2,0.1l-0.1,0l-0.1,0L88.2,16.7L88.2,16.7z M91.5,7.8l-0.1-0.1l-0.1-0.1l0-0.1l0-0.1l0.1-0.1L91.6,7l0.1-0.2l0.2-0.4L92,6    l0.1-0.3l0-0.2V5.4l0-0.1l-0.1,0h-0.1l-0.6,0.1l-0.6,0.2L90,6l-1,0.6l-0.5,0.3L88,7.1l-0.4,0.1l-0.3,0l-0.2,0l-0.2-0.1L86.7,7    l-0.1-0.2l-0.1-0.3l0.3-0.6L87,5.2l0.2-0.6l0.1-0.5l0.1-0.4V3.5l0-0.1l0.1-0.1l0.1-0.1l0.4-0.2l0.4,0l0.3,0.2l0.1,0.4l0,0.1l0,0.1    l-0.1,0.1l-0.1,0.1l-0.1,0.1l-0.1,0.1l0,0.1l0,0.1l0,0.1l0,0.1l-0.1,0.2L88.1,5L88,5.2l-0.1,0.2l-0.1,0.2l0,0.2l0,0.1V6l0,0h0.1    L88,6l0.1,0l0.1,0l0.2-0.1l0.3-0.1l0.4-0.2l0.5-0.3L90.2,5L91,4.6l0.5-0.2l0.3-0.1l0.3,0l0.5,0l0.3,0.3l0.3,0.3l0,0.5l0,0.3    l-0.1,0.2L93,6.1l-0.2,0.4l-0.3,0.5l-0.3,0.5l-0.2,0.3l-0.2,0.1l-0.1,0h-0.1l-0.1,0h-0.1L91.5,7.8z M91.4,13.5L91.4,13.5l-0.1-0.2    l-0.1-0.1l-0.1-0.1l0-0.1l0-0.1l0.1-0.1l0-0.1l0.1-0.1l0.1-0.1l0.1-0.1l0.1-0.1l0.1,0l0.1,0l0.2,0l0.4,0l0.5,0l0.6-0.1l0.8-0.1    l0.6-0.1l0.8-0.1l0.8-0.1H97l0.1,0l0.2,0.1l0.1,0.2l0,0.1l0,0.2l-0.1,0.2l-0.1,0.1l-0.1,0.1l-0.1,0l-0.2,0h-0.2h-0.2l-1,0.1    l-1.3,0.2l-1.2,0.2l-0.7,0.2L92,13.6l-0.2,0l-0.2,0L91.4,13.5L91.4,13.5z" fill="rgb(222,165,60)"></path>
	<path d="M98.4,13.6l-0.1-0.1l-0.1-0.1l-0.1-0.1L98,13.3L98,13.2l-0.1-0.1l0-0.1l0-0.3l0-0.6l0.1-0.7l0.1-0.6l0.2-0.7l0.1-0.6    l0.1-0.6l0-0.7V7.7l0-0.3l0-0.2l0-0.1l-0.1-0.4l0.2-0.4L98.7,6l0.4,0l0.1,0l0.1,0l0.1,0.1l0,0l0.1,0.2l0,0.2v0.2L99.5,7l0,0.1    l0,0.2l0,0.2l0,0.2l0,0.3l0,0.4L99.2,9l-0.1,0.5L99,10.6l-0.1,1l-0.1,0.7v0.3l0.4,0.2l0.7-0.1l0.8-0.3l0.6-0.4l0.2-0.2l0.2-0.1h0.2    l0.2,0.1l0.1,0.1l0,0.2l0,0.1l-0.1,0.2l-0.1,0.1l-0.2,0.1l-0.3,0.2l-0.3,0.2l-0.4,0.2l-0.3,0.2l-0.3,0.1l-0.3,0.1l-0.4,0.1l-0.4,0    h-0.3l-0.3-0.1L98.4,13.6z M100.1,10.1l-0.2-0.3l0-0.3l0.1-0.3l0.1-0.1l0.2-0.1l0.2-0.1l0.1,0h0.1l0.2-0.1l0.4-0.2l0.6-0.3l0.6-0.2    l0.4-0.1h0.3l0.2,0.1l0.1,0.1l0,0.2v0.2l-0.1,0.1l-0.1,0.1l-0.1,0.1L103,9l-0.2,0.1l-0.2,0.1l-0.2,0.1l-0.2,0.1L102,9.6l-0.4,0.3    l-0.4,0.2l-0.4,0.2l-0.2,0.1h0l0,0l-0.1,0l-0.1,0L100.1,10.1z M105,15.6l-0.3-0.3l-0.2-0.4l-0.2-0.6l0-0.2l0-0.2l0-0.2l0-0.1v-0.6    l0-1.1l0.1-1.3l0.1-1.1l0-0.5l0.1-0.5l0.1-0.5l0.1-0.4l0-0.4l0.1-0.4l0-0.5l0-0.4l0-0.5l0.1-0.5l0.1-0.4l0.1-0.4l0.1-0.6l0.1-0.6    l0.1-0.5V2.4l0-0.2l0.1-0.2l0.1-0.2l0.1-0.1l0.3-0.1l0.3,0l0.2,0.1l0.2,0.2l0.1,0.1l0,0.1l0,0.1l-0.1,0.2l-0.3,0.8l-0.3,1.2    l-0.3,1.3l-0.2,1.1l-0.1,0.4l-0.1,0.7l-0.1,1.1l-0.1,1.5l0,1.2l0,1.1l0.1,0.9l0.2,0.5l0.5,0.4l0.8,0.2l0.9,0l1.2-0.3l0.6-0.2    l0.8-0.3l0.9-0.3l0.9-0.3l0.4-0.1l0.4-0.1l0.3-0.1l0.2-0.1l0.2-0.1l0.2-0.1l0.2-0.1l0.1-0.1l0.1-0.1l0.1-0.1l0.1-0.1l0.1,0l0.3,0    l0.2,0.1l0.2,0.2l0.1,0.3l0,0.2l-0.1,0.2l-0.2,0.1l-0.2,0.1l-0.1,0l-0.2,0.1l-0.2,0.1l-0.2,0.1l-0.3,0.1l-0.3,0.1l-0.3,0.1    l-0.3,0.1l-0.7,0.2l-0.9,0.3l-0.9,0.3l-0.9,0.3l-1.2,0.4l-0.9,0.2l-0.7,0l-0.6-0.1L105,15.6z M106.3,9L106.3,9l-0.1-0.2l-0.1-0.1    L106,8.5l0-0.1V8.3l0.1-0.1l0.1-0.2l0.1-0.1l0.2-0.1l0.1,0l0.3-0.1l0.5-0.3l0.6-0.4l0.6-0.4l0.4-0.3l0.4-0.2l0.3-0.1h0.2l0.2,0.1    l0.1,0.1l0.1,0.1l0,0.2l0,0.2L110.1,7l-0.3,0.2l-0.4,0.2l-0.2,0.1l-0.2,0.1l-0.2,0.1l-0.1,0.1l-0.3,0.2L108,8.2l-0.4,0.3l-0.3,0.3    l-0.1,0.1l-0.1,0.1L107.1,9L107,9l-0.1,0.1h-0.2l-0.2,0L106.3,9L106.3,9z" fill="rgb(222,165,60)"></path>
	<path d="M134,20.3L134,20.3l-0.2-0.3l-0.1-0.2l-0.3-0.8l-0.6-1.2l-0.6-1.3l-0.4-0.9l-0.1-0.2l-0.1-0.3l-0.1-0.3l-0.1-0.2l-0.1-0.3    l-0.1-0.3l-0.2-0.4l-0.2-0.4l-0.2-0.4l-0.2-0.4l-0.2-0.3l-0.1-0.3l-0.1-0.2l-0.1-0.2l-0.1-0.2l-0.1-0.1l-0.1-0.3l-0.6,0.7l-0.3,0.3    l-0.3,0.3l-0.3,0.3l-0.2,0.3l-0.2,0.3l-0.2,0.3l-0.2,0.2l-0.1,0.2l-0.2,0.4l-0.2,0.2l-0.2,0.1l-0.2,0h-0.2l-0.1,0l-0.1,0l-0.1-0.1    l-0.1-0.1l0-0.1l0-0.1V14l0.1-0.2l0.2-0.3l0.2-0.3l0.3-0.4l0.2-0.2l0.2-0.2l0.2-0.2l0.2-0.2l0.2-0.3l0.3-0.3l0.3-0.5l0.5-0.7    l0.2-0.3l-0.3-0.7L129,8.9l-0.2-0.4l-0.1-0.4l-0.1-0.3l-0.1-0.3l-0.1-0.2l-0.1-0.2l0-0.1h0l-0.1,0l-0.1,0l-0.1,0.1l-0.2,0.1    l-0.3,0.2L127,7.7l-0.4,0.2l-0.4,0.2l-0.4,0.2l-0.3,0.2l-0.3,0.1l-0.5,0.2l0,0.6l0,0.2l0,0.3l0,0.3l0,0.2l0,0.2v0.1l0,0l0.1,0    l0.2-0.1l0.1,0l0.1,0l0.1,0.1l0,0.1l0,0.1l0,0.1v0l0,0.1l-0.1,0.1l-0.1,0.2l-0.2,0.2l-0.5,0.4l-0.1,0.9l0,0.4l0,0.4l0,0.3l0,0.3    l0,0.6l-0.1,0.4l-0.2,0.3l-0.3,0.2l-0.4,0l-0.4-0.2l-0.4-0.4l-0.4-0.6l-0.1-0.2l-0.1-0.2l-0.1-0.1l0-0.1l0-0.1l-0.1,0l-0.2,0.1    l-0.3,0.3l-0.3,0.2l-0.3,0.3l-0.3,0.3l-0.2,0.2l-0.6,0.7l-0.5,0.6l-0.4,0.4l-0.2,0.2l-0.3,0l-0.2-0.1l-0.2-0.2l-0.1-0.3l0-0.2    l0.1-0.2l0.1-0.2l0.2-0.1l0.2-0.1l0.2-0.2l0.3-0.3L119,15l0.9-0.8l0.8-0.7l0.8-0.7l1.1-0.9l0.7-0.6l0-0.6l0-0.5l0-0.4l0-0.2l0-0.1    l-0.3,0.1l-0.4,0.3l-0.3,0.2l-0.1,0.1l-0.1,0.1l-0.2,0.1l-0.2,0.1l-0.2,0l-0.3-0.1l-0.2-0.2l-0.1-0.3l0.1-0.4l0.1-0.1l0.1-0.1    l0.2-0.1l0.2,0l0.1,0l0.2-0.1l0.3-0.1l0.3-0.1l0.4-0.2l0.3-0.1l0.1-0.1l0-0.1V8.6l0-0.1l0-0.2l0-0.2l-0.1-0.4l0-0.3l0.1-0.2    l0.1-0.2l0.2-0.1l0.2-0.1l0.2,0l0.2,0.1l0.2,0.1l0.1,0.1l0.1,0.2v0.3v0.2V8v0.1l0,0l0.1,0L125,8l0.3-0.2l0.4-0.2l0.5-0.2l0.5-0.2    L127,7l0.3-0.1l0.2-0.1l0.2-0.1l0.1-0.1l0.1,0l0-0.1l-0.1-0.3l-0.1-0.4l-0.1-0.4l-0.2-0.9l-0.2-0.9l-0.1-0.8l-0.1-0.6V2.2l0-0.2    l0-0.2l0-0.2l0-0.2l0-0.2l0-0.1L127,1l0.3-0.3l0.3-0.1l0.3,0.1l0.2,0.3l0.1,0.1l0,0.1l0,0.1l0,0.2l-0.1,0.6l0,0.7l0.1,0.7l0.2,0.7    l0.2,0.5l0.2,0.6l0.2,0.5l0.1,0.2l0,0l0.1,0l0.1-0.1l0.2-0.1l0.4-0.2l0.3-0.1l0.2,0l0.2,0.1l0.1,0.1l0,0.1l0,0.1l-0.1,0.1l-0.1,0.1    l-0.1,0.1l-0.2,0l-0.3,0.1l-0.1,0l-0.1,0l-0.1,0l0,0v0.1l0,0.1l0.1,0.2l0.1,0.2l0.1,0.3l0.1,0.3l0.1,0.3l0.1,0.2l0.1,0.2l0.1,0.2    L130,9l0,0.1l0.1,0l0.1-0.1l0.2-0.2l0.2-0.2l0.3-0.4l0.3-0.2l0.2-0.1l0.2,0l0.4,0.2l0.2,0.3l0,0.3L131.8,9l-0.1,0.1l-0.1,0.1    l-0.1,0l0,0l-0.2,0.1L131,9.6l-0.3,0.3l-0.1,0.2l0.1,0.3l0.2,0.5l0.2,0.5l0.2,0.5l0.1,0.2l0.1,0.3l0.1,0.4l0.1,0.3l0.1,0.3l0.1,0.3    l0.1,0.3l0.1,0.2l0.1,0.2l0.2,0.4l0.2,0.5l0.2,0.5l0.4,0.9l0.4,0.9l0.4,0.8l0.4,0.7l0.1,0.3l0.1,0.2l0.1,0.2l0,0.1l0,0.2l-0.1,0.2    l-0.1,0.1l-0.1,0h0l0,0h0l0,0h-0.1l-0.1,0l-0.1,0L134,20.3L134,20.3z M122.5,5.5L122.5,5.5l-0.2-0.1l-0.1-0.1l-0.1-0.3l0.1-0.3    l0.2-0.2l0.3-0.2l0.1,0l0.1-0.1l0.1-0.1l0.1-0.1l0.5-0.2l0.7-0.3l0.7-0.3l0.5-0.2L126,3l0.3,0l0.2,0.1l0.1,0.2l0.1,0.1l0,0.1l0,0.1    l0,0.1l-0.1,0.2l-0.2,0.1L126.1,4l-0.3,0l-0.3,0l-0.3,0.1l-0.3,0.1l-0.4,0.2l-0.4,0.2l-0.3,0.2L123.6,5l-0.2,0.2l-0.1,0.1l-0.1,0.1    l-0.1,0.1l-0.2,0.1h0h-0.1l-0.1,0L122.5,5.5L122.5,5.5z M123.3,12.7l-0.2,0.1l-0.1,0.1l-0.1,0.1l-0.1,0.1l-0.2,0.1l-0.3,0.2    l0.9,0.9l0-0.2l0-0.1l0-0.2l0-0.2l0-0.3L123.3,12.7z M131.1,3.7L131,3.6l-0.1-0.1l-0.1-0.2l0-0.1l0-0.1l0-0.1l0.1-0.1l0.1-0.2    l0.1-0.1l0.2-0.1l0.2,0l0.1,0l0.2-0.1l0.2-0.1l0.2-0.1l0.5-0.2l0.5-0.2l0.4-0.1l0.3-0.1l0.2,0l0.2,0.1l0.1,0.2l0,0.2l0,0.2    l-0.1,0.2l-0.2,0.1l-0.3,0.1l-0.5,0.2L132.6,3l-0.4,0.2L132,3.4l-0.2,0.2l-0.2,0.1l-0.2,0l-0.2,0L131.1,3.7z" fill="rgb(222,165,60)"></path>
	<path d="M139.2,14.9c-0.2,0-0.3-0.3-0.4-0.9l-0.1-0.3h0.1c0-1.2-0.1-2.3-0.2-3.2l0-0.9l0-0.1l0,0l-0.8,1.6l0.1,0.3    c-0.1,0.2-0.2,0.3-0.4,0.3c-0.3,0-0.5-0.2-0.5-0.5c0-0.3,0.1-0.6,0.2-0.8c0.9-1.5,1.7-2.5,2.3-3.2c0-0.1,0.1-0.1,0.3-0.1l0.5,0.3    c-0.2,0.1-0.3,0.2-0.4,0.4c-0.1,0.1-0.2,0.3-0.3,0.4c0,0,0,0.1,0,0.1c0,0-0.1,0.2-0.3,0.4c0,0.1,0,0.1,0.1,0.1    c0.1,0,0.2,0.3,0.2,0.9c0,0.6,0,1,0.1,1.2c0,0.2,0.1,0.4,0.1,0.5l0.2,2.9l0,0.1c0,0.1-0.1,0.2-0.2,0.2c0,0,0,0.1-0.1,0.1    C139.3,14.9,139.2,14.9,139.2,14.9z M142.6,14.4h-0.1c-0.4,0-0.6-0.2-0.6-0.6l0.1-0.9c0-0.5,0.1-1.2,0.2-2c0.1-0.2,0.1-0.6,0.1-1.1    c-0.1-0.1-0.2-0.2-0.2-0.3c0-0.1,0-0.2,0.1-0.3c0.1-0.2,0.1-0.3,0.1-0.5c0-0.4,0-0.7-0.1-0.8V7.6c0.1-0.1,0.2-0.2,0.2-0.4    c0-0.2,0.1-0.3,0.4-0.3c0.1,0,0.2,0.1,0.3,0.2c0.1,0.2,0.2,0.4,0.3,0.4s0.2,0.1,0.3,0.2c0.1,0.1,0.2,0.2,0.3,0.3    c0.1,0.1,0.2,0.3,0.3,0.6c0.1,0.3,0.2,0.5,0.3,0.6c0,0,0.1,0,0.3,0l0.8-0.5c0.3,0,0.4,0.1,0.4,0.3c0,0.1-0.1,0.2-0.3,0.3    c-0.7,0.4-1.1,0.8-1.3,1.2c-0.1,0.3-0.4,0.5-0.6,0.5l-0.3,0c-0.1,0-0.1,0.4-0.2,1.1s-0.1,1.4-0.1,2.1    C142.9,14.2,142.8,14.3,142.6,14.4z M143.3,9.9l0.2-0.2l0,0c-0.1,0-0.2,0.1-0.3,0.2L143.3,9.9L143.3,9.9z M152.9,17    c-0.1,0-0.2,0-0.3,0c-0.1,0-0.6-0.5-1.3-1.5c0-0.1,0-0.4,0-0.6c0-0.3,0.1-0.5,0.3-0.5c0.1,0,0.2,0.1,0.3,0.3    c0.1,0.2,0.2,0.4,0.3,0.6v0.2c0,0.1,0.1,0.3,0.3,0.3c0,0.1,0,0.1,0,0.1s0,0,0,0l0.1-2.3v-1.4l0-2.1c0-1.1,0-1.7-0.1-1.7    c-0.1,0-0.1,0-0.1-0.1c0,0-0.1,0.1-0.2,0.1c-0.1,0-0.2,0.1-0.2,0.1s-0.1,0.1-0.2,0.1c-0.3,0.1-0.7,0.2-1.2,0.5    c-0.1,0.1-0.2,0.1-0.3,0.1c-0.3,0-0.4-0.2-0.4-0.6c0.2-0.1,0.3-0.3,0.3-0.5V7.8c0.1-0.4,0.2-1,0.3-1.7l-0.1-0.7    c0-0.3,0.1-0.4,0.3-0.4c0.2,0,0.3,0.1,0.4,0.3c0,0.1,0,0.1,0.1,0.2c0.6-0.8,1.1-1.3,1.4-1.5c0.1,0,0.2,0,0.2,0.1    c0,0.1,0.1,0.1,0.2,0.2c0.2,0.3,0.3,0.5,0.3,0.7c0,0.2,0.1,0.6,0.2,1.3l0,3.4l-0.2,6.4l0,0.3C153.4,16.8,153.2,17,152.9,17z     M152,7.9c0.5-0.1,0.7-0.2,0.7-0.2l-0.2-0.1c-0.4-0.3-0.7-0.4-1-0.4c0,0-0.1,0.3-0.3,0.8l0,0.1C151.3,8.1,151.5,8,152,7.9z     M152.8,6.7V6.4c0-0.7-0.1-1.1-0.3-1.2c-0.2,0.2-0.4,0.5-0.8,1l0.1,0.2C152.3,6.6,152.5,6.7,152.8,6.7L152.8,6.7z" fill="rgb(222,165,60)"></path>
	<path d="M153.9,18.9l-0.1-0.2l-0.1-0.2l0-0.2l0-0.1l0.1-0.1l0.1-0.1l0.1-0.1l0.3-0.5l0.5-0.8l0.6-0.9l0.5-0.8l0.4-0.6l0.3-0.6    l0.3-0.6l0.3-0.6l0.2-0.3l0.1-0.3l0.1-0.3l0.1-0.2l0.2-0.3l-0.2-0.2l-0.2-0.2l-0.2-0.3l-0.1-0.4l-0.1-0.4l-0.1-0.4l-0.4,0.2    l-0.2,0.1l-0.2,0.1l-0.2,0.1L156,9.8l-0.2,0.1l-0.2,0.1l-0.1,0.1l-0.1,0l-0.3,0.1l-0.4-0.1l-0.3-0.2l-0.1-0.3l0-0.2l0.1-0.2    l0.1-0.2l0.1-0.1l0.1,0l0.1,0l0.1,0l0.1,0l0.4-0.1l0.6-0.1l0.6-0.2l0.4-0.1l0.1-0.1l0.1,0l0-0.1l0-0.1l0-0.3l0.1-0.5l0.2-0.5    l0.2-0.6l0.2-0.6l0.2-0.5l0.1-0.5l0-0.4V4.1l0-0.1l0.1-0.1l0.1-0.1l0.2-0.2l0.2-0.1l0.2,0.1l0.2,0.2l0.2,0.2l0.1,0.2l0,0.2    l-0.1,0.3l-0.4,0.9l-0.4,1l-0.3,0.9l-0.1,0.4l0,0l0.1,0l0.1,0l0.2-0.1l0.2-0.1l0.2-0.1l0.2,0l0.2,0l0.2,0l0.1-0.1l0.1-0.1L160,7    l0.2-0.4l0.2-0.4l0.1-0.4l0.1-0.4l0-0.1l0-0.2l0-0.1l0-0.1l0.3-0.2l0.3,0l0.3,0.1l0.2,0.2l0.1,0.2l0,0.2l0,0.2l-0.1,0.2L161.7,6    l-0.1,0.1l-0.1,0.1l0,0.1l0,0.1l-0.1,0.1l-0.1,0.2l-0.1,0.2L161.1,7l-0.1,0.1l0,0h0.1l0.5-0.1l0.7-0.1l0.7-0.1l0.4,0l0.1,0.1    l0.1,0.1l0.1,0.2l0,0.1v0.1l0,0.1l0,0.1l-0.1,0.1l-0.1,0.1l-0.1,0.1l-0.2,0l-0.2,0l-0.5,0.1l-0.8,0.1L161,8.1l-0.4,0.1l-0.2,0.2    l-0.3,0.5l-0.3,0.7l-0.3,0.7l-0.1,0.3l-0.1,0.2l-0.1,0.2l0,0.1V11l0.2,0.1l0.4,0.1l0.7,0.1l0.4,0.1l0.3,0l0.3,0h0.3h0.4l0.2,0.1    l0.2,0.1l0.1,0.2l0,0.3l-0.1,0.2l-0.3,0.1l-0.3,0l-0.2,0l-0.3,0l-0.3,0l-0.3,0l-0.4-0.1l-0.4-0.1l-0.3-0.1l-0.3-0.1l-0.3-0.1    l-0.2-0.1l-0.1,0l-0.1,0l0,0l0,0.1l-0.1,0.1l-0.1,0.2l-0.1,0.3l-0.2,0.4l-0.4,0.6l-0.6,0.9l-0.2,0.3l-0.2,0.4l-0.3,0.4l-0.2,0.4    l-0.3,0.4l-0.3,0.4l-0.2,0.4l-0.2,0.3l-0.2,0.2l-0.2,0.2l-0.1,0.2l-0.1,0.2l-0.2,0.3l-0.1,0.2l-0.2,0.1l-0.2,0h-0.1l-0.1,0l-0.1,0    L153.9,18.9L153.9,18.9z M159.1,8.7l0-0.1H159l-0.4,0.1l-0.4,0.1v0.5v0.2l0,0.2l0.1,0.2l0.1,0.1l0.2,0.2l0.2-0.4l0.1-0.2l0.1-0.2    l0.1-0.2l0.1-0.2L159.1,8.7z M166.3,15.8L166.3,15.8l-0.1-0.1l-0.1-0.1l-0.1-0.2l0.3-0.7l0.4-0.9l0.3-0.7l0.2-0.6l0.1-0.5l0.1-0.5    v-0.2l-0.2,0l-0.4,0.1l-0.6,0.2l-0.6,0.2l-0.6,0.2l-0.3,0.2l-0.2,0.1l-0.2,0l-0.2,0l-0.2-0.1l-0.1-0.1l-0.1-0.2l0-0.2l0-0.2    l0.1-0.2l0.1-0.2l0.1-0.1l0.1,0l0.2,0l0.3,0l0.4-0.1l0.5-0.1l0.8-0.2l0.6-0.2l0.3-0.1l0.1-0.1l0-0.1l-0.1-0.1l-0.1-0.2L167,9.5    l-0.2-0.3l-0.1-0.2l-0.1-0.2l0-0.3V8.3l0-0.4l0.1-0.4l0.1-0.2l0.1-0.3l0.3-0.6l0.3-0.7l0.3-0.6l0.1-0.4l-0.2,0.1L167.3,5l-0.2,0.1    l-0.2,0.2l-0.1,0.1l-0.2,0.2l-0.2,0.1l-0.2,0l-0.2,0l-0.2-0.1l-0.1-0.1l-0.1-0.1l-0.1-0.2V4.9l0.1-0.2l0.3-0.2l0.5-0.2l0.5-0.2    l0.4-0.2l0.4-0.1l0.4-0.1l0.4,0l0.3,0.3l0.1,0.2l0.1,0.1l0.1,0.1l0,0.1l0,0.2L169,4.9l-0.2,0.3l-0.2,0.4l-0.3,0.5l-0.3,0.5    l-0.2,0.5l-0.1,0.5l-0.1,0.5l0,0.3l0.1,0.2l0.2,0.3l0.2,0.2l0.1,0.2l0.1,0.2l0.1,0.1l0.1,0.2l0.2-0.1l0.1,0l0.1-0.1l0.1,0l0.1,0    l0.1-0.1l0.2-0.1l0.2-0.1l0.2-0.1l0.4-0.1l0.4-0.1l0.7-0.2l1.1-0.2l0.3-0.1l0.4-0.1l0.4-0.1l0.3-0.1l0.5-0.1l0.3,0l0.2,0.1l0.2,0.1    l0.1,0.2l0,0.2l0,0.2l-0.1,0.2l-0.2,0.1l-0.4,0.1l-0.7,0.2l-1.2,0.3L172,9.8l-0.6,0.2l-0.7,0.2l-0.8,0.3l-0.3,0.1l-0.3,0.1    l-0.3,0.1l-0.2,0.1l-0.4,0.1l-0.4,1.3l-0.2,0.5l-0.2,0.5l-0.1,0.4l-0.1,0.2l-0.2,0.6l-0.2,0.6l-0.2,0.5l-0.1,0.2l-0.1,0.1l-0.1,0.1    h-0.1L166.3,15.8L166.3,15.8z" fill="rgb(222,165,60)"></path>
	<path d="M176.9,21.3L176.9,21.3l-0.2-0.2l-0.1-0.1l0-0.1l0-0.2l0.2-0.3l0.3-0.4l0.2-0.3l0.2-0.3l0.2-0.3l0.2-0.3l0.4-0.7l0.3-0.4    l0.2-0.3l0.1-0.2l0.3-0.7l0.5-1l0.5-1.1l0.4-0.8l0.2-0.4l0.2-0.4l0.2-0.4l0.2-0.4l0.4-0.7l0.3-0.6l0.2-0.4l0-0.2l-0.5,0.2l-1,0.5    l-1.1,0.6l-0.8,0.4l-0.2,0.2l-0.2,0.1l-0.2,0.1l-0.1,0.1l-0.1,0.1l-0.1,0.1l-0.1,0.1l-0.1,0.1l-0.1,0.1l-0.1,0.1l-0.1,0l-0.2,0    l-0.2,0l-0.2-0.1l-0.1-0.1l-0.1-0.2l0-0.1l0-0.1l0-0.1l0.1-0.1l0.1-0.2l0.1-0.1l0.2-0.1l0.2,0l0.4-0.1l0.6-0.3l0.9-0.4l1.1-0.5    l0.5-0.3l0.5-0.3l0.5-0.3l0.4-0.2l0.9-0.4l0.4-0.9l0.2-0.4l0.2-0.4l0.2-0.3l0.1-0.3l0.2-0.5L184,6.3l-0.7,0.3l-0.4,0.1l-0.3,0    l-0.2-0.2l-0.2-0.2l-0.1-0.2l0-0.2l0.1-0.2l0.1-0.1l0.1-0.1l0.2,0l0.2-0.1l0.4-0.1l0.4-0.1l0.3-0.1l0.3-0.1l0.1-0.1l0.1-0.1    l0.1-0.1l0.1-0.2l0-0.2l0-0.2l0-0.2l0-0.2l0-0.3l0.1-0.2l0.1-0.2l0.2-0.1l0.3-0.1l0.3,0.1l0.2,0.2l0.1,0.3v0.1l0,0.1l0,0.1l0,0.1    l-0.1,0.1l-0.1,0.2l0,0.2l0,0.1h0.1l0.1,0l0.1,0l0.2,0l0.2,0l0.2,0l0.2,0l0.1,0l0.2,0l0.1,0l0.1,0l0.1,0.1l0.1,0.1l0,0.1l0,0.1    l0,0.1l-0.1,0.2l-0.1,0.1l-0.2,0.1l-0.3,0l-0.4,0l-0.3,0l-0.3,0.1l-0.2,0.1l-0.1,0.1l-0.1,0.1l-0.1,0.1l-0.1,0.2l-0.1,0.2L185,6.7    L184.8,7l-0.2,0.4l-0.2,0.4l-0.1,0.3l-0.1,0.2l0,0.1l0.1,0l0.2-0.1l0.3-0.1l0.3-0.1l0.6-0.2l0.7-0.2l0.8-0.2l0.9-0.2l1.4-0.3    l1.1-0.2l0.8-0.2l0.4-0.1l0.3,0.1l0.2,0.2l0.1,0.2l0,0.2l-0.1,0.2l-0.2,0.1l-0.3,0.1h-0.5l-1,0.1l-1,0.2l-1.2,0.3l-1.4,0.4    l-0.3,0.1l-0.3,0.1l-0.3,0.1l-0.2,0.1l-0.2,0L184.8,9l-0.2,0.1l-0.2,0.1L184,9.4l-0.2,0.1l-0.1,0.1l-0.1,0.2l-0.1,0.2l-0.1,0.2    l-0.1,0.1l-0.1,0.1l-0.2,0.4l-0.3,0.7l-0.4,0.8l-0.4,0.9l-0.2,0.3l-0.2,0.4l-0.2,0.4l-0.2,0.4l-0.5,0.9l-0.5,0.9l-0.4,0.8l-0.5,0.8    l-0.2,0.5l-0.3,0.4l-0.2,0.4l-0.1,0.3l-0.1,0.2l-0.1,0.3l-0.1,0.3l-0.1,0.2l-0.1,0.2l-0.1,0.2l-0.1,0.2l-0.1,0.1l-0.1,0.1l-0.2,0.1    l-0.1,0l-0.1,0L176.9,21.3z M183,2.7l-0.2-0.3l0-0.3l0.2-0.3l0.1-0.1l0.1-0.1l0.2,0l0.2,0l0.4-0.1l0.6-0.1l0.7-0.2l0.9-0.3l0.4-0.1    l0.3-0.1l0.3-0.1l0.2,0l0.4-0.1l0.3,0.3l0.1,0.1l0.1,0.1l0.1,0.1l0,0.1l0,0.3l-0.2,0.2L188,2l-0.3,0l-0.1,0l-0.1-0.1l-0.1-0.1    l-0.1-0.1l-0.3-0.1l-0.7,0.1l-1,0.4l-1.5,0.7l-0.2,0.1l-0.2,0.1h-0.1l-0.1,0L183,2.7z M187.4,18.8L187.4,18.8L187.4,18.8l-0.1-0.1    l0-0.1l-0.1-0.1h-0.1l-0.2,0l-0.6,0.1l-0.4,0l-0.3-0.1l-0.2-0.2l-0.1-0.2l0-0.2l0.1-0.2l0.1-0.2l0.1-0.1l0.2-0.1l0.2,0l0.4,0h0.3    h0.3l0.2,0h0.2l0.3,0l0.2-0.5l0.1-0.2l0.1-0.2l0-0.1v0h0l-0.1,0l-0.2,0l-0.2,0l-0.5,0.1h-0.4l-0.3-0.1l-0.2-0.2l-0.2-0.3l0-0.3    l0.3-0.5l0.5-0.7l0.2-0.2L187,14l0.1-0.1l0-0.1l0,0l0,0l0,0H187l-0.2-0.1l-0.2-0.1l-0.1-0.2l-0.1-0.2l0.1-0.3l0.2-0.2l0.3-0.1    l0.3,0l0.1,0l0.2,0h0.2h0.2h0.2h0.2l0.1,0l0.1,0l0.1-0.1v-0.4l-0.1-0.4l-0.1-0.3l-0.1-0.1l-0.1,0l-0.1,0l-0.1,0l-0.3,0.1l-0.3,0.1    l-0.4,0.2l-0.4,0.2l-0.7,0.5l-0.6,0.7l-0.5,0.8l-0.3,0.9l-0.1,0.6l-0.1,0.6l0,0.6V17l0,0.2v0.2l0,0.2l-0.1,0.1l-0.1,0.2l-0.1,0.1    l-0.1,0.1l-0.2,0.1l-0.3,0l-0.2-0.2l-0.1-0.3l0-0.4l0-0.2l0-0.3l0-0.3l0-0.4l0-0.4l0.1-0.4l0-0.3l0-0.2l0-0.2l0.1-0.3l0.1-0.3    l0.1-0.3l0.1-0.3l0.1-0.3L184,13l0.1-0.2l0-0.2l0-0.2l0-0.2l0-0.1V12l0-0.1l0.1-0.1l0.1-0.1l0.1-0.1l0.1-0.1l0.1,0h0.2l0.2,0l0.1,0    l0.1,0.1l0.1,0.1l0.1,0.2l0.5-0.5l0.6-0.5l0.7-0.4l0.7-0.2l0.6,0l0.3,0.1l0.2,0.1l0.2,0.2l0.1,0.4l0.1,0.5l-0.1,0.7l-0.1,0.4    l-0.1,0.4l-0.1,0.4l-0.1,0.4l-0.2,1l-0.2,1.1l-0.2,1.1l-0.2,1l0,0.3l0,0.2l-0.1,0.2l-0.1,0.1l-0.1,0.1l-0.2,0l-0.2,0L187.4,18.8    L187.4,18.8z M188.1,15.3L188.1,15.3l0.1-0.1l0.1-0.2l0-0.1l0-0.2l0-0.2l0-0.1l0-0.2v-0.1l0,0l0,0l-0.3,0.2l-0.4,0.3l-0.4,0.4    l-0.2,0.2l0,0.1l0,0h0.1l0.2,0l0.1,0l0.2,0l0.1,0h0.1H188.1z" fill="rgb(222,165,60)"></path>
</g></svg>